<svg width="100" height="91" viewBox="0 0 100 91" fill="none" xmlns="http://www.w3.org/2000/svg">
<path d="M50 0C33.3083 0 19.7208 13.0875 18.8375 29.55C8.12917 31.4792 0 40.825 0 52.0833C0 64.7375 10.2625 75 22.9167 75H77.0833C89.7375 75 100 64.7375 100 52.0833C100 40.825 91.8708 31.4792 81.1625 29.55C80.2792 13.0875 66.6917 0 50 0V0Z" fill="#C88212"/>
<path d="M93.3333 60.0833V51.25C93.3333 43.9338 87.3622 38 80 38C72.6378 38 66.6667 43.9338 66.6667 51.25V60.0833H60V91H100V60.0833H93.3333ZM82.2222 77.1383V82.1667H77.7778V77.1383C76.4556 76.372 75.5556 74.9653 75.5556 73.3333C75.5556 70.8953 77.5467 68.9167 80 68.9167C82.4533 68.9167 84.4444 70.8953 84.4444 73.3333C84.4444 74.9631 83.5467 76.372 82.2222 77.1383ZM71.1111 60.0833V51.25C71.1111 46.3784 75.0978 42.4167 80 42.4167C84.9 42.4167 88.8889 46.3784 88.8889 51.25V60.0833H71.1111Z" fill="white" fill-opacity="0.45"/>
</svg>
