<svg width="100" height="111" viewBox="0 0 100 111" fill="none" xmlns="http://www.w3.org/2000/svg">
<path d="M50 0C33.3083 0 19.7208 13.0875 18.8375 29.55C8.12917 31.4792 0 40.825 0 52.0833C0 64.7375 10.2625 75 22.9167 75H77.0833C89.7375 75 100 64.7375 100 52.0833C100 40.825 91.8708 31.4792 81.1625 29.55C80.2792 13.0875 66.6917 0 50 0V0Z" fill="#C88212"/>
<path d="M75.5 52.6667V36C75.5 22.1958 64.3042 11 50.5 11C36.6958 11 25.5 22.1958 25.5 36V52.6667H13V111H88V52.6667H75.5ZM54.6667 84.8458V94.3333H46.3333V84.8458C43.8542 83.4 42.1667 80.7458 42.1667 77.6667C42.1667 73.0667 45.9 69.3333 50.5 69.3333C55.1 69.3333 58.8333 73.0667 58.8333 77.6667C58.8333 80.7417 57.15 83.4 54.6667 84.8458ZM33.8333 52.6667V36C33.8333 26.8083 41.3083 19.3333 50.5 19.3333C59.6875 19.3333 67.1667 26.8083 67.1667 36V52.6667H33.8333Z" fill="white" fill-opacity="0.45"/>
</svg>
