<svg width="150" height="100" viewBox="0 0 150 100" fill="none" xmlns="http://www.w3.org/2000/svg">
<path d="M72 75.4C56.9539 72.0917 53.5309 69.1917 60.3123 56.9917C80.963 19.8583 65.7857 0 43.9843 0C21.7498 0 6.95307 20.6208 27.6563 56.9917C34.6434 69.2625 30.7223 72.1625 16 75.4C2.55514 78.3583 -0.043701 84.8458 5.04236e-05 95.9625L0 100H96.4598L86.9771 95.9625C87.0296 84.7625 85.493 78.3708 72 75.4Z" fill="#C88212"/>
<path d="M137 80.4458C124.638 77.6083 121.35 70.2917 125.783 60.7667C128.633 65.4583 137.454 68.1708 144.325 64.1167C124.546 59.1 154.05 24.6542 128.196 5.34583C123.467 1.79167 117.671 0 111.896 0C106.154 0 100.433 1.77083 95.8043 5.34583C69.946 24.6542 99.4543 59.1 79.671 64.1167C86.5418 68.175 95.3793 65.3375 98.2168 60.7667C102.65 70.2917 98.846 77.6125 86.5002 80.4458C74.0918 83.2875 73 90.7208 73 97.1292V100H150V97.1292C150 90.725 149.408 83.2875 137 80.4458Z" fill="#C88212"/>
<path d="M102.867 84.502C92.9792 82.4178 83.776 80.5908 88.2324 72.9048C101.803 49.5108 91.8292 37 77.5026 37C62.8913 37 53.1677 49.9911 66.7727 72.9048C71.3642 80.6354 61.8132 82.4624 52.1385 84.502C43.3033 86.3658 42.9726 90.3715 43.0014 97.375L43.0129 100H111.986L111.998 97.4564C112.032 90.4004 111.733 86.3736 102.867 84.502V84.502Z" fill="white" fill-opacity="0.45"/>
</svg>
