<svg width="100" height="100" viewBox="0 0 100 100" fill="none" xmlns="http://www.w3.org/2000/svg">
<g clip-path="url(#clip0)">
<path d="M1.25418 49.5591C1.25418 49.5591 55.5496 72.0948 96.624 57.0748C96.7896 55.4551 96.875 53.8117 96.875 52.1485C96.875 25.7203 75.4516 4.29614 49.0234 4.29614C23.4588 4.29614 2.57788 24.3439 1.24121 49.5751L1.25418 49.5591Z" fill="#2299F2"/>
<path d="M21.9256 0.165538C13.9338 1.25502 13.1739 5.78612 13.1708 7.44856C13.1701 7.79723 12.9763 8.11995 12.6627 8.27254C8.50547 10.2951 10.747 20.4323 10.747 20.4323C11.1643 20.4597 11.6015 20.6291 11.9273 20.787C12.0074 20.2904 12.3331 19.4107 12.517 18.9377C12.6574 18.5776 12.8321 18.2137 13.0518 17.8703C13.4318 17.2737 13.605 16.5703 13.5531 15.8668C13.4035 13.8336 13.2807 10.022 15.964 8.81423C18.2383 7.79113 21.0276 8.38393 22.806 8.97521C23.9611 9.35897 25.2123 9.35897 26.3674 8.97521C28.1458 8.38393 30.9351 7.79113 33.2087 8.81423C35.8851 10.0189 35.7691 13.8107 35.6211 15.8493C35.57 16.5581 35.7386 17.2691 36.1216 17.8703C36.3482 18.2251 36.5275 18.6012 36.6694 18.9728C36.8464 19.4344 37.1676 20.3026 37.2454 20.787C37.6567 20.5879 38.2434 20.3712 38.7461 20.4422C38.8072 18.3105 39.004 15.6227 39.004 15.6227C41.3729 4.02296 30.5308 -1.00634 21.9256 0.165538V0.165538Z" fill="#3C2B8E"/>
<path d="M13.1709 7.44855C13.1701 7.79722 12.9763 8.11994 12.6627 8.27253C8.50547 10.2951 10.747 20.4323 10.747 20.4323C11.1643 20.4597 11.6015 20.6291 11.9273 20.787C12.0074 20.2904 12.3331 19.4107 12.517 18.9377C12.6574 18.5776 12.8321 18.2136 13.0518 17.8703C13.4318 17.2737 13.605 16.5703 13.5531 15.8668C13.4035 13.8336 13.2807 10.022 15.9647 8.81422C17.7508 8.01084 19.8527 8.20463 21.535 8.61127C21.5022 8.5388 21.4724 8.46479 21.4365 8.39231C18.9578 3.39048 21.9256 0.165527 21.9256 0.165527C13.9338 1.25501 13.1739 5.78611 13.1709 7.44855Z" fill="#2C217C"/>
<path d="M28.6854 95.4705V61.7257C28.6854 59.2614 29.279 56.8345 30.4157 54.6479L30.6401 54.2161C33.6842 49.4027 33.8932 45.2447 33.762 43.2503C32.8663 41.6489 32.6 39.4524 32.5436 37.8159C30.386 40.3298 27.927 42.0426 24.5861 42.0426C21.2452 42.0426 18.7878 40.3298 16.6287 37.8159C16.5722 39.4532 16.3059 41.6489 15.4102 43.2503C15.279 45.2454 15.4888 49.4027 18.5322 54.2161L18.7573 54.6479C19.8933 56.8345 20.4868 59.2614 20.4868 61.7257V90.5603C23.0358 92.4577 25.7817 94.1049 28.6854 95.4705Z" fill="#FE9D9A"/>
<path d="M19.6307 56.675C19.8695 57.3594 20.0587 58.059 20.1976 58.7693C22.9197 53.547 23.8604 48.0424 23.9817 42.0228C20.9124 41.8267 18.6137 40.1276 16.6293 37.8159C16.5683 39.5821 16.2738 41.7077 15.4109 43.2503C14.9928 49.6102 18.6152 53.7461 19.6307 56.675V56.675Z" fill="#F98F8F"/>
<path d="M24.5866 58.4495C20.9893 58.4495 17.7926 56.7459 15.751 54.1038H14.9209V85.7116C20.2493 91.1247 26.8556 95.2751 34.253 97.673V54.103H33.4222C31.3813 56.7459 28.1839 58.4495 24.5866 58.4495Z" fill="#D9F5FF"/>
<path d="M24.5866 58.4495C20.9893 58.4495 17.7926 56.7459 15.751 54.1038H14.9209V59.0232C17.5973 61.0839 20.9474 62.313 24.5866 62.313C28.2258 62.313 31.5767 61.0839 34.253 59.0232V54.103H33.4222C31.3813 56.7459 28.1839 58.4495 24.5866 58.4495Z" fill="#ABE4FE"/>
<path d="M36.8654 18.9728C36.7227 18.6012 36.5434 18.2251 36.3176 17.8703C35.9346 17.2691 35.766 16.5581 35.8171 15.8493C35.9651 13.8107 35.8858 9.82361 33.2094 8.61893C30.9358 7.59582 28.1465 8.18863 26.3681 8.77991C25.213 9.16443 23.961 9.16443 22.8059 8.77991C21.0267 8.18863 18.2382 7.59582 15.9646 8.61893C13.2806 9.82666 13.2081 13.8336 13.3577 15.8669C13.4095 16.5703 13.2364 17.2737 12.8564 17.8703C12.6367 18.2144 12.462 18.5783 12.3216 18.9385C11.8669 20.1065 11.7341 21.373 11.9043 22.6135L12.5375 27.2225C12.5375 33.8478 16.0737 38.3515 19.0828 40.6876C20.6529 41.9075 22.5908 42.5698 24.5866 42.5698C26.5825 42.5698 28.5203 41.9075 30.0912 40.6876C33.0995 38.3515 36.6365 33.8478 36.6365 27.2225L37.269 22.6151C37.4376 21.3867 37.3094 20.1317 36.8654 18.9728Z" fill="#FFBAAE"/>
<path d="M23.3621 40.6876C21.0588 38.3515 18.3511 33.8479 18.3511 27.2225L17.8666 22.6136C17.7362 21.373 17.8376 20.1066 18.1855 18.9377C18.2931 18.5776 18.4274 18.2137 18.5945 17.8704C18.8859 17.2738 19.0187 16.5703 18.979 15.8669C18.8646 13.8337 18.9195 9.8267 20.9749 8.61897C21.1252 8.53046 21.28 8.45799 21.4364 8.39237C19.7709 8.00251 17.7156 7.83161 15.9646 8.61897C13.2806 9.8267 13.2081 13.8337 13.3577 15.8669C13.4095 16.5703 13.2364 17.2738 12.8564 17.8704C12.6367 18.2137 12.462 18.5776 12.3216 18.9377C11.8669 20.1066 11.7341 21.373 11.9043 22.6136L12.5375 27.2225C12.5375 33.8479 16.0745 38.3515 19.0828 40.6876C20.6529 41.9068 22.5908 42.5698 24.5866 42.5698C25.1588 42.5698 25.7249 42.5133 26.2796 42.4073C25.2214 42.1426 24.2196 41.5581 23.3621 40.6876Z" fill="#FE9D9A"/>
<path d="M39.6449 20.3286C39.0223 19.7579 37.7825 20.047 37.2462 20.3965C37.3637 21.1274 37.3705 21.8758 37.2691 22.6143L36.6366 27.2225C36.6366 27.594 36.6244 27.958 36.603 28.3158C38.1457 28.7812 38.9124 27.3964 39.0414 26.4466C39.0971 26.0369 39.1879 25.634 39.3137 25.2404C39.7242 23.9586 41.2043 21.7575 39.6449 20.3286Z" fill="#F98F8F"/>
<path d="M9.52907 20.3286C10.1516 19.7579 11.3914 20.047 11.927 20.3965C11.8095 21.1274 11.8034 21.8758 11.9049 22.6143L12.5373 27.2225C12.5373 27.594 12.5488 27.958 12.5702 28.3158C11.0275 28.7812 10.2615 27.3964 10.1326 26.4466C10.0769 26.0369 9.98607 25.634 9.86019 25.2404C9.44973 23.9586 7.96962 21.7575 9.52907 20.3286Z" fill="#F98F8F"/>
<path d="M18.9232 54.2161C14.65 47.4587 15.963 41.9907 15.963 41.9907C15.686 42.8132 15.2992 43.5731 14.7682 44.1621C14.7209 44.2139 14.6759 44.2689 14.6263 44.3185C12.9784 44.6992 11.3258 45.2202 9.85871 45.8054C5.01633 47.7196 4.12598 49.0853 2.3674 49.2287C1.98364 49.26 1.61438 49.3066 1.25427 49.3638C1.20163 50.2854 1.17188 51.2131 1.17188 52.1485C1.17188 68.0551 8.93555 82.1458 20.8779 90.8471V61.7257C20.8779 59.2614 20.2843 56.8345 19.1475 54.6479L18.9232 54.2161Z" fill="#FBC840"/>
<path d="M18.9232 54.2159C18.8996 54.1778 18.8782 54.1412 18.8546 54.103L16.7534 55.9882C16.7534 55.9882 19.3871 58.271 20.8779 61.7255C20.8779 59.2613 20.2843 56.8343 19.1475 54.6478L18.9232 54.2159Z" fill="#F9B50B"/>
<path d="M15.9628 41.9907C15.9628 41.9907 12.7157 42.7567 10.9175 45.4056C10.9175 50.0245 12.4128 54.4091 13.3597 56.7224C13.7098 57.5761 14.7932 57.8332 15.4875 57.2251L18.923 54.2161C15.28 46.0679 15.9628 41.9907 15.9628 41.9907Z" fill="#FFEBB3"/>
<path d="M46.8059 49.2287C45.0473 49.0853 44.1569 47.7196 39.3146 45.8054C37.8474 45.2202 36.1941 44.6992 34.5462 44.3185C34.4966 44.2689 34.4516 44.2139 34.4043 44.1621C33.874 43.5731 33.4872 42.8139 33.2103 41.9907C33.2103 41.9907 34.5225 47.4587 30.2501 54.2161L30.025 54.6479C28.889 56.8345 28.2954 59.2614 28.2954 61.7257V95.2897C32.0361 97.0895 36.0469 98.4155 40.2499 99.1944H44.7925C44.7925 99.1944 46.0399 93.8562 46.0399 88.778C46.0399 85.2662 47.0187 81.669 47.623 77.8687C47.6443 77.7368 47.7573 77.6391 47.8908 77.6391C48.038 77.6391 48.1578 77.7535 48.1631 77.9C48.2288 79.6273 48.8177 82.8881 49.0237 84.7451L60.7578 83.2192C60.9096 79.9653 60.2367 74.054 58.781 68.8203C58.781 68.8203 60.7669 50.3701 46.8059 49.2287V49.2287Z" fill="#FBC840"/>
<path d="M30.2501 54.2159C30.2737 54.1778 30.2951 54.1412 30.3187 54.103L32.4199 55.9882C32.4199 55.9882 29.7862 58.271 28.2954 61.7255C28.2954 59.2613 28.889 56.8343 30.0258 54.6478L30.2501 54.2159Z" fill="#F9B50B"/>
<path d="M33.2102 41.9907C33.2102 41.9907 36.458 42.7567 38.2563 45.4056C38.2563 50.0245 36.7602 54.4091 35.8134 56.7224C35.4639 57.5761 34.3798 57.8332 33.6855 57.2251L30.25 54.2161C33.893 46.0679 33.2102 41.9907 33.2102 41.9907Z" fill="#FFEBB3"/>
<path d="M27.6079 19.755C26.1339 20.2318 25.3808 21.998 26.3025 23.4507C27.421 25.2115 29.5389 27.5194 32.2038 27.5194C34.8688 27.5194 35.7729 24.9254 35.7729 23.3553C35.7729 21.7852 34.7978 19.1912 31.3707 19.1912C29.7784 19.1912 28.5097 19.4635 27.6079 19.755Z" fill="#3C2B8E"/>
<path d="M21.5654 19.755C23.0401 20.2318 23.7932 21.998 22.8708 23.4507C21.7523 25.2115 19.6351 27.5194 16.9694 27.5194C14.3045 27.5194 13.4004 24.9254 13.4004 23.3553C13.4004 21.7852 14.3762 19.1912 17.8026 19.1912C19.3948 19.1912 20.6636 19.4635 21.5654 19.755Z" fill="#3C2B8E"/>
<path d="M29.265 22.9294C28.3426 21.4776 29.0964 19.7106 30.5704 19.2338C30.5925 19.2269 30.6184 19.22 30.6413 19.2124C29.3886 19.2795 28.367 19.5092 27.6079 19.7549C26.1339 20.2317 25.3808 21.9987 26.3025 23.4505C27.4209 25.2106 29.5389 27.5193 32.2038 27.5193C33.0202 27.5193 33.6702 27.2752 34.1806 26.8929C31.9803 26.4222 30.2415 24.4668 29.265 22.9294Z" fill="#2C217C"/>
<path d="M16.3629 22.8342C16.3629 21.7058 16.8664 20.0487 18.4221 19.2057C18.2206 19.1965 18.0154 19.1912 17.8026 19.1912C14.3762 19.1912 13.4004 21.7844 13.4004 23.3553C13.4004 24.9254 14.3052 27.5194 16.9702 27.5194C17.7949 27.5194 18.567 27.2974 19.2735 26.9396C17.1167 26.5512 16.3629 24.267 16.3629 22.8342Z" fill="#2C217C"/>
<path d="M25.3601 22.4525C24.8902 22.1466 24.2829 22.1466 23.8129 22.4525C23.7976 22.4624 23.7824 22.4716 23.7664 22.4807C23.317 22.7379 22.744 22.5815 22.4869 22.1321C22.2367 21.6949 22.377 21.141 22.7982 20.8748C23.8892 20.1698 25.2945 20.1721 26.3832 20.8809C26.8174 21.1631 26.9402 21.7445 26.6571 22.1786C26.3749 22.6127 25.7943 22.7356 25.3601 22.4525Z" fill="#554CBF"/>
<path d="M59.6436 32.5143L74.0341 34.7566L88.424 32.5143C88.424 32.5143 90.6197 31.8192 90.6197 29.9302C90.6197 28.0404 82.7095 25.1016 74.0341 25.1016C74.0341 25.1016 57.6882 25.8897 57.6882 29.9294C57.6882 29.9294 57.5569 31.6194 59.6436 32.5143V32.5143Z" fill="#F9B50B"/>
<path d="M53.8737 89.2861C53.815 88.3629 53.8676 87.4367 54.0416 86.528C54.6031 83.5884 54.6855 80.4581 54.7061 77.6985C54.7061 77.5879 54.7953 77.4979 54.906 77.4979C55.009 77.4979 55.0944 77.5742 55.1051 77.6764C55.2974 79.57 55.5156 81.955 56.3487 84.1034C57.2062 86.3167 57.7388 88.6422 57.9371 91.0073L58.6108 99.0387C78.9401 94.9044 94.5842 77.8816 96.6434 56.8733C95.2495 55.9975 93.9006 55.6191 93.0621 55.4581C93.0621 55.4581 79.5489 52.9923 79.5489 48.1995C79.5489 47.4205 79.5489 47.654 79.5489 47.1497C78.1909 48.3635 75.8632 49.9092 73.9451 49.9558C72.0279 49.9092 69.7001 48.3635 68.3421 47.1497V48.1995C68.3421 52.9923 54.8282 55.4581 54.8282 55.4581C53.1817 55.7747 49.5677 56.9244 47.5093 61.042C44.8344 66.3918 45.0213 78.3715 45.9651 87.2498C46.0025 87.5946 46.0223 87.9395 46.0231 88.2859L46.0627 99.9062C47.0423 99.9657 48.0288 100 49.0237 100C50.4649 100 51.8908 99.9321 53.3 99.8078C53.4121 95.6635 54.0126 91.4627 53.8737 89.2861V89.2861Z" fill="#FE9D9A"/>
<path d="M73.9447 49.9565C72.0274 49.91 69.6989 48.3635 68.3416 47.1497V48.1995C68.3416 50.56 65.0625 52.356 61.7354 53.5713C62.5967 55.2025 62.7356 56.4957 62.7356 56.4957C63.8861 57.3471 64.369 58.5808 64.4903 59.8732C67.5932 58.6311 70.7281 57.2823 72.0427 56.4224C73.8119 55.2643 74.3994 52.2011 74.584 49.8871C74.3673 49.9252 74.1537 49.9512 73.9447 49.9565V49.9565Z" fill="#F98F8F"/>
<path d="M89.865 77.0936C89.231 75.6478 88.7595 73.7206 88.7595 71.1838C88.7595 66.3415 88.4078 58.6388 85.2424 53.2082C83.171 50.0687 80.4916 50.3373 80.4916 50.3373C80.4916 50.3373 86.1274 54.0932 81.3766 64.3975C79.1457 69.2368 76.0345 74.3783 74.8878 76.8265C74.7474 77.1264 74.4842 77.3591 74.1599 77.4277C73.6755 77.5292 73.2124 77.2774 73.0125 76.8487C71.8742 74.4096 68.7507 69.2513 66.513 64.3975C61.7621 54.0932 67.398 50.3373 67.398 50.3373C67.398 50.3373 64.7185 50.0687 62.6472 53.2082C59.4817 58.6388 59.1308 66.3415 59.1308 71.1838C59.1308 76.0155 57.4203 78.6385 56.137 79.9264C55.2993 80.7679 55.651 81.9016 55.7296 83.1475L57.3623 99.2745C71.112 96.8583 82.8391 88.5712 89.865 77.0936Z" fill="#D93A59"/>
<path d="M85.9265 45.6047C85.014 42.4103 84.6364 39.9162 84.554 37.989C83.8612 40.4892 82.9564 42.7025 81.8532 44.5892C81.2169 45.6779 80.4272 46.653 79.5102 47.4983C78.14 55.4916 80.7027 61.5135 82.7184 64.8041C83.1433 65.4976 84.2755 65.2069 84.2648 64.4058C84.174 57.7789 88.3824 54.2053 85.9265 45.6047V45.6047Z" fill="#483BA8"/>
<path d="M82.9384 48.6099C84.6268 48.6099 86.0749 49.6376 86.6913 51.1009C86.7249 49.4881 86.5235 47.6959 85.9269 45.6039C85.0144 42.4095 84.636 39.9162 84.5543 37.989C83.8616 40.4884 82.9568 42.7017 81.8535 44.5892C81.2173 45.6779 80.4276 46.653 79.5106 47.4983C79.2878 48.7976 79.1703 50.0435 79.1367 51.2352C79.7204 49.7017 81.2005 48.6099 82.9384 48.6099V48.6099Z" fill="#3C2B8E"/>
<path d="M63.1614 36.4089C63.1614 36.4089 62.4877 32.1441 63.2636 29.6035C62.5594 29.1343 61.1983 28.9054 60.5865 29.5036C59.3337 30.7281 60.2515 32.5782 60.691 33.7463C60.826 34.1056 60.913 34.468 60.9527 34.8319C61.0381 35.6216 61.4661 36.7774 63.2422 36.7507C63.2148 36.6363 63.1873 36.5241 63.1614 36.4089Z" fill="#F98F8F"/>
<path d="M87.4799 29.5036C86.868 28.9054 85.5069 29.1343 84.8027 29.6035C85.5786 32.1441 84.905 36.4089 84.905 36.4089C84.879 36.5241 84.8516 36.6363 84.8249 36.7507C86.6002 36.7774 87.029 35.6216 87.1144 34.8319C87.1533 34.468 87.2403 34.1056 87.3754 33.7463C87.8148 32.5782 88.7326 30.7281 87.4799 29.5036Z" fill="#F98F8F"/>
<path d="M63.2637 29.6035C63.4178 29.0992 63.6292 28.6628 63.9137 28.3408C64.1708 28.0517 64.3318 27.6939 64.3433 27.3109C64.4104 25.0739 65.2702 18.1792 73.5275 21.3447C73.8526 21.469 74.2142 21.469 74.5392 21.3447C82.7965 18.1792 83.6563 25.0732 83.7235 27.3109C83.7349 27.6939 83.8959 28.0517 84.153 28.3408C84.4384 28.6628 84.6489 29.0992 84.803 29.6035C85.2219 29.325 85.8712 29.1328 86.4586 29.1465V24.0684C86.4586 19.9538 84.1645 16.1407 80.4421 14.2196C78.7415 13.343 76.6274 12.7341 74.0341 12.7341C71.4401 12.7341 69.3253 13.343 67.6254 14.2196C63.903 16.1407 61.6089 19.9538 61.6089 24.0684V29.1465C62.1956 29.1328 62.8456 29.325 63.2637 29.6035V29.6035Z" fill="#3C2B8E"/>
<path d="M84.2189 28.282C83.9633 27.9936 83.8222 27.6564 83.8122 27.3078C83.7726 25.9795 83.4369 22.7294 81.1847 21.2294C79.5863 20.1651 77.3402 20.1758 74.5074 21.2622C74.2015 21.3797 73.865 21.3797 73.5599 21.2622C70.7271 20.1766 68.481 20.1651 66.8826 21.2286C64.6304 22.7294 64.2947 25.9795 64.255 27.3078C64.2451 27.6572 64.104 27.9936 63.8476 28.282C62.437 29.872 62.7459 34.516 63.0755 36.4279C63.8041 39.6453 64.8601 42.4506 66.2127 44.7661C67.5868 47.1167 69.6666 48.9447 72.2285 50.0533C73.376 50.55 74.6913 50.55 75.8388 50.0533C78.4007 48.9447 80.4805 47.1167 81.8538 44.7661C83.2072 42.4514 84.2624 39.646 84.9933 36.4226C85.3091 34.4123 85.6463 29.8903 84.2189 28.282V28.282Z" fill="#FFBAAE"/>
<path d="M72.4528 44.7664C71.5426 42.4508 70.8331 39.6455 70.3425 36.4282C70.1213 34.5162 69.9138 29.8722 70.8621 28.2823C71.0345 27.9939 71.1291 27.6566 71.136 27.308C71.1627 25.9797 71.3878 22.7288 72.9037 21.2289C72.9564 21.177 73.0105 21.1289 73.0655 21.0824C70.4654 20.1798 68.3864 20.2279 66.8826 21.2289C64.6304 22.7288 64.2947 25.9797 64.255 27.308C64.2451 27.6566 64.104 27.9939 63.8476 28.2823C62.437 29.8722 62.7459 34.5162 63.0755 36.4282C63.8041 39.6455 64.8601 42.4508 66.2127 44.7664C67.586 47.117 69.6666 48.945 72.2285 50.0535C73.376 50.5502 74.6913 50.5502 75.8388 50.0535C75.9723 49.9956 76.1027 49.9353 76.2332 49.8735C74.6326 48.7527 73.3287 46.9949 72.4528 44.7664V44.7664Z" fill="#FE9D9A"/>
<path d="M74.0336 22.1276C79.0675 22.1276 83.7291 22.5633 87.5384 23.3041L85.7966 13.6895C85.5357 12.317 84.6972 11.1672 83.5421 10.5973C80.3996 9.0455 77.2029 8.26425 74.0336 8.20703C70.8651 8.26425 67.6676 9.0455 64.5259 10.5973C63.3708 11.1672 62.5323 12.317 62.2706 13.6895L60.5288 23.3041C64.3389 22.5633 68.9997 22.1276 74.0336 22.1276V22.1276Z" fill="#FBC840"/>
<path d="M66.8032 12.8481C67.0176 11.3542 67.7058 10.1045 68.6534 9.48425C69.1088 9.18594 69.5658 8.91586 70.0236 8.66943C68.1834 9.06006 66.3455 9.69864 64.5259 10.5974C63.3708 11.1673 62.5323 12.3171 62.2706 13.6896L60.5288 23.3042C62.0509 23.0081 63.7103 22.7617 65.4742 22.5717L66.8032 12.8481Z" fill="#F9B50B"/>
<path d="M74.0336 18.2327C69.3171 18.2327 64.9279 18.6149 61.2597 19.2733L60.5288 23.3039C64.3389 22.5631 68.9997 22.1275 74.0336 22.1275C79.0675 22.1275 83.7291 22.5631 87.5384 23.3039L86.8083 19.2733C83.1401 18.6157 78.7509 18.2327 74.0336 18.2327Z" fill="#F97396"/>
<path d="M66.0143 18.6204C64.3298 18.789 62.7352 19.0087 61.2597 19.2734C61.1926 19.6404 60.6059 22.8814 60.5288 23.3041C61.7602 23.0591 63.5462 22.7799 65.4742 22.5716L66.0143 18.6204Z" fill="#F7577A"/>
<path d="M79.2167 22.2863C79.4135 22.2825 81.372 22.8028 83.6189 21.7866C83.4113 21.5249 83.3053 21.1823 83.3534 20.8268L83.5525 19.3535C83.6006 18.998 83.7943 18.6966 84.0637 18.499C82.1746 16.9297 80.1513 16.9053 79.9529 16.8465C79.7263 16.816 79.5173 16.9755 79.4868 17.202C79.2876 18.6707 79.0603 20.3507 78.8612 21.8194C78.8306 22.0467 78.9901 22.255 79.2167 22.2863V22.2863Z" fill="#F7577A"/>
<path d="M83.5524 19.3536L83.3533 20.8268C83.3052 21.1824 83.4112 21.5242 83.6188 21.7866C82.2668 22.3985 81.0194 22.4534 80.1978 22.4008C80.2313 22.3924 80.2657 22.3848 80.2992 22.3756C81.864 21.943 82.7818 20.3233 82.3492 18.7593C82.1394 18.0002 81.6489 17.3936 81.0225 17.0198C81.8259 17.1983 82.9672 17.5882 84.0643 18.4991C83.7942 18.6967 83.6005 18.9981 83.5524 19.3536Z" fill="#D93A59"/>
<path d="M87.1871 19.8456L86.988 21.3188C86.9399 21.6743 86.7462 21.9757 86.4761 22.1733C88.3727 23.7503 90.3991 23.7701 90.5876 23.8258C90.8149 23.8564 91.0232 23.6969 91.0537 23.4703C91.2528 22.0016 91.4802 20.3217 91.6793 18.853C91.7098 18.6256 91.5512 18.4174 91.3238 18.3861C91.1178 18.3899 89.1601 17.8757 86.9216 18.8858C87.1292 19.1482 87.2352 19.49 87.1871 19.8456V19.8456Z" fill="#F7577A"/>
<path d="M90.3831 18.3854C88.8343 18.8134 87.9264 20.4163 88.3544 21.9651C88.5627 22.7166 89.0472 23.3163 89.6674 23.6871C88.861 23.5246 87.6441 23.1446 86.4761 22.1734C86.7462 21.9758 86.9399 21.6744 86.988 21.3189L87.1871 19.8457C87.2352 19.4901 87.1292 19.1483 86.9216 18.8859C88.5177 18.1657 89.9703 18.2206 90.7478 18.3099C90.6265 18.3274 90.5044 18.3518 90.3831 18.3854Z" fill="#D93A59"/>
<path d="M84.2634 22.2351L85.7359 22.4342C86.4302 22.5281 87.0748 22.0375 87.1695 21.3432L87.3686 19.8708C87.4624 19.1757 86.9711 18.531 86.2768 18.4372L84.8043 18.2381C84.1101 18.1442 83.4654 18.6348 83.3715 19.3291L83.1716 20.8015C83.0778 21.4958 83.5691 22.1413 84.2634 22.2351Z" fill="#F97396"/>
<path d="M85.2888 19.577L85.0859 21.0732C85.005 21.669 85.3498 22.2275 85.8831 22.4449C85.8343 22.4442 85.7855 22.4411 85.7359 22.4342L84.2634 22.2351C83.5691 22.1413 83.0778 21.4958 83.1716 20.8015L83.3715 19.3291C83.4654 18.6348 84.1101 18.1442 84.8043 18.2381L86.2776 18.4372C86.3264 18.4441 86.3752 18.454 86.4225 18.4662C85.8496 18.5333 85.3689 18.9804 85.2888 19.577Z" fill="#F7577A"/>
<path d="M74.0329 21.3447C60.2329 21.3447 49.0459 24.0959 49.0459 27.4902C49.0459 29.5662 53.2329 31.4018 59.6431 32.5142C58.7444 31.8992 58.2439 31.2172 58.2439 30.4985C58.2439 27.7969 65.3133 25.6073 74.0329 25.6073C82.7533 25.6073 89.822 27.7969 89.822 30.4985C89.822 31.2172 89.3215 31.8992 88.4235 32.5142C94.833 31.4018 99.02 29.5662 99.02 27.4902C99.02 24.0959 87.833 21.3447 74.0329 21.3447V21.3447Z" fill="#FCDB75"/>
<path d="M49.0237 100C55.7658 100 62.1814 98.6025 67.9996 96.0871C67.9843 84.9207 61.9685 83.5894 54.6183 83.5894H45.2487C37.8886 83.5894 31.8667 84.9237 31.8667 96.1275V96.8286C37.1935 98.8756 42.9766 100 49.0237 100V100Z" fill="#52B0F5"/>
<path d="M49.9328 90.8632C53.1578 90.8632 55.7968 88.2242 55.7968 84.9993V83.6023C55.4084 83.5932 55.0147 83.5894 54.618 83.5894H45.2484C44.8509 83.5894 44.4572 83.5939 44.0688 83.6023V84.9993C44.0688 88.2242 46.7079 90.8632 49.9328 90.8632V90.8632Z" fill="#82C6F9"/>
<path d="M38.4425 95.7078C38.4425 88.9634 40.2194 85.447 43.0224 83.6411C36.7121 83.9692 31.8667 86.0772 31.8667 96.1274V96.8285C33.99 97.6449 36.1865 98.3109 38.4425 98.8213V95.7078Z" fill="#2299F2"/>
<path d="M49.9327 88.2318C47.6348 88.2318 45.7549 86.3519 45.7549 84.0547V80.6527C45.7549 78.3547 47.6355 76.4749 49.9327 76.4749C52.2307 76.4749 54.1106 78.3547 54.1106 80.6527V84.0547C54.1106 86.3519 52.2307 88.2318 49.9327 88.2318V88.2318Z" fill="#F98F8F"/>
<path d="M63.1262 56.4957C63.1262 56.4957 62.1847 47.7005 49.9326 47.0405C37.6806 47.7005 36.7391 56.4957 36.7391 56.4957C33.0747 59.2071 36.1814 65.8043 36.1814 65.8043H63.6839C63.6839 65.8043 66.7913 59.2071 63.1262 56.4957V56.4957Z" fill="#3C2B8E"/>
<path d="M51.4081 65.8043C51.7713 62.4451 51.6889 58.078 49.5122 55.3161C45.5694 50.3143 49.9326 47.0405 49.9326 47.0405C37.6806 47.7005 36.7391 56.4957 36.7391 56.4957C33.0747 59.2071 36.1814 65.8043 36.1814 65.8043H51.4081Z" fill="#2C217C"/>
<path d="M64.6958 64.7087C63.4278 64.0258 62.3459 64.3325 61.6806 64.6896C62.2933 68.5325 62.1247 71.4737 61.5654 73.7076C64.5645 74.2378 64.7133 70.8389 64.9941 69.8623C65.2916 68.824 66.8175 65.85 64.6958 64.7087V64.7087Z" fill="#F98F8F"/>
<path d="M38.1853 64.6896C37.52 64.3325 36.4389 64.0258 35.1701 64.7087C33.0484 65.85 34.575 68.824 34.8726 69.8623C35.1526 70.8389 35.3014 74.2378 38.3005 73.7076C37.7412 71.4737 37.5734 68.5325 38.1853 64.6896V64.6896Z" fill="#F98F8F"/>
<path d="M61.7278 64.2708C59.9631 53.9619 49.9327 55.3551 49.9327 55.3551C49.9327 55.3551 39.9031 53.9619 38.1384 64.2708C36.3738 74.5789 40.1373 78.5637 42.2782 79.8027C43.4828 80.4993 44.5098 81.2996 45.1026 81.8131C47.8369 84.1797 52.0255 84.1828 54.7629 81.8131C55.3565 81.2996 56.3834 80.4993 57.5881 79.8027C59.7289 78.5645 63.4917 74.5796 61.7278 64.2708V64.2708Z" fill="#FFBAAE"/>
<path d="M49.8824 81.7704C49.4551 81.2448 48.7151 80.4246 47.8476 79.7105C46.3057 78.4425 43.595 74.3607 44.8661 63.8024C45.4932 58.5923 47.5699 56.3012 49.5124 55.3162C47.5943 55.1896 39.6857 55.227 38.1384 64.2709C36.3738 74.5789 40.1374 78.5638 42.2774 79.8028C43.4821 80.4994 44.5098 81.2997 45.1026 81.8131C47.0031 83.458 49.6054 83.9601 51.9347 83.3184C51.1924 83.0308 50.4874 82.5158 49.8824 81.7704Z" fill="#FE9D9A"/>
<path d="M17.2784 50.0047C15.516 44.6641 15.9631 41.9907 15.9631 41.9907C15.9631 41.9907 12.7152 42.7567 10.917 45.4056C10.917 47.8165 11.3252 50.1626 11.8493 52.1844C12.4795 49.833 15.191 48.7366 17.2784 50.0047V50.0047Z" fill="#FCDB75"/>
<path d="M31.8945 50.0047C33.6569 44.6641 33.2098 41.9907 33.2098 41.9907C33.2098 41.9907 36.4577 42.7567 38.2559 45.4056C38.2559 47.8165 37.8478 50.1626 37.3244 52.1844C36.6934 49.833 33.9819 48.7366 31.8945 50.0047V50.0047Z" fill="#FCDB75"/>
<path d="M7.87583 46.6531C4.72031 48.1133 3.85361 49.1075 2.3674 49.2288C1.98364 49.26 1.61438 49.3066 1.25427 49.3638C1.20163 50.2854 1.17188 51.2132 1.17188 52.1485C1.17188 56.4111 1.73035 60.5432 2.77634 64.4761C3.73841 50.3808 7.87583 46.6531 7.87583 46.6531Z" fill="#F9B50B"/>
<path d="M71.2475 25.6846C71.2467 25.6846 71.2452 25.6838 71.2437 25.6838C62.8612 24.985 65.591 21.7058 65.5918 21.7051C55.9459 22.5565 49.0459 24.8247 49.0459 27.4905C49.0459 29.5664 53.2329 31.4021 59.6431 32.5144C58.7444 31.8995 58.2439 31.2174 58.2439 30.4987C58.2439 28.0917 63.8569 26.092 71.2475 25.6846Z" fill="#FBC840"/>
</g>
<defs>
<clipPath id="clip0">
<rect width="100" height="100" fill="white"/>
</clipPath>
</defs>
</svg>
