<svg width="143" height="134" viewBox="0 0 143 134" fill="none" xmlns="http://www.w3.org/2000/svg">
<path d="M54.7667 34.0458C54.6208 33.7708 56.1917 33.6208 56.4708 33.6208C56.7792 33.6583 55.6542 35.5042 54.7667 34.0458ZM45.8 21.2458L46.25 21.1167C46.5167 21.3458 45.95 21.5125 46.0375 21.6833C46.3958 22.3292 46.125 22.7167 46.0708 23.0667C46.0125 23.4208 45.6375 23.2667 45.45 23.4542C45.2292 23.7292 46.525 23.7667 46.5417 23.8083C46.5875 23.9458 44.9792 24.1792 45.275 24.5208C45.675 25.0875 48.7083 23.7083 48.225 23.7875C49.1625 23.3167 48.3458 23.2667 47.8208 22.9958C47.6417 22.1 47.4917 20.7167 46.9333 20.1625L47.3 19.7375C46.4417 18.4917 45.8 21.2458 45.8 21.2458V21.2458ZM100 50C100 77.6125 77.6125 100 50 100C22.3833 100 0 77.6125 0 50C0 22.3875 22.3833 0 50 0C77.6125 0 100 22.3875 100 50ZM65.375 27.6208C65.35 27.0125 64.5833 26.4375 63.7833 27.4917C63.2208 28.2167 63.3208 29.3208 63.0167 29.8125C62.5833 30.5417 65.3792 31.225 65.3792 30.5375C65.4833 29.3833 68.4292 30.275 69.0042 30.4333C70.0375 30.7208 71.6833 29.4917 69.8833 28.8458C68.4042 28.3042 67.625 27.725 67.4917 26.6667C67.4917 26.6667 68.275 25.9333 67.9333 25.975C67.025 26.0875 65.375 29.25 65.375 27.6208V27.6208ZM91.6083 50C91.6083 45.6875 90.8708 41.3333 90.1208 39.0333C89.8792 38.3083 89.3333 37.7333 88.625 37.4583C87.5583 37.0417 83.0542 39.9458 82.375 38.5167C81.9292 37.5625 81.025 39.125 79.9917 38.55C79.4917 38.275 78.1 36.4042 77.4708 36.6333C76.1833 37.0958 79.4458 40.65 80.3375 41.1167C81.175 40.4833 83.8875 39.1792 84.4708 40.9583C85.5875 44.3083 81.4 47.9792 79.2583 49.9125C76.0583 52.8042 76.6583 48.0417 74.4792 46.3625C73.3333 45.4833 73.3458 43.6125 72.1875 42.9667C71.6708 42.675 69.3 39.9458 69.3208 39.5792L69.25 40.2708C68.8583 40.5667 68.025 39.1542 67.9375 38.9333C67.9375 40.1625 69.9375 42.1208 70.6 43.1042C71.7292 44.7917 72.3333 47.25 73.7167 48.6292C74.4583 49.3708 77.2917 52.4375 78.0292 52.3708C78.8333 52.3 81.375 50.4625 81.825 50.5667C84.5083 51.2 75.5083 63.9208 74.6542 65.4958C73.95 66.8167 75.2292 70.0833 75.125 71.6458C75.0042 73.45 73.5833 74.0333 72.2375 75.0167C70.7958 76.0708 71.1333 78.1208 69.9208 78.8708C67.7667 80.1958 66.2167 84.5083 63.1583 84.4875C62.2583 84.4833 58.4083 85.9875 57.9042 84.5167C57.5125 83.45 56.9875 82.6417 56.4333 81.5875C55.8917 80.5542 56.3708 79.4833 55.7125 78.5708C55.2583 77.9375 53.7333 76.5 53.5958 75.75C53.5875 75.1042 54.0833 73.1417 54.7625 72.8C55.7167 72.3125 54.9458 70.8917 54.8292 70.0667C54.6292 68.5917 53.7167 67.375 52.6208 66.5208C51 65.275 51.8375 64.2833 52.2167 62.5042C52.2167 61.6542 51.7 60.5375 50.5583 60.8708C48.2083 61.5542 48.9208 59.0375 47.2083 59.15C45.975 59.2375 44.9667 60.0208 43.8208 60.3667C42.3792 60.8 40.9042 60.025 39.4792 59.8458C33.6167 59.1042 31.7042 52.4042 33.2333 47.5708C33.3875 46.7792 32.7583 45.3125 33.0333 44.7C33.6917 43.2333 35.0333 41.5875 36.2083 40.475C36.8667 39.85 37.7125 40.0083 38.4875 39.5208C39.6833 38.7667 39.7 37.2167 40.8708 36.2667C42.5375 34.9125 44.8125 34.9417 46.9875 34.65C48.1458 34.4958 52.5542 33.5417 53.25 34.4C53.25 34.5583 54.0458 36.9167 53.1708 36.7833C54.975 36.8792 57.5458 39.9042 59.2583 39.1958C60.1375 38.8292 59.8167 36.1292 61.6208 37.4333C62.7125 38.2167 67.6042 38.5667 68.6208 37.7208C69.2458 37.2042 69.5958 33.8458 68.8375 33.4667C69.3208 33.9458 66.2917 33.9833 66.0083 33.875C65.5083 33.6917 65.0417 34.35 64.2375 33.9792C64.7208 34.2083 61.5458 32.5042 63.3292 31.2C62.5833 31.7458 61.8875 31.0458 61.0833 31.6458C60.5292 32.0958 61.3417 32.3958 60.55 32.7875C59.2917 33.425 58.3417 30.6 57.8667 30.2792C57.3833 29.9625 53.6417 27.3375 54.6583 29.05L57.9458 32.3208C57.7833 32.425 57.0833 31.1292 57.0833 32.075C57.3042 31.5125 57.1667 34.4875 56.65 33.5208C56.4208 33.15 57.025 32.9417 56.675 32.4042C56.675 32.05 55.725 31.7042 55.5417 31.4625C55.0208 30.8167 53.6375 29.3917 52.8875 29.05C52.6792 28.9542 49.7042 29.4125 49.4542 29.5083C49.1625 29.9167 48.9125 30.3458 48.7083 30.8042C48.0917 31.0333 47.5125 31.3292 46.9625 31.6958L46.3083 33.1667C46.025 33.4208 43.1208 34.3792 43.1042 34.4167C43.225 34.1042 41.075 33.7042 41.2167 33.0792C41.375 32.3917 42.1042 30.2458 41.9167 29.4625C41.7167 28.6417 46.3917 30.6458 46.6917 28.4833C46.8125 27.5458 46.8833 26.4542 45.3875 26.2958C45.6708 26.3292 48.2833 25.2708 48.7167 24.7958C49.325 24.0958 50.7208 22.9542 51.7333 22.9542C52.9167 22.9542 52.6625 21.2333 53.2083 20.3917C53.7542 20.6125 52.9167 21.9583 53.5708 22.5042C53.5292 22.075 55.425 22.7417 55.6083 22.6417C56.0417 22.4167 58.4583 22.55 58.0833 21.4167C57.6667 20.2625 58.2958 20.6042 58.8375 20.3625C58.7458 20.4 60.2542 17.7833 60.5125 18.6417C60.3333 17.7583 58.7583 18.95 58.2083 18.9042C56.9375 18.8042 57.475 16.7375 57.9542 16.1333C58.325 15.6542 56.9417 15.0667 56.925 15.9833C56.9 17.3542 55.625 18.5958 55.9208 20.4167C56.3708 23.1625 52.8583 19.7542 52.55 19.9417C51.3833 20.65 50.4292 19.05 51.0333 18.0917C51.65 17.1125 53.1375 17.1583 53.75 16.1083C54.1833 15.3667 54.6875 14.5042 55.3542 13.9417C57.5833 12.0708 58.2 13.5667 60.4208 13.7708C62.5917 13.9708 61.1542 14.2875 60.8542 15.1208C60.5667 15.9125 62.0458 16.1958 62.5583 15.5333C62.85 15.15 63.5125 14.1875 63.8 13.475C64.1708 12.55 67.5542 12.6542 65.1917 11.2417C63.6333 10.3125 56.8417 8.44167 52.2917 8.44167C51.3083 8.44167 50.6208 9.5375 49.8708 10.1583C48.3875 11.3875 44.5875 13.8 42.475 13.0667C40.3125 12.3208 35.6833 15.8167 34.9417 15.8417C34.6708 15.8583 34.9583 13.2 36.4333 13.0042C35.7958 13.1 41.6292 10.0583 41.4708 9.425C41.2792 8.675 29.8083 12.85 30.3208 13.6875C30.5667 14.0708 31.5667 14.0708 30.2542 14.9125C29.5042 15.3667 28.7042 18.25 28 18.25C25.8958 19.1708 25.7625 16.4375 23.4208 19.9542L19.6958 21.4542C14.1625 27.3333 10.3333 34.7792 8.94583 43.05C8.89167 43.3792 10.3375 43.9917 10.525 44.2167C10.9917 44.775 10.9917 47.1833 11.2208 47.9708C11.7958 49.9625 13.2167 51.0708 14.3042 52.8833C14.9458 53.9625 16.0125 56.6917 15.675 57.825C16.125 57.0833 20.1333 61.2208 20.8667 62.0833C22.5917 64.1125 23.9208 66.5708 21.1208 68.5792C20.2167 69.2292 22.4958 73.2833 21.3208 74.2792L19.8167 74.6667C18.3333 75.5792 19.0042 77.8167 19.9042 78.7583C27.4792 86.6792 38.1542 91.6208 49.9875 91.6208C72.975 91.6208 91.6083 72.9875 91.6083 50V50ZM43.6625 23.5125C44.1833 23.2833 44.8833 23.2917 44.9583 22.5958C45.0208 21.9792 45.1417 22.4042 45.2917 22.1792C45.4375 21.9583 45.0125 21.6042 44.8333 21.5708C44.5667 21.5125 44.3833 21.8583 44.2125 22.0042L43.9125 22.0833L43.6292 22.4458L43.6625 22.6458L43.3 23.0875C42.9458 23.4375 43.3083 23.6667 43.6625 23.5125V23.5125Z" fill="#C88212"/>
<path fill-rule="evenodd" clip-rule="evenodd" d="M57.8469 95.9247L72.0918 73.8314L40.805 68.532L45.3207 61.5282L85.6389 52.8201L96.9282 35.3107C99.8886 30.6654 107.211 27.0674 110.706 29.3207C114.2 31.5741 113.869 39.7388 110.936 44.3421L99.6465 61.8515L108.355 102.17L103.839 109.173L86.0993 82.8628L71.8545 104.956L73.6832 117.498L70.5245 122.397L59.8834 108.145L42.5094 104.334L45.6682 99.4353L57.8469 95.9247Z" fill="white" fill-opacity="0.45"/>
</svg>
