<svg width="87" height="77" viewBox="0 0 87 77" fill="none" xmlns="http://www.w3.org/2000/svg">
<path d="M86.8333 46.1875V36.65C81.9583 34.9125 78.8875 34.4292 77.3333 30.6875C75.7792 26.9375 77.625 24.3875 79.8333 19.75L73.0917 13.0042C68.4875 15.1917 65.9125 17.0625 62.15 15.5042C58.4 13.9458 57.9125 10.85 56.1875 6H46.6458C44.9292 10.825 44.4375 13.9458 40.6833 15.5H40.6792C36.9292 17.0583 34.3875 15.2083 29.7417 13L23.0042 19.7458C25.2 24.3708 27.0583 26.9292 25.5042 30.6833C23.9417 34.4375 20.825 34.9292 16 36.6458V46.1833C20.8125 47.9 23.9458 48.3958 25.5 52.1458C27.0667 55.9292 25.1625 58.5375 23 63.0833L29.7417 69.8292C34.3542 67.6417 36.925 65.7708 40.6792 67.3292H40.6833C44.4333 68.8833 44.925 71.9875 46.6458 76.8292H56.1833C57.9 72.0042 58.3917 68.8917 62.1708 67.3208H62.175C65.9 65.7708 68.4292 67.6167 73.0875 69.8292L79.8292 63.0833C77.6417 58.4708 75.7708 55.9042 77.325 52.1458C78.8833 48.4 82.0167 47.9 86.8333 46.1875ZM51.4167 53.225C44.9 53.225 39.6125 47.9375 39.6125 41.4167C39.6125 34.8958 44.9 29.6083 51.4167 29.6083C57.9333 29.6083 63.2208 34.8958 63.2208 41.4167C63.2208 47.9375 57.9333 53.225 51.4167 53.225Z" fill="#D8890B"/>
<path d="M45 25.5294V19.4706C41.9063 18.3679 39.9544 18.0585 38.9644 15.6845C37.9744 13.2992 39.15 11.6846 40.5506 8.73109L36.2644 4.44431C33.3394 5.83948 31.7025 7.02088 29.3175 6.03638C26.9325 5.05188 26.6231 3.08289 25.5262 0H19.4737C18.3825 3.06601 18.0675 5.04626 15.6825 6.03638C13.2975 7.0265 11.6831 5.85073 8.73562 4.44431L4.44938 8.73109C5.84438 11.6733 7.02562 13.2992 6.03562 15.6845C5.04562 18.0698 3.06562 18.3792 0 19.4706V25.5294C3.06 26.6152 5.04562 26.9359 6.03562 29.3155C7.03125 31.7177 5.82188 33.3773 4.44938 36.2689L8.73562 40.5557C11.6662 39.1605 13.3031 37.9791 15.6825 38.9636C18.0675 39.9481 18.3769 41.9227 19.4737 45H25.5262C26.6175 41.934 26.9325 39.9537 29.3287 38.958H29.3344C31.7025 37.9735 33.3056 39.1493 36.2644 40.5557L40.5506 36.2689C39.1612 33.3379 37.9744 31.7008 38.9644 29.3212C39.9544 26.9415 41.94 26.6152 45 25.5294ZM22.5 29.9963C18.36 29.9963 15.0019 26.6377 15.0019 22.4972C15.0019 18.3567 18.36 14.9981 22.5 14.9981C26.64 14.9981 29.9981 18.3567 29.9981 22.4972C29.9981 26.6377 26.64 29.9963 22.5 29.9963Z" fill="white" fill-opacity="0.45"/>
</svg>
