<svg width="131" height="100" viewBox="0 0 131 100" fill="none" xmlns="http://www.w3.org/2000/svg">
<path fill-rule="evenodd" clip-rule="evenodd" d="M85.2458 91.6667H43.5792L43.5708 49.9333L80.9625 16.6458L118.508 49.9333L118.579 91.6667H106.079V62.5H85.2458V91.6667ZM68.5792 62.5H58.5V75H68.5792V62.5ZM81.0792 0L131 44.3L125.467 50.5208L81 11.0167L36.5333 50.5208L31 44.3L81.0792 0Z" fill="#C88212"/>
<g clip-path="url(#clip0)">
<path fill-rule="evenodd" clip-rule="evenodd" d="M54.1668 100H45.8335V78.6417C42.4752 77.775 39.5293 75.8875 37.3377 73.3333C34.8293 74.4042 32.0668 75 29.1668 75C17.6668 75 8.3335 65.6667 8.3335 54.1667C8.3335 48.2417 10.8127 42.8875 14.7918 39.0958C13.3418 36.8292 12.5002 34.1375 12.5002 31.25C12.5002 23.425 18.6793 17.0292 26.421 16.6833C29.8502 6.96667 39.1168 0 50.0002 0C60.8835 0 70.1502 6.96667 73.5793 16.6833C81.321 17.0292 87.5002 23.425 87.5002 31.25C87.5002 34.1375 86.6585 36.8292 85.2085 39.0958C89.1877 42.8875 91.6668 48.2417 91.6668 54.1667C91.6668 65.6667 82.3335 75 70.8335 75C67.9335 75 65.171 74.4042 62.6627 73.3333C60.471 75.8875 57.5252 77.775 54.1668 78.6417V100Z" fill="white" fill-opacity="0.45"/>
</g>
<defs>
<clipPath id="clip0">
<rect width="100" height="100" fill="white"/>
</clipPath>
</defs>
</svg>
