<svg width="123" height="100" viewBox="0 0 123 100" fill="none" xmlns="http://www.w3.org/2000/svg">
<path fill-rule="evenodd" clip-rule="evenodd" d="M77.2458 91.6667H35.5792L35.5708 49.9333L72.9625 16.6458L110.508 49.9333L110.579 91.6667H98.0792V62.5H77.2458V91.6667ZM60.5792 62.5H50.5V75H60.5792V62.5ZM73.0792 0L123 44.3L117.467 50.5208L73 11.0167L28.5333 50.5208L23 44.3L73.0792 0Z" fill="#C88212"/>
<path fill-rule="evenodd" clip-rule="evenodd" d="M46.1668 100H37.8335V78.6417C34.4752 77.775 31.5293 75.8875 29.3377 73.3333C26.8293 74.4042 24.0668 75 21.1668 75C9.66683 75 0.333496 65.6667 0.333496 54.1667C0.333496 48.2417 2.81266 42.8875 6.79183 39.0958C5.34183 36.8292 4.50016 34.1375 4.50016 31.25C4.50016 23.425 10.6793 17.0292 18.421 16.6833C21.8502 6.96667 31.1168 0 42.0002 0C52.8835 0 62.1502 6.96667 65.5793 16.6833C73.321 17.0292 79.5002 23.425 79.5002 31.25C79.5002 34.1375 78.6585 36.8292 77.2085 39.0958C81.1877 42.8875 83.6668 48.2417 83.6668 54.1667C83.6668 65.6667 74.3335 75 62.8335 75C59.9335 75 57.171 74.4042 54.6627 73.3333C52.471 75.8875 49.5252 77.775 46.1668 78.6417V100Z" fill="white" fill-opacity="0.45"/>
</svg>
