<svg width="0" height="0" class="hidden">

  <symbol viewBox="0 0 30 31" fill="none" xmlns="http://www.w3.org/2000/svg" id='whatsapp'>
  <path d="M0 30.1432L2.11881 22.4027C0.811354 20.1369 0.124341 17.5684 0.125597 14.9347C0.129364 6.70058 6.82994 0 15.0628 0C19.058 0.00125597 22.8083 1.5574 25.6292 4.38081C28.4489 7.20422 30.0013 10.957 30 14.9485C29.9962 23.1839 23.2957 29.8845 15.0628 29.8845C12.5634 29.8832 10.1005 29.2565 7.91886 28.0658L0 30.1432V30.1432ZM8.28561 25.3617C10.3906 26.6114 12.4001 27.36 15.0578 27.3612C21.9003 27.3612 27.4743 21.7923 27.478 14.946C27.4805 8.08591 21.9329 2.52449 15.0678 2.52198C8.2203 2.52198 2.65009 8.09093 2.64758 14.9359C2.64632 17.7305 3.46521 19.8229 4.84049 22.0121L3.58578 26.5938L8.28561 25.3617V25.3617ZM22.5873 18.4991C22.4943 18.3434 22.2457 18.2504 21.8714 18.0633C21.4984 17.8762 19.6634 16.9731 19.3205 16.8488C18.9789 16.7244 18.7302 16.6616 18.4803 17.0359C18.2316 17.4089 17.5157 18.2504 17.2984 18.4991C17.0811 18.7478 16.8626 18.7792 16.4896 18.5921C16.1166 18.4049 14.9133 18.0118 13.4878 16.7395C12.3788 15.7498 11.629 14.5278 11.4117 14.1535C11.1944 13.7805 11.3891 13.5782 11.575 13.3924C11.7433 13.2253 11.948 12.9565 12.1351 12.738C12.3248 12.522 12.3863 12.3662 12.5119 12.1163C12.6363 11.8676 12.5747 11.6491 12.4805 11.4619C12.3863 11.2761 11.6403 9.43858 11.3301 8.69128C11.0261 7.96408 10.7184 8.06204 10.4898 8.05074L9.77393 8.03818C9.52524 8.03818 9.12082 8.13112 8.7792 8.5054C8.43758 8.87968 7.473 9.78146 7.473 11.6189C7.473 13.4564 8.8106 15.2311 8.99648 15.4798C9.18362 15.7285 11.6277 19.4989 15.3718 21.1153C16.2622 21.4996 16.958 21.7295 17.4994 21.9015C18.3936 22.1854 19.2075 22.1452 19.8505 22.0497C20.5677 21.943 22.0585 21.1467 22.37 20.2751C22.6815 19.4022 22.6815 18.6549 22.5873 18.4991V18.4991Z" fill="white" fill-opacity="0.5"/>
  </symbol>
  
  <symbol viewBox="0 0 110 100" fill="none" xmlns="http://www.w3.org/2000/svg" id='data'>
<path d="M50 0C33.3083 0 19.7208 13.0875 18.8375 29.55C8.12917 31.4792 0 40.825 0 52.0833C0 64.7375 10.2625 75 22.9167 75H77.0833C89.7375 75 100 64.7375 100 52.0833C100 40.825 91.8708 31.4792 81.1625 29.55C80.2792 13.0875 66.6917 0 50 0V0Z" fill="#C88212"/>
<path d="M93.3333 60.0833V51.25C93.3333 43.9338 87.3622 38 80 38C72.6378 38 66.6667 43.9338 66.6667 51.25V60.0833H60V91H100V60.0833H93.3333ZM82.2222 77.1383V82.1667H77.7778V77.1383C76.4556 76.372 75.5556 74.9653 75.5556 73.3333C75.5556 70.8953 77.5467 68.9167 80 68.9167C82.4533 68.9167 84.4444 70.8953 84.4444 73.3333C84.4444 74.9631 83.5467 76.372 82.2222 77.1383ZM71.1111 60.0833V51.25C71.1111 46.3784 75.0978 42.4167 80 42.4167C84.9 42.4167 88.8889 46.3784 88.8889 51.25V60.0833H71.1111Z" fill="white" fill-opacity="0.45"/>
</symbol>

<symbol viewBox="0 0 150 100" fill="none" xmlns="http://www.w3.org/2000/svg" id='family'>
<path d="M72 75.4C56.9539 72.0917 53.5309 69.1917 60.3123 56.9917C80.963 19.8583 65.7857 0 43.9843 0C21.7498 0 6.95307 20.6208 27.6563 56.9917C34.6434 69.2625 30.7223 72.1625 16 75.4C2.55514 78.3583 -0.043701 84.8458 5.04236e-05 95.9625L0 100H96.4598L86.9771 95.9625C87.0296 84.7625 85.493 78.3708 72 75.4Z" fill="#C88212"/>
<path d="M137 80.4458C124.638 77.6083 121.35 70.2917 125.783 60.7667C128.633 65.4583 137.454 68.1708 144.325 64.1167C124.546 59.1 154.05 24.6542 128.196 5.34583C123.467 1.79167 117.671 0 111.896 0C106.154 0 100.433 1.77083 95.8043 5.34583C69.946 24.6542 99.4543 59.1 79.671 64.1167C86.5418 68.175 95.3793 65.3375 98.2168 60.7667C102.65 70.2917 98.846 77.6125 86.5002 80.4458C74.0918 83.2875 73 90.7208 73 97.1292V100H150V97.1292C150 90.725 149.408 83.2875 137 80.4458Z" fill="#C88212"/>
<path d="M102.867 84.502C92.9792 82.4178 83.776 80.5908 88.2324 72.9048C101.803 49.5108 91.8292 37 77.5026 37C62.8913 37 53.1677 49.9911 66.7727 72.9048C71.3642 80.6354 61.8132 82.4624 52.1385 84.502C43.3033 86.3658 42.9726 90.3715 43.0014 97.375L43.0129 100H111.986L111.998 97.4564C112.032 90.4004 111.733 86.3736 102.867 84.502V84.502Z" fill="white" fill-opacity="0.45"/>
</symbol>
<symbol id='tools' viewBox="0 0 120 124" fill="none" xmlns="http://www.w3.org/2000/svg">
<path d="M96.9583 82.2625L47.1833 32.4917C44.8625 30.1708 43.675 26.9458 43.9208 23.6792C44.4 17.4917 42.275 11.1417 37.55 6.40417C33.2583 2.12083 27.65 0 22.0375 0C19.925 0 17.8083 0.3 15.7667 0.9L28.975 14.1083C30.4083 20.7292 20.8125 30.4333 14.1125 28.9708L0.908333 15.7625C0.304167 17.8125 0 19.9292 0 22.05C0 27.6625 2.125 33.2625 6.40833 37.5542C11.1375 42.2875 17.4917 44.4125 23.6833 43.9292C26.9458 43.6792 30.1708 44.8708 32.4875 47.1917L82.2625 96.9583C84.2125 98.9083 86.8583 100 89.6083 100C95.3083 100 100 95.3833 100 89.6083C100 86.95 98.9833 84.2917 96.9583 82.2625ZM89.5833 93.75C87.2792 93.75 85.4167 91.8833 85.4167 89.5833C85.4167 87.2833 87.2792 85.4167 89.5833 85.4167C91.8875 85.4167 93.75 87.2833 93.75 89.5833C93.75 91.8833 91.8875 93.75 89.5833 93.75Z" fill="#D8890B"/>
<path d="M47.3335 35.4267L78.55 3.65417C80.9833 1.22083 84.1667 0 87.3542 0C90.5375 0 93.725 1.21667 96.1583 3.65417C98.6125 6.1 99.8333 9.30833 99.8333 12.5083C99.8333 15.6917 98.6208 18.875 96.1958 21.3L64.5752 51.3666C64.5752 51.3666 60.246 55.2666 48.8335 57.2666C53.2904 53.2719 60.246 47.0374 60.246 47.0374L90.7875 18.05C91.4917 17.35 91.4833 16.2125 90.7833 15.5125C90.0792 14.8083 88.9458 14.8042 88.2417 15.5083L52.8335 50.2666C62.8335 57.2666 42.8335 58.2666 47.5524 55.9749L43.8441 52.2666C43.3335 57.2666 40.8335 40.5374 48.8335 47.0374L84.5292 11.7958C85.2333 11.0917 85.2292 9.95833 84.5292 9.25C83.825 8.55 82.6833 8.54167 81.9833 9.25L51.8502 39.9392C51.8502 39.9392 46.4233 46.9039 42.946 51.3666C43.3335 40.2666 47.3335 35.4267 47.3335 35.4267ZM48.8335 57.2666C37.5212 68.3575 19.8667 85.6667 19.8667 85.6667C18.9208 86.6208 18.1042 87.7 17.475 88.8917L16.2208 91.3083L7.47083 95.7667L4 92.2917L8.27083 83.35L10.6875 82.0917C11.8792 81.4667 13.025 80.7208 13.9792 79.7667C13.9792 79.7667 31.6337 62.4575 42.946 51.3666C45.2452 53.6707 46.5343 54.9625 48.8335 57.2666Z" fill="white" fill-opacity="0.45"/>
</symbol>
<symbol id='house' viewBox="0 0 131 100" fill="none" xmlns="http://www.w3.org/2000/svg">
<path fill-rule="evenodd" clip-rule="evenodd" d="M85.2458 91.6667H43.5792L43.5708 49.9333L80.9625 16.6458L118.508 49.9333L118.579 91.6667H106.079V62.5H85.2458V91.6667ZM68.5792 62.5H58.5V75H68.5792V62.5ZM81.0792 0L131 44.3L125.467 50.5208L81 11.0167L36.5333 50.5208L31 44.3L81.0792 0Z" fill="#C88212"/>
<g clip-path="url(#clip0)">
<path fill-rule="evenodd" clip-rule="evenodd" d="M54.1668 100H45.8335V78.6417C42.4752 77.775 39.5293 75.8875 37.3377 73.3333C34.8293 74.4042 32.0668 75 29.1668 75C17.6668 75 8.3335 65.6667 8.3335 54.1667C8.3335 48.2417 10.8127 42.8875 14.7918 39.0958C13.3418 36.8292 12.5002 34.1375 12.5002 31.25C12.5002 23.425 18.6793 17.0292 26.421 16.6833C29.8502 6.96667 39.1168 0 50.0002 0C60.8835 0 70.1502 6.96667 73.5793 16.6833C81.321 17.0292 87.5002 23.425 87.5002 31.25C87.5002 34.1375 86.6585 36.8292 85.2085 39.0958C89.1877 42.8875 91.6668 48.2417 91.6668 54.1667C91.6668 65.6667 82.3335 75 70.8335 75C67.9335 75 65.171 74.4042 62.6627 73.3333C60.471 75.8875 57.5252 77.775 54.1668 78.6417V100Z" fill="white" fill-opacity="0.45"/>
</g>
<defs>
<clipPath id="clip0">
<rect width="100" height="100" fill="white"/>
</clipPath>
</defs>
</symbol>
<symbol viewBox="0 0 87 77" fill="none" xmlns="http://www.w3.org/2000/svg" id='gears'>
<path d="M86.8333 46.1875V36.65C81.9583 34.9125 78.8875 34.4292 77.3333 30.6875C75.7792 26.9375 77.625 24.3875 79.8333 19.75L73.0917 13.0042C68.4875 15.1917 65.9125 17.0625 62.15 15.5042C58.4 13.9458 57.9125 10.85 56.1875 6H46.6458C44.9292 10.825 44.4375 13.9458 40.6833 15.5H40.6792C36.9292 17.0583 34.3875 15.2083 29.7417 13L23.0042 19.7458C25.2 24.3708 27.0583 26.9292 25.5042 30.6833C23.9417 34.4375 20.825 34.9292 16 36.6458V46.1833C20.8125 47.9 23.9458 48.3958 25.5 52.1458C27.0667 55.9292 25.1625 58.5375 23 63.0833L29.7417 69.8292C34.3542 67.6417 36.925 65.7708 40.6792 67.3292H40.6833C44.4333 68.8833 44.925 71.9875 46.6458 76.8292H56.1833C57.9 72.0042 58.3917 68.8917 62.1708 67.3208H62.175C65.9 65.7708 68.4292 67.6167 73.0875 69.8292L79.8292 63.0833C77.6417 58.4708 75.7708 55.9042 77.325 52.1458C78.8833 48.4 82.0167 47.9 86.8333 46.1875ZM51.4167 53.225C44.9 53.225 39.6125 47.9375 39.6125 41.4167C39.6125 34.8958 44.9 29.6083 51.4167 29.6083C57.9333 29.6083 63.2208 34.8958 63.2208 41.4167C63.2208 47.9375 57.9333 53.225 51.4167 53.225Z" fill="#D8890B"/>
<path d="M45 25.5294V19.4706C41.9063 18.3679 39.9544 18.0585 38.9644 15.6845C37.9744 13.2992 39.15 11.6846 40.5506 8.73109L36.2644 4.44431C33.3394 5.83948 31.7025 7.02088 29.3175 6.03638C26.9325 5.05188 26.6231 3.08289 25.5262 0H19.4737C18.3825 3.06601 18.0675 5.04626 15.6825 6.03638C13.2975 7.0265 11.6831 5.85073 8.73562 4.44431L4.44938 8.73109C5.84438 11.6733 7.02562 13.2992 6.03562 15.6845C5.04562 18.0698 3.06562 18.3792 0 19.4706V25.5294C3.06 26.6152 5.04562 26.9359 6.03562 29.3155C7.03125 31.7177 5.82188 33.3773 4.44938 36.2689L8.73562 40.5557C11.6662 39.1605 13.3031 37.9791 15.6825 38.9636C18.0675 39.9481 18.3769 41.9227 19.4737 45H25.5262C26.6175 41.934 26.9325 39.9537 29.3287 38.958H29.3344C31.7025 37.9735 33.3056 39.1493 36.2644 40.5557L40.5506 36.2689C39.1612 33.3379 37.9744 31.7008 38.9644 29.3212C39.9544 26.9415 41.94 26.6152 45 25.5294ZM22.5 29.9963C18.36 29.9963 15.0019 26.6377 15.0019 22.4972C15.0019 18.3567 18.36 14.9981 22.5 14.9981C26.64 14.9981 29.9981 18.3567 29.9981 22.4972C29.9981 26.6377 26.64 29.9963 22.5 29.9963Z" fill="white" fill-opacity="0.45"/>
</symbol>
<symbol viewBox="0 0 143 134" fill="none" xmlns="http://www.w3.org/2000/svg" id='foraign'>
<path d="M54.7667 34.0458C54.6208 33.7708 56.1917 33.6208 56.4708 33.6208C56.7792 33.6583 55.6542 35.5042 54.7667 34.0458ZM45.8 21.2458L46.25 21.1167C46.5167 21.3458 45.95 21.5125 46.0375 21.6833C46.3958 22.3292 46.125 22.7167 46.0708 23.0667C46.0125 23.4208 45.6375 23.2667 45.45 23.4542C45.2292 23.7292 46.525 23.7667 46.5417 23.8083C46.5875 23.9458 44.9792 24.1792 45.275 24.5208C45.675 25.0875 48.7083 23.7083 48.225 23.7875C49.1625 23.3167 48.3458 23.2667 47.8208 22.9958C47.6417 22.1 47.4917 20.7167 46.9333 20.1625L47.3 19.7375C46.4417 18.4917 45.8 21.2458 45.8 21.2458V21.2458ZM100 50C100 77.6125 77.6125 100 50 100C22.3833 100 0 77.6125 0 50C0 22.3875 22.3833 0 50 0C77.6125 0 100 22.3875 100 50ZM65.375 27.6208C65.35 27.0125 64.5833 26.4375 63.7833 27.4917C63.2208 28.2167 63.3208 29.3208 63.0167 29.8125C62.5833 30.5417 65.3792 31.225 65.3792 30.5375C65.4833 29.3833 68.4292 30.275 69.0042 30.4333C70.0375 30.7208 71.6833 29.4917 69.8833 28.8458C68.4042 28.3042 67.625 27.725 67.4917 26.6667C67.4917 26.6667 68.275 25.9333 67.9333 25.975C67.025 26.0875 65.375 29.25 65.375 27.6208V27.6208ZM91.6083 50C91.6083 45.6875 90.8708 41.3333 90.1208 39.0333C89.8792 38.3083 89.3333 37.7333 88.625 37.4583C87.5583 37.0417 83.0542 39.9458 82.375 38.5167C81.9292 37.5625 81.025 39.125 79.9917 38.55C79.4917 38.275 78.1 36.4042 77.4708 36.6333C76.1833 37.0958 79.4458 40.65 80.3375 41.1167C81.175 40.4833 83.8875 39.1792 84.4708 40.9583C85.5875 44.3083 81.4 47.9792 79.2583 49.9125C76.0583 52.8042 76.6583 48.0417 74.4792 46.3625C73.3333 45.4833 73.3458 43.6125 72.1875 42.9667C71.6708 42.675 69.3 39.9458 69.3208 39.5792L69.25 40.2708C68.8583 40.5667 68.025 39.1542 67.9375 38.9333C67.9375 40.1625 69.9375 42.1208 70.6 43.1042C71.7292 44.7917 72.3333 47.25 73.7167 48.6292C74.4583 49.3708 77.2917 52.4375 78.0292 52.3708C78.8333 52.3 81.375 50.4625 81.825 50.5667C84.5083 51.2 75.5083 63.9208 74.6542 65.4958C73.95 66.8167 75.2292 70.0833 75.125 71.6458C75.0042 73.45 73.5833 74.0333 72.2375 75.0167C70.7958 76.0708 71.1333 78.1208 69.9208 78.8708C67.7667 80.1958 66.2167 84.5083 63.1583 84.4875C62.2583 84.4833 58.4083 85.9875 57.9042 84.5167C57.5125 83.45 56.9875 82.6417 56.4333 81.5875C55.8917 80.5542 56.3708 79.4833 55.7125 78.5708C55.2583 77.9375 53.7333 76.5 53.5958 75.75C53.5875 75.1042 54.0833 73.1417 54.7625 72.8C55.7167 72.3125 54.9458 70.8917 54.8292 70.0667C54.6292 68.5917 53.7167 67.375 52.6208 66.5208C51 65.275 51.8375 64.2833 52.2167 62.5042C52.2167 61.6542 51.7 60.5375 50.5583 60.8708C48.2083 61.5542 48.9208 59.0375 47.2083 59.15C45.975 59.2375 44.9667 60.0208 43.8208 60.3667C42.3792 60.8 40.9042 60.025 39.4792 59.8458C33.6167 59.1042 31.7042 52.4042 33.2333 47.5708C33.3875 46.7792 32.7583 45.3125 33.0333 44.7C33.6917 43.2333 35.0333 41.5875 36.2083 40.475C36.8667 39.85 37.7125 40.0083 38.4875 39.5208C39.6833 38.7667 39.7 37.2167 40.8708 36.2667C42.5375 34.9125 44.8125 34.9417 46.9875 34.65C48.1458 34.4958 52.5542 33.5417 53.25 34.4C53.25 34.5583 54.0458 36.9167 53.1708 36.7833C54.975 36.8792 57.5458 39.9042 59.2583 39.1958C60.1375 38.8292 59.8167 36.1292 61.6208 37.4333C62.7125 38.2167 67.6042 38.5667 68.6208 37.7208C69.2458 37.2042 69.5958 33.8458 68.8375 33.4667C69.3208 33.9458 66.2917 33.9833 66.0083 33.875C65.5083 33.6917 65.0417 34.35 64.2375 33.9792C64.7208 34.2083 61.5458 32.5042 63.3292 31.2C62.5833 31.7458 61.8875 31.0458 61.0833 31.6458C60.5292 32.0958 61.3417 32.3958 60.55 32.7875C59.2917 33.425 58.3417 30.6 57.8667 30.2792C57.3833 29.9625 53.6417 27.3375 54.6583 29.05L57.9458 32.3208C57.7833 32.425 57.0833 31.1292 57.0833 32.075C57.3042 31.5125 57.1667 34.4875 56.65 33.5208C56.4208 33.15 57.025 32.9417 56.675 32.4042C56.675 32.05 55.725 31.7042 55.5417 31.4625C55.0208 30.8167 53.6375 29.3917 52.8875 29.05C52.6792 28.9542 49.7042 29.4125 49.4542 29.5083C49.1625 29.9167 48.9125 30.3458 48.7083 30.8042C48.0917 31.0333 47.5125 31.3292 46.9625 31.6958L46.3083 33.1667C46.025 33.4208 43.1208 34.3792 43.1042 34.4167C43.225 34.1042 41.075 33.7042 41.2167 33.0792C41.375 32.3917 42.1042 30.2458 41.9167 29.4625C41.7167 28.6417 46.3917 30.6458 46.6917 28.4833C46.8125 27.5458 46.8833 26.4542 45.3875 26.2958C45.6708 26.3292 48.2833 25.2708 48.7167 24.7958C49.325 24.0958 50.7208 22.9542 51.7333 22.9542C52.9167 22.9542 52.6625 21.2333 53.2083 20.3917C53.7542 20.6125 52.9167 21.9583 53.5708 22.5042C53.5292 22.075 55.425 22.7417 55.6083 22.6417C56.0417 22.4167 58.4583 22.55 58.0833 21.4167C57.6667 20.2625 58.2958 20.6042 58.8375 20.3625C58.7458 20.4 60.2542 17.7833 60.5125 18.6417C60.3333 17.7583 58.7583 18.95 58.2083 18.9042C56.9375 18.8042 57.475 16.7375 57.9542 16.1333C58.325 15.6542 56.9417 15.0667 56.925 15.9833C56.9 17.3542 55.625 18.5958 55.9208 20.4167C56.3708 23.1625 52.8583 19.7542 52.55 19.9417C51.3833 20.65 50.4292 19.05 51.0333 18.0917C51.65 17.1125 53.1375 17.1583 53.75 16.1083C54.1833 15.3667 54.6875 14.5042 55.3542 13.9417C57.5833 12.0708 58.2 13.5667 60.4208 13.7708C62.5917 13.9708 61.1542 14.2875 60.8542 15.1208C60.5667 15.9125 62.0458 16.1958 62.5583 15.5333C62.85 15.15 63.5125 14.1875 63.8 13.475C64.1708 12.55 67.5542 12.6542 65.1917 11.2417C63.6333 10.3125 56.8417 8.44167 52.2917 8.44167C51.3083 8.44167 50.6208 9.5375 49.8708 10.1583C48.3875 11.3875 44.5875 13.8 42.475 13.0667C40.3125 12.3208 35.6833 15.8167 34.9417 15.8417C34.6708 15.8583 34.9583 13.2 36.4333 13.0042C35.7958 13.1 41.6292 10.0583 41.4708 9.425C41.2792 8.675 29.8083 12.85 30.3208 13.6875C30.5667 14.0708 31.5667 14.0708 30.2542 14.9125C29.5042 15.3667 28.7042 18.25 28 18.25C25.8958 19.1708 25.7625 16.4375 23.4208 19.9542L19.6958 21.4542C14.1625 27.3333 10.3333 34.7792 8.94583 43.05C8.89167 43.3792 10.3375 43.9917 10.525 44.2167C10.9917 44.775 10.9917 47.1833 11.2208 47.9708C11.7958 49.9625 13.2167 51.0708 14.3042 52.8833C14.9458 53.9625 16.0125 56.6917 15.675 57.825C16.125 57.0833 20.1333 61.2208 20.8667 62.0833C22.5917 64.1125 23.9208 66.5708 21.1208 68.5792C20.2167 69.2292 22.4958 73.2833 21.3208 74.2792L19.8167 74.6667C18.3333 75.5792 19.0042 77.8167 19.9042 78.7583C27.4792 86.6792 38.1542 91.6208 49.9875 91.6208C72.975 91.6208 91.6083 72.9875 91.6083 50V50ZM43.6625 23.5125C44.1833 23.2833 44.8833 23.2917 44.9583 22.5958C45.0208 21.9792 45.1417 22.4042 45.2917 22.1792C45.4375 21.9583 45.0125 21.6042 44.8333 21.5708C44.5667 21.5125 44.3833 21.8583 44.2125 22.0042L43.9125 22.0833L43.6292 22.4458L43.6625 22.6458L43.3 23.0875C42.9458 23.4375 43.3083 23.6667 43.6625 23.5125V23.5125Z" fill="#C88212"/>
<path fill-rule="evenodd" clip-rule="evenodd" d="M57.8469 95.9247L72.0918 73.8314L40.805 68.532L45.3207 61.5282L85.6389 52.8201L96.9282 35.3107C99.8886 30.6654 107.211 27.0674 110.706 29.3207C114.2 31.5741 113.869 39.7388 110.936 44.3421L99.6465 61.8515L108.355 102.17L103.839 109.173L86.0993 82.8628L71.8545 104.956L73.6832 117.498L70.5245 122.397L59.8834 108.145L42.5094 104.334L45.6682 99.4353L57.8469 95.9247Z" fill="white" fill-opacity="0.45"/>
</symbol>

  <symbol fill="none" xmlns="http://www.w3.org/2000/svg" viewBox="0 0 160 146" id="ama-quella-logo">
    <g clip-path="url(#clip0)">
      <path d="M79.793 76.72H67.39c-1.205 0-2.36.373-3.253 1.05-2.433 1.845-6.913 4.045-14.439 4.045-8.894 0-15.777-3.598-19.381-10.131-.714-1.293-2.36-2.128-4.195-2.128H15.12c-2.218 0-4.016-1.388-4.016-3.101s1.798-3.101 4.016-3.101h11.002c5.06 0 9.608 2.316 11.585 5.9 2.329 4.22 6.363 6.359 11.991 6.359 4.81 0 7.446-1.233 8.81-2.267 2.403-1.824 5.558-2.828 8.882-2.828h12.403v6.202z" fill="#101D2C"></path>
      <path d="M21.31 80.892c-1.331 0-2.41-.833-2.41-1.86V63.285c0-1.028 1.079-1.861 2.41-1.861 1.33 0 2.41.833 2.41 1.86v15.747c0 1.028-1.08 1.861-2.41 1.861z" fill="#FFD597"></path>
      <path d="M79.851 77.102h12.403c1.205 0 2.36.345 3.253.971 2.432 1.707 6.912 3.741 14.439 3.741 8.893 0 15.776-3.328 19.381-9.37.713-1.196 2.36-1.969 4.194-1.969h11.003c2.218 0 4.016-1.284 4.016-2.868 0-1.584-1.798-2.868-4.016-2.868h-11.003c-5.06 0-9.607 2.141-11.585 5.456-2.328 3.904-6.362 5.883-11.99 5.883-4.811 0-7.446-1.14-8.81-2.097-2.404-1.687-5.558-2.616-8.882-2.616H79.85v5.737z" fill="#101D2C"></path>
      <path d="M138.405 79.431c-1.332 0-2.41-.77-2.41-1.72V63.144c0-.95 1.079-1.721 2.41-1.721 1.331 0 2.41.77 2.41 1.72l-.001 14.566c.001.95-1.079 1.721-2.409 1.721z" fill="#FFD597"></path>
      <path d="M87.828 142.775H71.874l3.897-74.754h8.16l3.897 74.754z" fill="#FCB44D"></path>
      <path d="M84.244 73.99a22.7 22.7 0 01-4.393.42 22.7 22.7 0 01-4.392-.42l.311-5.97h8.162l.312 5.97z" fill="#FB9927"></path>
      <path d="M32.139 119.498c-.705 0-1.349-.385-1.534-.964L21.35 89.572l-9.253 28.962c-.22.688-1.084 1.101-1.933.922-.848-.178-1.356-.88-1.136-1.569l10.788-33.764c.18-.568.812-.964 1.535-.964.722 0 1.353.396 1.534.963l10.789 33.765c.22.689-.29 1.391-1.137 1.569a1.947 1.947 0 01-.4.042zm116.705 0c-.705 0-1.348-.385-1.534-.964l-9.253-28.962-9.253 28.962c-.22.688-1.085 1.101-1.933.922-.848-.178-1.357-.88-1.137-1.569l10.788-33.764c.181-.568.813-.964 1.535-.964s1.354.396 1.535.963l10.788 33.765c.22.689-.289 1.391-1.137 1.569a1.94 1.94 0 01-.399.042z" fill="#FFD597"></path>
      <path d="M146.154 126.92h-15.498c-7.482 0-13.548-4.781-13.548-10.68v-1.23c0-1.673 1.721-3.029 3.843-3.029h34.908c2.122 0 3.843 1.356 3.843 3.029v1.23c0 5.898-6.066 10.68-13.548 10.68z" fill="#FCB44D"></path>
      <path d="M42.445 117.414c-.08.913-.478 1.781-1.134 2.574H30.476c.659-.792 1.057-1.661 1.137-2.574h10.832z" fill="#F98824"></path>
      <path d="M138.405 85.074c3.337 0 6.043-2.385 6.043-5.328 0-2.942-2.706-5.328-6.043-5.328-3.338 0-6.043 2.386-6.043 5.328 0 2.943 2.705 5.328 6.043 5.328zM29.046 126.92H13.549C6.066 126.92 0 122.138 0 116.24v-1.23c0-1.673 1.72-3.029 3.843-3.029h34.908c2.123 0 3.843 1.356 3.843 3.029v1.23c0 5.898-6.066 10.68-13.548 10.68zm-7.749-41.846c3.338 0 6.043-2.385 6.043-5.328 0-2.942-2.705-5.328-6.043-5.328-3.337 0-6.043 2.386-6.043 5.328 0 2.943 2.706 5.328 6.043 5.328z" fill="#FCB44D"></path>
      <path d="M79.851 116.942c5.741 0 10.395-3.491 10.395-7.796 0-4.306-4.654-7.796-10.395-7.796-5.74 0-10.395 3.49-10.395 7.796 0 4.305 4.654 7.796 10.395 7.796z" fill="#FB9927"></path>
      <path d="M79.85 71.062c4.316 0 7.814-1.868 7.814-4.172 0-2.305-3.498-4.173-7.813-4.173-4.315 0-7.813 1.868-7.813 4.172 0 2.305 3.498 4.173 7.813 4.173z" fill="#FFD597"></path>
      <path d="M87.666 66.89c0 2.304-3.5 4.171-7.815 4.171-1.227 0-2.386-.15-3.42-.42 2.598-.678 4.39-2.102 4.39-3.75 0-1.65-1.792-3.075-4.39-3.754a13.63 13.63 0 013.42-.42c4.314 0 7.815 1.867 7.815 4.173z" fill="#FCC16D"></path>
      <path d="M111.825 139.23H47.878v-4.478c0-1.422 2.157-2.574 4.82-2.574h54.307c2.662 0 4.82 1.152 4.82 2.574v4.478z" fill="#101D2C"></path>
      <path d="M122.343 143.998H37.359c-1.775 0-3.213-.768-3.213-1.716V139.5c0-.948 1.438-1.716 3.213-1.716h84.984c1.775 0 3.213.768 3.213 1.716v2.782c0 .948-1.438 1.716-3.213 1.716z" fill="#FB9927"></path>
      <path d="M90.962 120.407H68.741c-1.775 0-3.214-.768-3.214-1.716v-2.2c0-.948 1.439-1.716 3.214-1.716h22.221c1.775 0 3.213.768 3.213 1.716v2.2c0 .948-1.438 1.716-3.213 1.716z" fill="#FFD597"></path>
    </g>
    <g clip-path="url(#clip1)">
      <path d="M66.095 61.233c.635.266 1.774 1.41 2.352 1.614 1.867 3.21 4.118 14.522 11.403 14.522s10.984-2.904 12.849-6.115c.578-.204-.274-9.755.361-10.021l2.006 7.217 10.85 2.464v14.523l-2.547 2.522a1.603 1.603 0 00-.394 1.65l.596 1.776c.164.49.08 1.03-.225 1.45-.306.42-.797.669-1.319.67H57.673c-.523 0-1.014-.25-1.32-.671a1.602 1.602 0 01-.224-1.453l.596-1.775a1.6 1.6 0 00-.394-1.65l-2.546-2.52V70.915l10.854-2.464 1.456-7.217z" fill="#101D2C"></path>
      <path d="M104.034 52.845a4.852 4.852 0 11-9.703 0 4.852 4.852 0 019.703 0zm-38.892 0a4.852 4.852 0 11-9.704-.001 4.852 4.852 0 019.704.001z" fill="#F59F57"></path>
      <path d="M80.055 43.66h-22.64c0 8.085 8.086 24.256 11.32 25.873 5.737 4.94 11.32 4.94 11.32 4.94s6.001 0 11.32-4.94c3.234-1.617 11.319-17.788 11.319-25.873H80.055z" fill="#FFD597"></path>
      <path d="M39.651 43.66a3.25 3.25 0 01-3.248-3.484C38.289 17.47 57.27 0 80.055 0c22.786 0 41.766 17.469 43.653 40.176a3.248 3.248 0 01-3.249 3.484H39.651z" fill="#FCB44D"></path>
      <path d="M44.479 43.66c0-19.649 15.928-35.577 35.576-35.577s35.577 15.928 35.577 35.577H44.479z" fill="#942714"></path>
      <path d="M50.947 43.66c0-16.077 13.032-29.109 29.108-29.109s29.108 13.032 29.108 29.109H50.947z" fill="#101D2C"></path>
      <path d="M54.181 85.704l-6.144 1.231a1.617 1.617 0 01-1.941-1.587V71.507a1.618 1.618 0 011.94-1.587l6.145 1.231v14.554z" fill="#FB9927"></path>
      <path d="M62.267 37.19a1.617 1.617 0 11-3.234.002 1.617 1.617 0 013.234-.001zm3.234-6.467a1.617 1.617 0 11-3.233 0 1.617 1.617 0 013.233 0zm6.469-4.852a1.617 1.617 0 11-3.235 0 1.617 1.617 0 013.235 0zm9.702-1.617a1.617 1.617 0 11-3.234 0 1.617 1.617 0 013.234 0z" fill="#FCB44D"></path>
      <path d="M48.225 49.292a6.195 6.195 0 00-6.172-5.632 6.195 6.195 0 00-6.17 5.632L35.1 57.92a3.236 3.236 0 003.218 3.527h7.471s2.375-.327 3.032-1.041c.185-.311.197-2.395.185-2.486l-.78-8.628z" fill="#BFA057"></path>
      <path d="M96.226 43.66s1.617 4.85-3.234 4.85c-4.852 0-6.469-4.85-6.469-4.85h9.703zm-32.342 0s-1.617 4.85 3.234 4.85c4.852 0 6.468-4.85 6.468-4.85h-9.702z" fill="#101D2C"></path>
      <path d="M89.366 61.033c0 .593 0 1.224-.095 1.855H70.429c-.094-.631-.094-1.262-.094-1.855 0-2.783 9.515-.718 9.515-.718s9.516-2.065 9.516.718z" fill="#942714"></path>
      <path d="M89.366 62.06c-.336 4.171-1.954 8.275-9.515 8.275-7.562 0-9.18-4.104-9.516-8.274h19.031z" fill="#C64E3A"></path>
      <path d="M80.264 45.511l-5.792 9.93a14.827 14.827 0 015.792-.228 14.827 14.827 0 015.793.228l-5.793-9.93z" fill="#BFA057"></path>
      <path d="M91.375 69.533c-6.56 5.767-11.32 4.526-11.32 4.526s-4.342 1.241-11.32-4.526a11.328 11.328 0 01-3.187-3.675c.438 4.225 2.864 11.76 14.507 11.76s14.069-7.535 14.507-11.76a11.33 11.33 0 01-3.187 3.675z" fill="#101D2C"></path>
      <path d="M105.929 85.704l6.145 1.231a1.617 1.617 0 001.941-1.587V71.507a1.62 1.62 0 00-1.941-1.587l-6.145 1.231v14.554z" fill="#FB9927"></path>
      <path d="M101.077 37.19a1.617 1.617 0 11-3.234 0 1.617 1.617 0 013.234 0zm-3.234-6.467a1.616 1.616 0 11-3.233 0 1.616 1.616 0 013.233 0zm-6.468-4.852a1.617 1.617 0 11-3.235 0 1.617 1.617 0 013.235 0z" fill="#FCB44D"></path>
      <path d="M111.885 49.292a6.194 6.194 0 016.172-5.632 6.195 6.195 0 016.169 5.632l.785 8.628a3.237 3.237 0 01-3.218 3.527h-7.472c-.725-.001-1.785-.214-1.785-.214s-.651-.174-1.242-.827c0-.085-.202-2.395-.189-2.486l.78-8.628z" fill="#BFA057"></path>
      <path d="M68.735 43.66c0-6.252 5.068-11.32 11.32-11.32 6.251 0 11.32 5.068 11.32 11.32h-22.64z" fill="#FB9927"></path>
      <path fill="#942714" d="M78.94 77.782h2.648v13.239H78.94z"></path>
      <path fill="#942714" d="M73.644 85.726v-2.648h13.24v2.648z"></path>
      <path fill="#942714" d="M76.292 80.43h7.944v7.944h-7.944z"></path>
    </g>
    <defs>
      <clipPath id="clip0">
        <path fill="#fff" transform="translate(0 60.715)" d="M0 0h159.702v85.285H0z"></path>
      </clipPath>
      <clipPath id="clip1">
        <path fill="#fff" transform="translate(33.074)" d="M0 0h93.79v93.79H0z"></path>
      </clipPath>
    </defs>
  </symbol>
  <symbol fill="none" xmlns="http://www.w3.org/2000/svg" viewBox="0 0 120 124" id="coins">
    <path d="M85 22.5c13.365 0 25-5.035 25-11.25S98.365 0 85 0C71.64 0 60 5.035 60 11.25S71.64 22.5 85 22.5zm.465-10.045c-1.495-.45-6.07-.83-6.07-3.375 0-1.42 1.67-2.685 4.79-2.965V5h1.605v1.055c1.17.025 2.47.15 3.92.45l-.58 1.71c-1.105-.255-2.335-.495-3.54-.495l-.36.005c-2.41.1-2.605 1.435-.94 1.995 2.735.845 6.335 1.46 6.335 3.7 0 1.785-2.17 2.74-4.835 2.98v1.1h-1.605v-1.04c-1.64-.015-3.38-.28-4.81-.76l.735-1.715c1.22.315 2.76.63 4.14.63l1.04-.07c1.845-.265 2.215-1.5.175-2.09zM30 77.5c7.225 0 14.55-.88 18.525-3.84 3.975-2.96 5.99-2.96 5.99-9.495C52.26 58.95 41.82 55 30 55 16.64 55 5 60.035 5 66.25S16.64 77.5 30 77.5zm.465-10.045c-1.495-.45-6.07-.83-6.07-3.375 0-1.42 1.675-2.685 4.79-2.965V60h1.605v1.055c1.17.025 2.47.15 3.92.45l-.585 1.71c-1.1-.255-2.33-.495-3.535-.495l-.36.005c-2.41.1-2.6 1.435-.94 1.995 2.735.845 6.335 1.46 6.335 3.7 0 1.785-2.17 2.74-4.835 2.98v1.1h-1.605v-1.04c-1.645-.015-3.38-.28-4.81-.76l.735-1.715c1.22.315 2.76.63 4.14.63l1.04-.07c1.84-.265 2.215-1.5.175-2.09zM60 23.75v-3.26c5.73 4.59 15.545 7.01 25 7.01 9.46 0 19.27-2.42 25-7.01v3.26C110 29.965 98.365 35 85 35c-13.36 0-25-5.035-25-11.25zm0 12.5v-3.255C65.73 37.58 75.545 40 85 40c9.46 0 19.27-2.42 25-7.005v3.255c0 6.215-11.635 11.25-25 11.25-13.36 0-25-5.035-25-11.25z" fill="#D8890B"></path>
    <path d="M60.23 46.55v3.255c0 6.215 11.64 11.25 25 11.25 13.365 0 25-5.035 25-11.25V46.55c-5.73 4.585-15.54 7.005-25 7.005-9.455 0-19.27-2.42-25-7.005zm-30 53.94c8.28 0 21.5-4.5 23-9.5v-3.5c-5.25 2-16.82 5.5-23 5.5-9.455 0-19.27-2.42-25-7.01v3.26c0 6.215 11.64 11.25 25 11.25z" fill="#D8890B"></path>
    <path d="M30.23 88.49c8.28 0 21.5-4.5 23-9.5v-3.5c-5.25 2-16.82 5.5-23 5.5-9.455 0-19.27-2.42-25-7.01v3.26c0 6.215 11.64 11.25 25 11.25z" fill="#D8890B"></path>
    <path d="M30.23 100.49c8.28 0 21.5-4.5 23-9.5v-3.5c-5.25 2-16.82 5.5-23 5.5-9.455 0-19.27-2.42-25-7.01v3.26c0 6.215 11.64 11.25 25 11.25z" fill="#D8890B"></path>
    <path d="M30.29 112.5c8.28 0 21.5-4.5 23-9.5v-3.5c-5.25 2-16.82 5.5-23 5.5-9.455 0-19.27-2.42-25-7.01v3.26c0 6.215 11.64 11.25 25 11.25z" fill="#D8890B"></path>
    <g>
      <path d="M77.583 41c-22.915 0-41.5 18.585-41.5 41.5s18.585 41.5 41.5 41.5 41.5-18.585 41.5-41.5S100.498 41 77.583 41zm3.459 58.612v3.638h-3.459v-3.451c-3.583-.063-7.283-.913-10.375-2.511l1.577-5.686c3.306 1.287 7.705 2.65 11.15 1.868 3.97-.9 4.786-4.987.394-6.951-3.216-1.501-13.065-2.78-13.065-11.22 0-4.71 3.596-8.936 10.32-9.856V61.75h3.458v3.52c2.503.07 5.312.505 8.445 1.453l-1.252 5.7c-2.656-.934-5.589-1.778-8.452-1.605-5.146.297-5.603 4.758-2.006 6.626 5.92 2.78 13.64 4.842 13.64 12.263.007 5.935-4.648 9.096-10.375 9.905z" fill="#fff" fill-opacity=".45"></path>
    </g>
    <defs>
      <filter id="filter0_b" x="20.083" y="25" width="115" height="115" filterUnits="userSpaceOnUse" color-interpolation-filters="sRGB">
        <feFlood flood-opacity="0" result="BackgroundImageFix"></feFlood>
        <feGaussianBlur in="BackgroundImage" stdDeviation="8"></feGaussianBlur>
        <feComposite in2="SourceAlpha" operator="in" result="effect1_backgroundBlur"></feComposite>
        <feBlend in="SourceGraphic" in2="effect1_backgroundBlur" result="shape"></feBlend>
      </filter>
    </defs>
  </symbol>
  <symbol fill="none" xmlns="http://www.w3.org/2000/svg" viewBox="0 0 150 172" id="contact">
    <path d="M60 115.565L.075 67H119.93L60 115.565zm-27.125-9.11L0 79.81v62.505l32.875-35.86zm54.25 0L120 142.315V79.81l-32.875 26.645zm-7.785 6.305L60 128.435 40.66 112.76.11 157h119.78l-40.55-44.24z" fill="#D8890B"></path>
    <path d="M122.4 114.63l-5.965 3.29C81.54 136.025 21.025 30.45 55.04 10.5l5.725-3.185 18.57 32.335-5.695 3.16c-10.335 6.225 13.8 48.535 24.395 42.725l5.81-3.21L122.4 114.63zM73.36 0l-8.4 4.875 18.57 32.33 8.405-4.875L73.36 0zm43.065 74.985l-8.4 4.875 18.57 32.335L135 107.32l-18.575-32.335z" fill="#fff" fill-opacity=".45"></path>
  </symbol>
  <symbol fill="none" xmlns="http://www.w3.org/2000/svg" viewBox="0 0 112 120" id="declare">
    <path d="M58.519 23.377h23.169L58.517 0v23.377z" fill="#D8890B"></path>
    <path d="M81.25 31.458H50V0H0v106.667h81.25V31.458zM37.5 50.208h6.25v6.25H37.5v-6.25zm-15.625-12.5c-.02-.01-9.375-.395-9.375-9.375 0-4.066 2.621-7.5 6.25-8.795v-6.83H25v6.83c3.628 1.294 6.25 4.729 6.25 8.795H25c0-1.724-1.4-3.125-3.125-3.125a3.127 3.127 0 00-3.125 3.125c0 1.725 1.4 3.125 3.125 3.125.02.01 9.375.395 9.375 9.375 0 4.067-2.622 7.502-6.25 8.796v6.83h-6.25v-6.83c-3.629-1.295-6.25-4.729-6.25-8.796h6.25c0 1.724 1.4 3.125 3.125 3.125 1.724 0 3.125-1.4 3.125-3.125 0-1.724-1.4-3.125-3.125-3.125zm46.875 56.25H12.5v-6.25h56.25v6.25zm0-12.5H12.5v-6.25h56.25v6.25zm0-12.5H12.5v-6.25h56.25v6.25zm0-12.5H50v-6.25h18.75v6.25z" fill="#D8890B"></path>
    <g>
      <path d="M81.853 60C65.31 60 51.852 73.457 51.852 90c0 16.542 13.458 30 30.001 30 16.542 0 29.999-13.458 29.999-30 0-16.543-13.457-30-29.999-30zm-8.7 14.073c3.989 0 7.235 3.246 7.235 7.237 0 3.989-3.246 7.236-7.236 7.236-3.99 0-7.237-3.247-7.237-7.236 0-3.991 3.247-7.237 7.237-7.237zm-2.2 29.479a1.869 1.869 0 01-2.654 0 1.876 1.876 0 010-2.653L92.75 76.447a1.877 1.877 0 012.654 2.654l-24.453 24.451zm19.56 2.352c-3.99 0-7.237-3.246-7.237-7.237 0-3.989 3.247-7.235 7.237-7.235s7.236 3.246 7.236 7.235c0 3.991-3.247 7.237-7.236 7.237z" fill="#fff" fill-opacity=".45"></path>
    </g>
    <defs>
      <filter id="filter0_b" x="35.852" y="44" width="92" height="92" filterUnits="userSpaceOnUse" color-interpolation-filters="sRGB">
        <feFlood flood-opacity="0" result="BackgroundImageFix"></feFlood>
        <feGaussianBlur in="BackgroundImage" stdDeviation="8"></feGaussianBlur>
        <feComposite in2="SourceAlpha" operator="in" result="effect1_backgroundBlur"></feComposite>
        <feBlend in="SourceGraphic" in2="effect1_backgroundBlur" result="shape"></feBlend>
      </filter>
    </defs>
  </symbol>
  <symbol fill="none" xmlns="http://www.w3.org/2000/svg" viewBox="0 0 129 114" id="done">
    <g clip-path="url(#clip0)">
      <path d="M66.737 13.256H80.07v22.093H66.737V13.256zm40.022 4.418v88.373H0V0h88.966l17.793 17.674zM22.241 39.767h62.276V8.837H22.241v30.93zm71.173 17.675h-80.07v39.767h80.07V57.442z" fill="#D8890B"></path>
    </g>
    <g clip-path="url(#clip1)">
      <path d="M65.612 107.372h-16.68V67.605h16.68v39.767zm58.767-27.877c-2.859-.381-1.928-2.432.104-3.055 1.738-.53 4.517-1.657 4.517-5.004 0-2.227-1.668-5.177-7.576-4.938-4.097.165-12.231-.656-16.611-2.933 3.022-12.116 2.295-29.1-5.632-29.1-5.318 0-6.325 5.988-7.923 11.496-4.074 14.058-11.05 19.94-18.973 22.817v36.049C86.904 107.15 93.453 114 107.33 114c10.67 0 16.188-5.75 16.188-8.835 0-1.11-.908-1.899-3.203-2.075-2.706-.205-2.449-2.69.103-3.158 4.231-.775 6.092-3.029 6.092-5.113 0-1.753-1.321-3.387-3.663-3.914-2.792-.626-2.215-2.509.104-2.69 3.779-.3 5.631-2.533 5.631-4.674 0-1.872-1.414-3.675-4.204-4.046z" fill="#fff" fill-opacity=".45"></path>
    </g>
    <defs>
      <clipPath id="clip0">
        <path fill="#fff" d="M0 0h106.759v106.047H0z"></path>
      </clipPath>
      <clipPath id="clip1">
        <path fill="#fff" transform="translate(48.931 34.465)" d="M0 0h80.069v79.535H0z"></path>
      </clipPath>
      <filter id="filter0_b" x="32.931" y="18.465" width="112.069" height="111.535" filterUnits="userSpaceOnUse" color-interpolation-filters="sRGB">
        <feFlood flood-opacity="0" result="BackgroundImageFix"></feFlood>
        <feGaussianBlur in="BackgroundImage" stdDeviation="8"></feGaussianBlur>
        <feComposite in2="SourceAlpha" operator="in" result="effect1_backgroundBlur"></feComposite>
        <feBlend in="SourceGraphic" in2="effect1_backgroundBlur" result="shape"></feBlend>
      </filter>
    </defs>
  </symbol>
  <symbol fill="none" xmlns="http://www.w3.org/2000/svg" viewBox="0 0 137 120" id="fill">
    <path d="M88.552 33.879L90 110H10V10h36.81C67.59 10 61 36 61 36s18.781-4.631 27.552-2.121L97 29.455C88.552 0 61.285 0 50.945 0H0v120h100l-3-90.545-8.448 4.424z" fill="#D8890B"></path>
    <path d="M27.5 69.5H79V65H27.5v4.5zm-11.5 0h3V65h-3v4.5zm11.5 14H79V79H27.5v4.5zm-11.5 0h3V79h-3v4.5zM27.5 98H79v-4.5H27.5V98zM16 98h3v-4.5h-3V98z" fill="#D8890B"></path>
    <g clip-path="url(#clip0)">
      <path d="M116.374 10.252l10.375 10.374-54.492 54.491-12.988 2.617L61.89 64.74l54.484-54.488zm0-10.252L55.213 61.161 50 87l25.835-5.21L137 20.624 116.374 0zm-.076 18.14l-46.14 46.138 2.564 2.567 46.139-46.139-2.563-2.566z" fill="#fff" fill-opacity=".45"></path>
    </g>
    <defs>
      <clipPath id="clip0">
        <path fill="#fff" transform="translate(50)" d="M0 0h87v87H0z"></path>
      </clipPath>
      <filter id="filter0_b" x="34" y="-16" width="119" height="119" filterUnits="userSpaceOnUse" color-interpolation-filters="sRGB">
        <feFlood flood-opacity="0" result="BackgroundImageFix"></feFlood>
        <feGaussianBlur in="BackgroundImage" stdDeviation="8"></feGaussianBlur>
        <feComposite in2="SourceAlpha" operator="in" result="effect1_backgroundBlur"></feComposite>
        <feBlend in="SourceGraphic" in2="effect1_backgroundBlur" result="shape"></feBlend>
      </filter>
    </defs>
  </symbol>  
  <symbol fill="none" xmlns="http://www.w3.org/2000/svg" viewBox="0 0 134 120" id="user-icon">
    <path d="M100.555 69.766c-9.457-9.595-21.995-14.88-35.304-14.88H49.898c-13.308 0-25.846 5.285-35.304 14.88C5.183 79.314 0 91.918 0 105.256a3.837 3.837 0 003.838 3.835h107.473a3.837 3.837 0 003.839-3.835c0-13.338-5.183-25.942-14.595-35.49z" fill="#D8890B"></path>
    <g>
      <path d="M57.182 0C38.134 0 22.638 15.484 22.638 34.517s15.496 34.517 34.544 34.517c19.048 0 34.545-15.484 34.545-34.517S76.23 0 57.182 0z" fill="#fff" fill-opacity=".45"></path>
    </g>
    <g >
      <path d="M126.782 90.843h-1.031v-6.248c0-5.74-4.628-10.413-10.311-10.413-5.684 0-10.312 4.673-10.312 10.413v6.248h-1.031c-3.98 0-7.218 3.27-7.218 7.29v14.577c0 4.02 3.238 7.29 7.218 7.29h22.685c3.98 0 7.218-3.27 7.218-7.29V98.132c0-4.02-3.238-7.29-7.218-7.29zm-15.467-6.248c0-2.295 1.852-4.165 4.125-4.165 2.272 0 4.124 1.87 4.124 4.165v6.248h-8.249v-6.248z" fill="#fff" fill-opacity=".45"></path>
    </g>
    <defs>
      <filter id="filter0_b" x="6.637" y="-16" width="101.09" height="101.034" filterUnits="userSpaceOnUse" color-interpolation-filters="sRGB">
        <feFlood flood-opacity="0" result="BackgroundImageFix"></feFlood>
        <feGaussianBlur in="BackgroundImage" stdDeviation="8"></feGaussianBlur>
        <feComposite in2="SourceAlpha" operator="in" result="effect1_backgroundBlur"></feComposite>
        <feBlend in="SourceGraphic" in2="effect1_backgroundBlur" result="shape"></feBlend>
      </filter>
      <filter id="filter1_b" x="80.879" y="58.182" width="69.121" height="77.818" filterUnits="userSpaceOnUse" color-interpolation-filters="sRGB">
        <feFlood flood-opacity="0" result="BackgroundImageFix"></feFlood>
        <feGaussianBlur in="BackgroundImage" stdDeviation="8"></feGaussianBlur>
        <feComposite in2="SourceAlpha" operator="in" result="effect1_backgroundBlur"></feComposite>
        <feBlend in="SourceGraphic" in2="effect1_backgroundBlur" result="shape"></feBlend>
      </filter>
    </defs>
  </symbol>
  <symbol fill="none" xmlns="http://www.w3.org/2000/svg" viewBox="0 0 30 30" id="mail">
    <path d="M15 15.891L.019 3.75H29.98L15 15.891zm0 3.218L0 6.952V26.25h30V6.953L15 19.108z" fill="#fff" fill-opacity=".5"></path>
  </symbol>
  <symbol fill="none" xmlns="http://www.w3.org/2000/svg" viewBox="0 0 24 40" id="phone">
    <path fill-rule="evenodd" clip-rule="evenodd" d="M4.266 0h15.468c1.175 0 2.25.468 3.017 1.212A4.06 4.06 0 0124 4.142v31.716a4.09 4.09 0 01-1.249 2.93A4.307 4.307 0 0119.734 40H4.266a4.338 4.338 0 01-3.017-1.212A4.06 4.06 0 010 35.858V4.142a4.09 4.09 0 011.249-2.93A4.307 4.307 0 014.266 0zm7.728 34.91c.964 0 1.756.756 1.756 1.705 0 .936-.78 1.704-1.756 1.704-.965 0-1.756-.756-1.756-1.704 0-.937.779-1.705 1.756-1.705zM1.212 33.613h21.564V6.423H1.212v27.19z" fill="#fff" fill-opacity=".5"></path>
  </symbol>
  <symbol fill="none" xmlns="http://www.w3.org/2000/svg" viewBox="0 0 27 35" id="phone-old">
    <path d="M22.95 33.434l-1.74.96C11.032 39.673-6.618 8.88 3.303 3.062l1.67-.93 5.416 9.432-1.66.921c-3.015 1.816 4.024 14.156 7.114 12.462l1.695-.936 5.412 9.422zM8.646 0l-2.45 1.422 5.417 9.43 2.451-1.422L8.646 0zm12.561 21.87l-2.45 1.422 5.416 9.431 2.452-1.421-5.418-9.431z" fill="#fff" fill-opacity=".5"></path>
  </symbol>
  <symbol fill="none" xmlns="http://www.w3.org/2000/svg" viewBox="0 0 24 24" id="arrow">
    <path d="M5 3l3.057-3L20 12 8.057 24 5 21l9-9-9-9z" fill="#8D8D90"></path>
  </symbol>
</svg>