<svg width="100" height="100" viewBox="0 0 100 100" fill="none" xmlns="http://www.w3.org/2000/svg">
<path d="M96.9583 82.2625L47.1833 32.4917C44.8625 30.1708 43.675 26.9458 43.9208 23.6792C44.4 17.4917 42.275 11.1417 37.55 6.40417C33.2583 2.12083 27.65 0 22.0375 0C19.925 0 17.8083 0.3 15.7667 0.9L28.975 14.1083C30.4083 20.7292 20.8125 30.4333 14.1125 28.9708L0.908333 15.7625C0.304167 17.8125 0 19.9292 0 22.05C0 27.6625 2.125 33.2625 6.40833 37.5542C11.1375 42.2875 17.4917 44.4125 23.6833 43.9292C26.9458 43.6792 30.1708 44.8708 32.4875 47.1917L82.2625 96.9583C84.2125 98.9083 86.8583 100 89.6083 100C95.3083 100 100 95.3833 100 89.6083C100 86.95 98.9833 84.2917 96.9583 82.2625ZM89.5833 93.75C87.2792 93.75 85.4167 91.8833 85.4167 89.5833C85.4167 87.2833 87.2792 85.4167 89.5833 85.4167C91.8875 85.4167 93.75 87.2833 93.75 89.5833C93.75 91.8833 91.8875 93.75 89.5833 93.75Z" fill="#D8890B"/>
<path d="M47.3335 35.4267L78.55 3.65417C80.9833 1.22083 84.1667 0 87.3542 0C90.5375 0 93.725 1.21667 96.1583 3.65417C98.6125 6.1 99.8333 9.30833 99.8333 12.5083C99.8333 15.6917 98.6208 18.875 96.1958 21.3L64.5752 51.3666C64.5752 51.3666 60.246 55.2666 48.8335 57.2666C53.2904 53.2719 60.246 47.0374 60.246 47.0374L90.7875 18.05C91.4917 17.35 91.4833 16.2125 90.7833 15.5125C90.0792 14.8083 88.9458 14.8042 88.2417 15.5083L52.8335 50.2666C62.8335 57.2666 42.8335 58.2666 47.5524 55.9749L43.8441 52.2666C43.3335 57.2666 40.8335 40.5374 48.8335 47.0374L84.5292 11.7958C85.2333 11.0917 85.2292 9.95833 84.5292 9.25C83.825 8.55 82.6833 8.54167 81.9833 9.25L51.8502 39.9392C51.8502 39.9392 46.4233 46.9039 42.946 51.3666C43.3335 40.2666 47.3335 35.4267 47.3335 35.4267ZM48.8335 57.2666C37.5212 68.3575 19.8667 85.6667 19.8667 85.6667C18.9208 86.6208 18.1042 87.7 17.475 88.8917L16.2208 91.3083L7.47083 95.7667L4 92.2917L8.27083 83.35L10.6875 82.0917C11.8792 81.4667 13.025 80.7208 13.9792 79.7667C13.9792 79.7667 31.6337 62.4575 42.946 51.3666C45.2452 53.6707 46.5343 54.9625 48.8335 57.2666Z" fill="white" fill-opacity="0.45"/>
</svg>
