<svg width="585" height="478" viewBox="0 0 585 478" fill="none" xmlns="http://www.w3.org/2000/svg">
<path d="M567.092 0H52.8482C50.4939 0.0100564 48.1646 0.484068 45.9935 1.39494C43.8224 2.3058 41.8522 3.63566 40.1954 5.30848C38.5387 6.98129 37.2278 8.96426 36.3379 11.144C35.448 13.3237 34.9965 15.6575 35.0091 18.0119V379.657C34.9965 382.012 35.448 384.345 36.3379 386.525C37.2278 388.705 38.5387 390.688 40.1954 392.361C41.8522 394.033 43.8224 395.363 45.9935 396.274C48.1646 397.185 50.4939 397.659 52.8482 397.669H567.092C569.447 397.659 571.776 397.185 573.947 396.274C576.118 395.363 578.088 394.033 579.745 392.361C581.402 390.688 582.713 388.705 583.602 386.525C584.492 384.345 584.944 382.012 584.931 379.657V18.0119C584.944 15.6575 584.492 13.3237 583.602 11.144C582.713 8.96426 581.402 6.98129 579.745 5.30848C578.088 3.63566 576.118 2.3058 573.947 1.39494C571.776 0.484068 569.447 0.0100564 567.092 0Z" fill="url(#paint0_linear)"/>
<path d="M582.609 38.3145V375.345C582.609 380.035 580.746 384.533 577.429 387.85C574.112 391.167 569.614 393.03 564.923 393.03H55.2221C50.5316 393.03 46.0332 391.167 42.7165 387.85C39.3999 384.533 37.5366 380.035 37.5366 375.345V38.3145H582.609Z" fill="#F6F7F9" fill-opacity="0.5"/>
<path d="M170.684 212.028V393.024H55.2221C45.4579 393.024 37.5366 384.949 37.5366 374.993V212.028H170.684Z" fill="#DDE1EC" fill-opacity="0.5"/>
<path d="M432.128 79.5786H210.214V85.8172H432.128V79.5786Z" fill="#DDE1EC"/>
<path d="M344.052 123.959H210.214V130.198H344.052V123.959Z" fill="#DDE1EC"/>
<path d="M418.953 123.959H373.876V130.198H418.953V123.959Z" fill="#DDE1EC"/>
<path d="M418.953 182.211H373.876V188.449H418.953V182.211Z" fill="#DDE1EC"/>
<path d="M418.953 240.463H373.876V246.702H418.953V240.463Z" fill="#DDE1EC"/>
<path d="M418.953 143.378H373.876V149.617H418.953V143.378Z" fill="#DDE1EC"/>
<path d="M496.619 143.378H451.541V149.617H496.619V143.378Z" fill="#DDE1EC"/>
<path d="M418.953 162.792H373.876V169.03H418.953V162.792Z" fill="#DDE1EC"/>
<path d="M496.619 162.792H451.541V169.03H496.619V162.792Z" fill="#DDE1EC"/>
<path d="M496.619 198.854H451.541V205.092H496.619V198.854Z" fill="#DDE1EC"/>
<path d="M496.619 218.273H451.541V224.512H496.619V218.273Z" fill="#DDE1EC"/>
<path d="M496.619 259.883H451.541V266.121H496.619V259.883Z" fill="#DDE1EC"/>
<path d="M344.052 143.378H210.214V149.617H344.052V143.378Z" fill="#DDE1EC"/>
<path d="M344.052 162.792H210.214V169.03H344.052V162.792Z" fill="#DDE1EC"/>
<path d="M344.052 182.211H210.214V188.449H344.052V182.211Z" fill="#DDE1EC"/>
<path d="M344.052 201.631H210.214V207.869H344.052V201.631Z" fill="#DDE1EC"/>
<path d="M344.052 221.044H210.214V227.283H344.052V221.044Z" fill="#DDE1EC"/>
<path d="M344.052 240.463H210.214V246.702H344.052V240.463Z" fill="#DDE1EC"/>
<path d="M344.052 259.883H210.214V266.121H344.052V259.883Z" fill="#DDE1EC"/>
<path d="M170.684 37.9688H37.5366V215.496H170.684V37.9688Z" fill="#D8890B"/>
<path d="M582.609 20.2832C582.607 15.5938 580.743 11.097 577.427 7.78172C574.11 4.46642 569.613 2.604 564.923 2.604H55.2221C50.5316 2.604 46.0332 4.4673 42.7165 7.78398C39.3999 11.1007 37.5366 15.5991 37.5366 20.2896V40.4002H582.609V20.2832Z" fill="#E8EAF1" fill-opacity="0.5"/>
<path d="M59.0356 28.2622C62.8663 28.2622 65.9716 25.1568 65.9716 21.3262C65.9716 17.4955 62.8663 14.3901 59.0356 14.3901C55.205 14.3901 52.0996 17.4955 52.0996 21.3262C52.0996 25.1568 55.205 28.2622 59.0356 28.2622Z" fill="#FF5252"/>
<path d="M81.9168 28.2622C85.7475 28.2622 88.8528 25.1568 88.8528 21.3262C88.8528 17.4955 85.7475 14.3901 81.9168 14.3901C78.0862 14.3901 74.9808 17.4955 74.9808 21.3262C74.9808 25.1568 78.0862 28.2622 81.9168 28.2622Z" fill="#FFFF00"/>
<path d="M104.804 28.2622C108.635 28.2622 111.74 25.1568 111.74 21.3262C111.74 17.4955 108.635 14.3901 104.804 14.3901C100.974 14.3901 97.8684 17.4955 97.8684 21.3262C97.8684 25.1568 100.974 28.2622 104.804 28.2622Z" fill="#69F0AE"/>
<path d="M142.952 126.736C142.965 135.63 139.909 144.256 134.302 151.159C134.091 151.421 133.879 151.677 133.662 151.933C133.619 151.977 133.581 152.024 133.547 152.074C131.56 154.373 129.312 156.432 126.847 158.21L126.527 158.447C126.086 158.76 125.638 159.087 125.184 159.355L124.87 159.554L124.198 159.97C124.099 160.033 123.997 160.09 123.891 160.142C123.808 160.202 123.72 160.256 123.629 160.302C122.644 160.878 121.626 161.409 120.583 161.896C120.468 161.96 120.34 162.011 120.218 162.068C120.097 162.126 119.956 162.196 119.815 162.248C119.675 162.299 119.399 162.433 119.176 162.516C116.941 163.462 114.62 164.191 112.246 164.692C109.983 165.176 107.681 165.457 105.367 165.53H105.016H104.101C101.048 165.541 98.0045 165.191 95.0338 164.487L94.4771 164.353C93.1718 164.011 91.8921 163.615 90.638 163.163C89.8766 162.881 89.1216 162.574 88.3857 162.248C88.2002 162.164 88.021 162.088 87.8355 161.998L87.2788 161.749L86.7925 161.499L86.2806 161.237L85.7112 160.936L85.0713 160.571L84.9689 160.514C82.2414 158.966 79.7106 157.095 77.4315 154.94C77.2395 154.755 77.0411 154.576 76.8556 154.377C76.67 154.179 76.4525 153.981 76.2605 153.776C71.8281 149.211 68.5852 143.628 66.8169 137.516C65.0486 131.404 64.8092 124.951 66.1196 118.725C67.43 112.499 70.2502 106.691 74.332 101.81C78.4139 96.9295 83.6325 93.1267 89.5287 90.7361C95.425 88.3455 101.818 87.4402 108.147 88.1C114.475 88.7597 120.544 90.9643 125.82 94.5198C131.097 98.0752 135.418 102.873 138.406 108.49C141.393 114.108 142.955 120.373 142.952 126.736Z" fill="white"/>
<path d="M125.958 142.291V142.342L126.003 142.387C125.99 142.348 125.971 142.323 125.958 142.291ZM86.8245 161.486C86.7605 160.59 86.6965 159.784 86.6389 159.093C86.5941 158.607 86.5494 158.172 86.511 157.813C86.5071 157.797 86.5071 157.779 86.511 157.762C86.511 157.673 86.511 157.589 86.511 157.506C85.8943 158.448 85.3876 159.457 85.0009 160.514L85.1033 160.571L85.7431 160.936L86.3126 161.237L86.8245 161.499C86.8245 161.785 86.8458 162.083 86.8885 162.395C86.8565 162.088 86.8437 161.793 86.8245 161.505V161.486ZM95.341 124.906L95.373 124.963C95.3752 124.978 95.3752 124.993 95.373 125.008C95.3674 124.979 95.3565 124.951 95.341 124.925V124.906Z" fill="url(#paint1_linear)"/>
<path d="M106.481 118.373C106.481 118.373 104.171 128.751 110.518 134.235C116.866 139.719 95.5265 144.012 91.7642 139.424C88.0018 134.836 94.3748 132.495 94.3748 132.495C94.3748 132.495 97.574 129.897 94.3748 122.116L106.481 118.373Z" fill="#E0C07E"/>
<path d="M112.24 164.705C109.976 165.189 107.674 165.47 105.361 165.543H105.009H104.094C101.043 165.549 98.0019 165.194 95.0338 164.487L94.4771 164.353C93.1718 164.011 91.8921 163.615 90.638 163.163L89.9982 153.565L92.7751 140.275L94.4068 132.443L94.8675 130.255L95.3345 130.895L95.4369 131.036L95.5649 131.202L100.684 138.016L105.924 132.373L106.193 132.079L107.633 130.524L108.176 129.941L108.432 131.919L109.354 139.027L111.062 152.138L112.24 164.705Z" fill="#F0F1F5"/>
<path opacity="0.1" d="M126.521 158.447C126.08 158.76 125.632 159.087 125.177 159.356L124.864 159.554L124.192 159.97C124.093 160.033 123.99 160.09 123.885 160.143C123.802 160.202 123.714 160.256 123.622 160.302C122.213 159.1 121.154 157.539 120.558 155.785C120.482 155.562 120.418 155.336 120.366 155.107C120.363 155.071 120.363 155.034 120.366 154.998L120.001 155.958L118.881 158.728C118.881 158.728 119.214 160.085 119.809 162.235C119.6 162.333 119.387 162.423 119.169 162.504C116.934 163.45 114.614 164.178 112.24 164.679C109.976 165.164 107.674 165.444 105.361 165.517H105.009C104.686 162.543 104.572 159.55 104.67 156.559L105.515 140.454L105.943 132.328L106.18 127.849C106.18 127.849 106.263 127.939 106.423 128.086C106.583 128.233 106.692 128.342 106.884 128.515C109.74 131.01 113.337 132.496 117.122 132.744C118.167 132.774 119.191 133.045 120.114 133.535C121.037 134.026 121.835 134.723 122.445 135.572C123.602 137.216 124.345 139.115 124.614 141.107L124.806 142.866L124.857 143.366L124.928 144.005L126.521 158.447Z" fill="black"/>
<path d="M126.841 158.217L126.521 158.453C126.08 158.767 125.632 159.093 125.177 159.362L124.864 159.56L124.192 159.976C122.687 158.767 121.541 157.169 120.878 155.357C120.847 155.282 120.821 155.205 120.801 155.126C120.73 154.902 120.666 154.666 120.615 154.435L120.353 155.12L119.995 156.048L119.176 158.185C119.176 158.185 119.553 159.72 120.218 162.088C120.084 162.152 119.956 162.216 119.815 162.267C119.675 162.318 119.399 162.453 119.176 162.536C116.941 163.482 114.62 164.21 112.246 164.711C109.983 165.196 107.681 165.476 105.367 165.549C104.994 162.382 104.859 159.191 104.964 156.003L105.783 140.397L106.218 132.079L106.43 128.156L106.468 127.344C106.502 127.382 106.538 127.418 106.577 127.453C109.524 130.282 113.377 131.98 117.454 132.245C118.485 132.275 119.495 132.538 120.408 133.016C121.322 133.494 122.115 134.173 122.727 135.003C123.915 136.661 124.68 138.586 124.953 140.608L125.293 143.762V143.807L125.363 144.447L126.841 158.217Z" fill="#584829"/>
<path opacity="0.1" d="M95.7313 129.295V129.686L95.6289 131.17L95.2706 136.251C95.2706 136.251 95.0594 137.716 94.9059 141.018C94.6819 145.369 94.5476 152.906 95.0658 164.5L94.5092 164.366C93.2039 164.025 91.9242 163.628 90.67 163.176C89.9086 162.894 89.1536 162.587 88.4177 162.261C88.2322 162.177 88.053 162.101 87.8675 162.011C87.6819 159.452 87.458 157.884 87.458 157.884C87.458 157.884 87.2852 158.102 87.0229 158.524C86.9141 158.697 86.7797 158.908 86.639 159.164L86.607 159.221C86.4833 159.435 86.351 159.678 86.2103 159.951C86.0503 160.271 85.8903 160.591 85.7368 160.994L85.0969 160.629L84.9945 160.571C82.267 159.024 79.7363 157.152 77.4571 154.998C78.4872 151.37 79.3766 147.723 79.6966 147.256C80.8897 145.423 81.806 143.425 82.4159 141.325C82.8421 139.898 83.5798 138.584 84.5757 137.478C85.5716 136.371 86.8008 135.5 88.1746 134.926C91.0454 133.581 93.6121 131.665 95.7185 129.295H95.7313Z" fill="black"/>
<path d="M95.7377 129.116C93.2611 131.213 90.5019 132.951 87.5411 134.28C86.1673 134.853 84.9381 135.725 83.9422 136.831C82.9463 137.938 82.2086 139.252 81.7824 140.678C81.1725 142.778 80.2562 144.777 79.0631 146.61C78.7495 147.077 77.8537 150.73 76.8236 154.365C77.0091 154.557 77.2075 154.742 77.3994 154.928C79.6786 157.082 82.2094 158.953 84.9369 160.501L85.0393 160.558C85.4126 159.607 85.8844 158.698 86.447 157.845L86.479 157.794C86.7029 157.462 86.8437 157.282 86.8437 157.282C86.8437 157.282 86.9013 157.705 86.9845 158.466C87.0676 159.228 87.1764 160.386 87.2788 161.729L87.8355 161.979C88.0146 162.069 88.1938 162.145 88.3857 162.228C89.1216 162.555 89.8766 162.868 90.638 163.143C91.8793 163.6 93.159 163.997 94.4771 164.334C93.9525 152.855 94.0676 145.292 94.2788 140.832C94.4452 137.236 94.6691 135.643 94.6691 135.643L95.4817 130.972L95.7121 129.654L95.8208 129.014L95.7377 129.116Z" fill="#584829"/>
<path opacity="0.1" d="M99.8519 128.47C98.4133 128.471 96.9932 128.145 95.6993 127.516C95.4757 125.858 95.0302 124.238 94.3748 122.698L106.481 118.955C106.04 121.275 105.955 123.648 106.231 125.993C104.487 127.584 102.212 128.467 99.8519 128.47Z" fill="black"/>
<path d="M99.8519 127.894C105.107 127.894 109.367 123.634 109.367 118.379C109.367 113.125 105.107 108.865 99.8519 108.865C94.5971 108.865 90.3373 113.125 90.3373 118.379C90.3373 123.634 94.5971 127.894 99.8519 127.894Z" fill="#E0C07E"/>
<g opacity="0.1">
<path opacity="0.1" d="M119.188 162.529C118.44 159.9 118.024 158.172 118.024 158.172L119.463 154.422C119.576 154.949 119.741 155.464 119.956 155.958L119.988 156.041L119.169 158.178C119.169 158.178 119.547 159.714 120.212 162.081C120.078 162.145 119.95 162.209 119.809 162.261C119.668 162.312 119.393 162.446 119.188 162.529Z" fill="black"/>
</g>
<path d="M130.418 144.613C130.418 144.613 129.554 136.25 130.418 132.213C131.282 128.175 120.327 132.789 122.631 138.266C123.863 141.302 125.409 144.202 127.244 146.917L130.418 144.613Z" fill="#E0C07E"/>
<path opacity="0.1" d="M133.54 152.074C131.553 154.373 129.305 156.432 126.841 158.21L126.521 158.447C126.08 158.761 125.632 159.087 125.177 159.356C124.146 158.132 123.225 156.82 122.426 155.433L122.343 155.286L124.653 143.174L124.896 143.423C124.998 143.519 125.133 143.647 125.292 143.775H125.324C126.521 144.799 129.048 146.335 130.264 142.764C130.47 142.139 130.617 141.497 130.706 140.845L130.942 141.728L131.083 142.246L133.643 151.901L133.54 152.074Z" fill="black"/>
<path d="M133.54 152.074C131.554 154.373 129.305 156.432 126.841 158.21L126.521 158.447C126.08 158.76 125.632 159.087 125.177 159.355L124.864 159.554C123.926 158.39 123.083 157.154 122.343 155.855L122.426 155.427L124.653 143.743C124.653 143.743 124.768 143.877 124.966 144.063L125.363 144.415C125.529 144.556 125.721 144.709 125.932 144.85C127.257 145.759 129.272 146.443 130.296 143.25C130.485 142.657 130.622 142.049 130.706 141.433L131 142.521L133.54 152.074Z" fill="#584829"/>
<path opacity="0.02" d="M133.54 152.074C131.554 154.373 129.305 156.432 126.841 158.21L126.521 158.447C126.08 158.76 125.632 159.087 125.177 159.355L124.864 159.554C123.926 158.39 123.083 157.154 122.343 155.855L122.426 155.427L124.653 143.743C124.653 143.743 124.768 143.877 124.966 144.063L125.363 144.415C125.529 144.556 125.721 144.709 125.932 144.85C127.257 145.759 129.272 146.443 130.296 143.25C130.485 142.657 130.622 142.049 130.706 141.433L131 142.521L133.54 152.074Z" fill="black"/>
<path opacity="0.1" d="M86.511 157.82L86.479 157.871C86.479 157.839 86.479 157.801 86.479 157.775C86.8821 156.374 87.2468 155.427 87.5731 155.146C87.5731 155.146 88.0018 157.993 88.3857 162.261C88.2002 162.177 88.021 162.101 87.8355 162.011L87.2788 161.762C87.1828 160.386 87.0804 159.266 86.9845 158.498C86.8885 157.731 86.8437 157.315 86.8437 157.315C86.8437 157.315 86.7349 157.487 86.511 157.82Z" fill="black"/>
<path opacity="0.1" d="M99.9671 115.756C100.465 115.483 101.037 115.38 101.599 115.461C101.841 115.564 102.059 115.717 102.239 115.909C102.987 116.62 103.729 117.445 104.74 117.663C105.365 117.757 106.002 117.729 106.615 117.579C107.692 117.455 108.737 117.136 109.699 116.639C111.843 115.359 112.527 112.589 112.662 110.099C112.707 109.261 112.534 108.18 111.708 108.001C110.659 107.777 109.891 109.37 108.829 109.197C108.506 109.119 108.216 108.942 107.997 108.692C107.274 107.969 106.782 107.041 106.078 106.312C104.952 105.26 103.495 104.635 101.957 104.546C100.432 104.463 98.9031 104.607 97.4205 104.974C96.603 105.109 95.8137 105.38 95.085 105.774C94.7242 105.971 94.411 106.246 94.1678 106.577C93.9246 106.909 93.7571 107.29 93.6773 107.694C93.607 108.25 93.7541 108.826 93.6454 109.376C93.5378 109.748 93.3551 110.094 93.1086 110.392C92.862 110.69 92.5569 110.935 92.2121 111.11C91.5722 111.507 90.8172 111.75 90.1902 112.237C89.1936 113.011 88.5024 114.112 88.2386 115.346C87.9827 116.574 87.948 117.837 88.1362 119.077C88.3988 121.23 88.9991 123.329 89.915 125.296C90.2177 125.983 90.607 126.628 91.0732 127.216C91.7574 127.962 92.5436 128.608 93.4086 129.135C93.5653 129.277 93.7517 129.383 93.9543 129.444C94.1569 129.504 94.3705 129.519 94.5795 129.487C94.6994 129.444 94.8101 129.379 94.9059 129.295C95.7249 128.61 95.8017 127.376 95.5457 126.333C95.2898 125.29 94.8547 124.298 94.8035 123.236C94.7708 122.938 94.8288 122.637 94.9699 122.372C95.1405 122.158 95.3336 121.963 95.5457 121.79C95.8228 121.471 96.0397 121.105 96.1856 120.708C96.6751 119.729 97.0096 118.68 97.1773 117.599C97.27 116.708 97.0749 115.811 96.6207 115.039C97.0601 115.452 97.6042 115.738 98.194 115.864C98.7838 115.99 99.397 115.953 99.9671 115.756Z" fill="black"/>
<path d="M99.9671 115.423C100.465 115.15 101.037 115.047 101.599 115.129C101.841 115.231 102.059 115.384 102.239 115.577C102.987 116.287 103.729 117.113 104.74 117.33C105.365 117.425 106.002 117.397 106.615 117.247C107.692 117.122 108.737 116.804 109.699 116.306C111.843 115.027 112.527 112.256 112.662 109.767C112.707 108.929 112.534 107.847 111.708 107.668C110.659 107.444 109.891 109.038 108.829 108.865C108.506 108.786 108.216 108.61 107.997 108.359C107.274 107.636 106.782 106.708 106.078 105.979C104.952 104.927 103.495 104.303 101.957 104.213C100.432 104.13 98.9031 104.275 97.4205 104.642C96.603 104.777 95.8137 105.047 95.085 105.442C94.7242 105.639 94.411 105.913 94.1678 106.245C93.9246 106.577 93.7571 106.958 93.6773 107.361C93.607 107.918 93.7541 108.494 93.6454 109.044C93.5378 109.416 93.3551 109.761 93.1086 110.06C92.862 110.358 92.5569 110.602 92.2121 110.778C91.5722 111.175 90.8172 111.418 90.1902 111.904C89.1936 112.678 88.5024 113.78 88.2386 115.014C87.9827 116.241 87.948 117.504 88.1362 118.744C88.3988 120.898 88.9991 122.997 89.915 124.964C90.2177 125.65 90.607 126.295 91.0732 126.883C91.7574 127.63 92.5436 128.276 93.4086 128.803C93.5653 128.945 93.7517 129.05 93.9543 129.111C94.1569 129.172 94.3705 129.187 94.5795 129.155C94.6994 129.112 94.8101 129.046 94.9059 128.963C95.7249 128.278 95.8017 127.043 95.5457 126C95.2898 124.957 94.8547 123.965 94.8035 122.903C94.7708 122.605 94.8288 122.304 94.9699 122.039C95.1405 121.825 95.3336 121.63 95.5457 121.457C95.8228 121.138 96.0397 120.772 96.1856 120.376C96.6751 119.397 97.0096 118.348 97.1773 117.266C97.27 116.375 97.0749 115.478 96.6207 114.707C97.0601 115.12 97.6042 115.405 98.194 115.531C98.7838 115.658 99.397 115.62 99.9671 115.423Z" fill="#463E3B"/>
<path d="M47.6143 362.381C56.5159 362.381 63.7322 359.731 63.7322 356.463C63.7322 353.194 56.5159 350.544 47.6143 350.544C38.7126 350.544 31.4963 353.194 31.4963 356.463C31.4963 359.731 38.7126 362.381 47.6143 362.381Z" fill="#CD9494"/>
<path opacity="0.05" d="M47.6143 358.823C52.1552 358.823 55.8364 357.471 55.8364 355.803C55.8364 354.135 52.1552 352.783 47.6143 352.783C43.0733 352.783 39.3921 354.135 39.3921 355.803C39.3921 357.471 43.0733 358.823 47.6143 358.823Z" fill="black"/>
<path d="M31.49 355.164C31.49 355.164 49.2523 365.03 63.7258 356.482C63.7258 356.482 61.755 390.695 51.8821 393.984H38.7331C38.7331 393.984 27.5485 370.93 31.49 355.164Z" fill="#FF7361"/>
<path d="M61.5311 292.458C66.0548 308.985 46.7697 356.066 46.7697 356.066C46.7697 356.066 6.20933 325.353 1.68557 308.832C-0.48574 300.896 0.584449 292.422 4.66071 285.275C8.73697 278.128 15.4854 272.893 23.4214 270.722C31.3574 268.551 39.8309 269.621 46.9779 273.697C54.1248 277.773 59.3598 284.522 61.5311 292.458Z" fill="#D8890B"/>
<path opacity="0.1" d="M61.5311 292.458C66.0548 308.985 46.7697 356.066 46.7697 356.066C46.7697 356.066 6.20933 325.353 1.68557 308.832C-0.48574 300.896 0.584449 292.422 4.66071 285.275C8.73697 278.128 15.4854 272.893 23.4214 270.722C31.3574 268.551 39.8309 269.621 46.9779 273.697C54.1248 277.773 59.3598 284.522 61.5311 292.458Z" fill="black"/>
<path d="M23.5877 270.812C23.5877 270.812 48.8364 308.928 46.936 356.149" stroke="#535461" stroke-miterlimit="10"/>
<path d="M67.9744 322.659C67.9744 322.659 45.0548 310.201 47.979 356.181C47.979 356.181 67.0786 355.496 73.8547 339.916C75.1786 336.886 75.3459 333.476 74.3247 330.331C73.3036 327.186 71.1649 324.525 68.3135 322.851L67.9744 322.659Z" fill="#D8890B"/>
<path d="M68.3519 322.736C68.3519 322.736 65.3958 346.602 47.979 356.181" stroke="#535461" stroke-miterlimit="10"/>
<path opacity="0.05" d="M61.5759 357.576C60.936 365.446 58.1783 389.888 49.9178 392.646H38.1252C38.5028 393.484 38.7331 393.964 38.7331 393.964H51.8949C61.755 390.669 63.7322 356.443 63.7322 356.443C63.0331 356.857 62.3134 357.235 61.5759 357.576Z" fill="black"/>
<path d="M344.052 302.529H210.214V380.201H344.052V302.529Z" fill="#DDE1EC" fill-opacity="0.5"/>
<path d="M563.867 149.22C563.884 148.969 563.884 148.716 563.867 148.465C563.637 145.343 560.668 143.084 557.725 141.881C554.782 140.678 551.493 140.089 548.889 138.266C544.486 135.182 543.13 129.417 542.733 124.144C542.612 122.506 542.56 120.868 542.554 119.224C542.548 117.579 542.656 115.762 542.81 114.035C543.066 111.168 543.488 108.199 543.45 105.326C543.599 102.585 543.072 99.8491 541.914 97.3599C539.304 92.2027 533.442 89.5665 528.016 87.3206C525.931 86.4568 523.793 85.5802 521.528 85.4842C519.135 85.3819 516.806 86.1561 514.541 86.9239C510.945 88.1396 507.298 89.7201 503.58 90.5455C501.495 91.0062 499.21 90.6607 497.182 91.3965C493.202 92.8554 492.351 96.4321 492.415 100.354C492.415 100.604 492.415 100.847 492.415 101.097C492.018 100.732 491.609 100.386 491.193 100.054L490.95 99.8618C490.523 99.5162 490.069 99.1899 489.587 98.8828L489.357 98.7356C488.379 98.1019 487.354 97.5436 486.292 97.0656L486.132 96.9952C485.598 96.7606 485.057 96.5473 484.506 96.3554L484.404 96.317C483.265 95.92 482.097 95.6119 480.91 95.3956C477.172 94.7027 473.32 94.9365 469.693 96.0765C466.065 97.2165 462.773 99.2279 460.102 101.935L455.707 106.414C435.724 101.935 434.828 119.294 434.828 119.294L434.975 119.262L434.924 119.384C435.379 121.58 435.954 123.751 436.645 125.885L282.332 283.5L266.732 331.847L275.492 328.725L315.508 314.43L458.797 168.057C469.521 175.678 480.667 185.89 480.667 185.89C480.667 185.89 473.757 189.544 476.316 206.282C479.445 226.758 474.742 255.903 474.742 255.903V274.753L475.625 274.51C475.516 275.15 475.401 275.79 475.293 276.525C473.835 285.996 473.65 295.62 474.742 305.14C477.11 325.141 486.567 352.45 486.567 352.45C486.567 352.45 490.112 362.048 490.905 369.758C491.03 371.281 491.37 372.778 491.916 374.205C493.695 378.435 494.634 382.971 494.68 387.559C494.68 395.928 495.774 408.489 500.759 421.305C504.758 431.594 506.236 437.621 506.677 441.141C503.843 444.89 500.138 448.979 497.214 449.388C491.698 450.156 481.051 450.924 488.147 460.157C488.395 460.474 488.671 460.767 488.973 461.034C483.585 461.904 477.66 463.823 483.419 471.31C490.515 480.543 532.297 476.313 532.297 476.313C532.297 476.313 532.566 471.194 532.297 465.551C535.228 465.346 537.038 465.161 537.038 465.161C537.038 465.161 538.222 442.849 533.097 440.155C532.15 440.258 531.22 440.487 530.333 440.833C529.782 437.749 529.36 433.917 529.098 431.076L531.126 430.922V397.458C531.126 397.458 528.759 376.688 520.089 367.455C518.983 366.302 518.031 365.012 517.254 363.616C517.318 360.948 517.325 357.217 517.293 352.911C517.637 352.329 518.047 351.788 518.515 351.299C518.515 351.299 523.243 345.54 539.406 308.985C548.94 287.428 546.815 274.983 543.469 268.393C542.829 266.051 541.165 259.364 538.99 247.054C536.232 231.281 539.387 215.893 539.387 215.893C539.387 215.893 549.624 189.352 554.366 178.583C555.464 175.989 555.92 173.169 555.697 170.361C556.931 169.459 557.527 167.955 558.058 166.522L562.914 153.565C563.439 152.163 563.976 150.705 563.861 149.214L563.867 149.22ZM497.911 125.891C498.439 126.714 499.027 127.497 499.671 128.233C499.671 128.233 498.948 127.478 497.751 126.262C497.809 126.141 497.86 126.013 497.911 125.891ZM474.032 152.49L487.399 138.835C492.018 143.058 496.964 147.371 501.098 150.922C500.704 152.742 500.182 154.531 499.537 156.278C497.745 157.167 495.378 157.455 492.498 155.887C487.936 153.424 479.516 152.694 474.032 152.49Z" fill="url(#paint2_linear)"/>
<path d="M463.276 102.102C463.276 102.102 453.365 107.822 456.417 115.858C456.417 115.858 466.712 118.911 470.903 126.538C475.094 134.165 507.509 161.614 507.509 161.614L531.145 149.771C531.145 149.771 522.923 138.791 496.913 131.125C496.913 131.125 481.557 114.687 476.239 111.642C470.922 108.596 463.276 102.102 463.276 102.102Z" fill="#101D2C"/>
<path opacity="0.05" d="M463.276 102.102C463.276 102.102 453.365 107.822 456.417 115.858C456.417 115.858 466.712 118.911 470.903 126.538C475.094 134.165 507.509 161.614 507.509 161.614L531.145 149.771C531.145 149.771 522.923 138.791 496.913 131.125C496.913 131.125 481.557 114.687 476.239 111.642C470.922 108.596 463.276 102.102 463.276 102.102Z" fill="black"/>
<path d="M286.676 285.017L458.656 104.981C462.721 100.732 468.306 98.2696 474.184 98.1352C480.063 98.0008 485.755 100.205 490.009 104.264C494.258 108.329 496.72 113.914 496.855 119.792C496.989 125.671 494.785 131.363 490.726 135.617L318.771 315.678L271.589 332.954L286.676 285.017Z" fill="#D8890B"/>
<path opacity="0.1" d="M480.635 101.071C484.884 105.136 487.347 110.721 487.481 116.599C487.615 122.478 485.411 128.17 481.352 132.424L309.378 312.46L273.956 325.417L271.563 332.941L318.746 315.665L490.745 135.694C494.804 131.439 497.008 125.748 496.874 119.869C496.74 113.99 494.277 108.405 490.028 104.341C486.485 100.946 481.913 98.8277 477.033 98.3198C478.324 99.1121 479.531 100.034 480.635 101.071Z" fill="white"/>
<path d="M286.676 285.023L318.772 315.678L280.06 329.845L271.589 332.942L276.957 315.902L286.676 285.023Z" fill="#EFC8C4"/>
<path d="M276.957 315.896C278.132 316.124 279.252 316.574 280.259 317.22C281.423 318.059 282.268 319.511 281.948 320.906C281.633 321.775 281.184 322.589 280.617 323.318C280.039 324.294 279.688 325.388 279.592 326.518C279.496 327.648 279.656 328.785 280.06 329.845L271.563 332.942L276.957 315.896Z" fill="#001B34"/>
<path d="M525.047 427.339C525.047 427.339 526.193 444.116 528.1 446.023C530.006 447.93 510.939 449.075 510.939 449.075L513.607 427.32L525.047 427.339Z" fill="#FFF1B9"/>
<path opacity="0.05" d="M525.047 427.339C525.047 427.339 526.193 444.116 528.1 446.023C530.006 447.93 510.939 449.075 510.939 449.075L513.607 427.32L525.047 427.339Z" fill="black"/>
<path d="M529.239 440.303C529.239 440.303 526.57 440.303 517.037 445.262C517.037 445.262 510.555 444.116 507.887 434.966C507.887 434.966 499.882 448.691 494.539 449.453C489.197 450.214 478.908 450.975 485.767 460.132C492.626 469.288 533.046 465.091 533.046 465.091C533.046 465.091 534.197 442.971 529.239 440.303Z" fill="#CBCDDA"/>
<path opacity="0.05" d="M529.239 440.303C529.239 440.303 526.57 440.303 517.037 445.262C517.037 445.262 510.555 444.116 507.887 434.966C507.887 434.966 499.882 448.691 494.539 449.453C489.197 450.214 478.908 450.975 485.767 460.132C492.626 469.288 533.046 465.091 533.046 465.091C533.046 465.091 534.197 442.971 529.239 440.303Z" fill="black"/>
<path d="M523.518 453.266L520.85 460.509L503.312 455.55L504.31 448.358L504.553 446.624L505.193 441.825C505.193 441.825 520.063 437.986 520.063 439.906C520.264 441.478 520.592 443.031 521.042 444.551C521.682 446.893 522.418 449.567 522.962 451.327C523.294 452.504 523.518 453.266 523.518 453.266Z" fill="#FFF1B9"/>
<path d="M513.952 353.826C512.75 355.861 511.393 359.675 513.92 364.435C514.668 365.813 515.589 367.09 516.659 368.236C525.048 377.386 527.338 397.976 527.338 397.976V431.146L521.618 431.588L512.468 432.292L498.711 375.869C498.711 375.869 490.707 334.688 494.52 327.445C498.334 320.202 501.763 274.83 501.763 274.83L504.931 271.554L512.442 263.773H534.197C535.936 265.021 537.38 266.635 538.427 268.502C542.074 274.542 545.35 287.102 535.343 310.291C519.711 346.513 515.136 352.233 515.136 352.233C514.683 352.718 514.286 353.252 513.952 353.826Z" fill="#78694C"/>
<path opacity="0.05" d="M513.952 353.826C512.75 355.861 511.393 359.675 513.92 364.435C514.668 365.813 515.589 367.09 516.659 368.236C525.048 377.386 527.338 397.976 527.338 397.976V431.146L521.618 431.588L512.468 432.292L498.711 375.869C498.711 375.869 490.707 334.688 494.52 327.445C498.334 320.202 501.763 274.83 501.763 274.83L504.931 271.554L512.442 263.773H534.197C535.936 265.021 537.38 266.635 538.427 268.502C542.074 274.542 545.35 287.102 535.343 310.291C519.711 346.513 515.136 352.233 515.136 352.233C514.683 352.718 514.286 353.252 513.952 353.826Z" fill="black"/>
<path opacity="0.1" d="M521.068 444.564L504.553 446.624L505.193 441.825C505.193 441.825 520.063 437.986 520.063 439.906C520.272 441.483 520.608 443.041 521.068 444.564Z" fill="black"/>
<path d="M512.846 304.948C512.846 304.948 513.793 334.964 513.953 353.826C513.985 358.094 513.953 361.793 513.921 364.435C513.943 365.837 513.84 367.237 513.613 368.62C512.468 372.05 514.759 379.677 514.759 379.677C524.293 404.842 521.624 426.955 521.624 426.955V443.732L503.312 446.023C503.312 446.023 506.364 443.732 497.975 421.619C493.157 408.912 492.114 396.466 492.095 388.167C492.051 383.627 491.143 379.136 489.42 374.935C488.902 373.515 488.583 372.029 488.474 370.52C487.712 362.893 484.282 353.359 484.282 353.359C484.282 353.359 475.133 326.287 472.842 306.458C471.785 297.02 471.963 287.485 473.373 278.093C473.71 275.706 474.17 273.338 474.749 270.997C474.749 270.997 512.02 247.54 526.097 263.754C527.459 265.338 528.541 267.143 529.296 269.091C530.069 271.013 530.671 273 531.094 275.029C535.42 296.566 512.846 304.948 512.846 304.948Z" fill="#78694C"/>
<path d="M511.7 137.946C522.439 137.946 531.145 129.24 531.145 118.501C531.145 107.762 522.439 99.0557 511.7 99.0557C500.961 99.0557 492.255 107.762 492.255 118.501C492.255 129.24 500.961 137.946 511.7 137.946Z" fill="#FFF1B9"/>
<path d="M501.027 130.696C501.027 130.696 509.032 153.194 501.027 165.012C493.023 176.83 526.57 173.016 526.57 173.016L539.534 157.385C539.534 157.385 524.28 157.385 523.537 130.696C522.795 104.008 501.027 130.696 501.027 130.696Z" fill="#FFF1B9"/>
<path opacity="0.1" d="M539.534 272.917C536.769 273.874 533.926 274.587 531.037 275.048C526.289 275.777 520.69 275.809 517.414 272.917C515.495 271.202 510.689 270.997 504.943 271.541C492.844 272.699 476.463 277.217 473.328 278.106C473.666 275.719 474.125 273.35 474.704 271.01C474.704 271.01 511.975 247.553 526.052 263.767H534.185C535.924 265.014 537.368 266.629 538.414 268.495C539.124 271.528 539.534 272.917 539.534 272.917Z" fill="black"/>
<path opacity="0.1" d="M523.518 453.266L520.85 460.509L503.312 455.55L504.31 448.358C507.324 455.026 512.462 455.928 512.462 455.928C518.003 453.048 521.228 451.839 522.955 451.334C523.294 452.505 523.518 453.266 523.518 453.266Z" fill="black"/>
<path d="M524.664 451.359C524.664 451.359 521.995 451.359 512.462 456.318C512.462 456.318 505.98 455.173 503.312 446.023C503.312 446.023 495.307 459.748 489.964 460.509C484.622 461.271 474.333 462.019 481.198 471.188C488.064 480.358 528.477 476.147 528.477 476.147C528.477 476.147 529.623 454.028 524.664 451.359Z" fill="#CBCDDA"/>
<path d="M434.208 122.225C434.208 122.225 435.071 105.019 454.401 109.46L449.442 118.757L434.208 122.225Z" fill="#FFF1B9"/>
<path d="M524.305 161.966C524.305 161.966 505.622 158.914 500.663 155.101C500.663 155.101 496.824 162.344 489.984 158.53C483.143 154.717 467.109 155.101 467.109 155.101C467.109 155.101 453.761 147.858 451.112 131.458C451.112 131.458 448.444 121.547 449.193 118.879C449.193 118.879 439.282 108.583 434.323 122.308C436.242 131.842 437.752 131.081 437.375 138.701L443.473 155.478C443.473 155.478 443.856 161.199 454.913 168.826C465.97 176.453 478.556 188.271 478.556 188.271C478.556 188.271 471.882 191.892 474.365 208.477C477.391 228.748 472.842 257.663 472.842 257.663V276.347C472.842 276.347 510.971 265.29 517.452 271.01C523.934 276.731 539.566 271.01 539.566 271.01C539.566 271.01 537.646 264.529 534.991 248.897C532.335 233.265 535.375 218.011 535.375 218.011C535.375 218.011 545.286 191.7 549.861 181.028C554.436 170.355 546.431 155.862 538.42 150.526C530.409 145.189 527.434 148.395 527.434 148.395C527.434 148.395 541.441 158.537 524.305 161.966Z" fill="#101D2C"/>
<path opacity="0.1" d="M490.668 113.74C490.662 114.534 490.797 115.322 491.065 116.069C491.509 116.919 492.116 117.673 492.85 118.29C495.704 121.079 498.212 124.394 499.217 128.259C499.895 130.876 499.856 133.614 499.818 136.321C499.652 147.269 499.178 159.087 492.434 167.674C489.952 170.841 486.752 173.356 483.751 176.037C483.33 176.352 483.013 176.786 482.843 177.284C482.759 177.805 482.859 178.339 483.124 178.794C484.519 181.693 487.456 183.472 490.239 185.084C491.519 185.82 492.85 186.581 494.322 186.626C497.79 186.741 500.08 183.075 503.235 181.635C507.829 179.537 512.98 182.454 517.542 184.63C520.844 186.202 524.306 187.409 527.869 188.232C532.751 189.358 538.267 189.633 542.375 186.773C544.749 185.1 546.372 182.561 546.892 179.703C547.225 177.841 547.174 175.678 548.581 174.418C549.311 173.778 550.302 173.496 551.083 172.92C552.305 172.025 552.881 170.521 553.399 169.081L558.096 156.239C558.701 154.882 559.013 153.413 559.011 151.927C558.787 148.836 555.933 146.59 553.073 145.4C550.213 144.21 547.046 143.628 544.525 141.817C540.27 138.759 538.951 133.045 538.568 127.817C538.305 124.227 538.331 120.622 538.644 117.036C539.111 111.718 540.148 106.049 537.781 101.263C535.253 96.1444 529.584 93.5402 524.344 91.3135C522.328 90.4561 520.255 89.5923 518.067 89.4963C515.75 89.3939 513.498 90.1362 511.31 90.9232C507.829 92.1325 504.271 93.6937 500.707 94.5128C498.692 94.9735 496.478 94.6279 494.533 95.3574C487.386 98.0448 490.668 107.988 490.668 113.74Z" fill="black"/>
<path d="M490.668 112.979C490.662 113.772 490.797 114.561 491.065 115.308C491.509 116.157 492.116 116.912 492.85 117.528C495.704 120.318 498.212 123.632 499.217 127.497C499.895 130.114 499.856 132.853 499.818 135.559C499.652 146.507 499.178 158.325 492.434 166.912C489.952 170.079 486.752 172.594 483.751 175.275C483.332 175.582 483.013 176.008 482.836 176.497C482.753 177.018 482.853 177.551 483.118 178.007C484.513 180.906 487.45 182.685 490.233 184.297C491.513 185.033 492.844 185.794 494.315 185.839C497.783 185.954 500.074 182.288 503.229 180.848C507.823 178.749 512.973 181.667 517.536 183.843C520.837 185.414 524.3 186.622 527.863 187.445C532.745 188.571 538.261 188.846 542.368 185.986C544.743 184.313 546.365 181.774 546.886 178.916C547.218 177.054 547.167 174.891 548.575 173.631C549.304 172.991 550.296 172.709 551.077 172.133C552.299 171.238 552.875 169.734 553.393 168.294L558.09 155.452C558.695 154.095 559.007 152.626 559.005 151.14C558.781 148.049 555.927 145.803 553.067 144.613C550.207 143.423 547.039 142.841 544.518 141.03C540.263 137.972 538.945 132.258 538.561 127.03C538.299 123.44 538.325 119.835 538.638 116.248C539.105 110.931 540.142 105.262 537.774 100.476C535.247 95.3573 529.578 92.7531 524.337 90.5264C522.322 89.669 520.249 88.8052 518.06 88.7092C515.744 88.6068 513.492 89.3491 511.303 90.1361C507.823 91.3454 504.265 92.9066 500.701 93.7257C498.686 94.1863 496.472 93.8408 494.527 94.5703C487.386 97.3024 490.668 107.227 490.668 112.979Z" fill="#784A06"/>
<path opacity="0.05" d="M475.299 217.039C475.299 217.039 478.338 216.315 493.592 214.012C508.846 211.709 535.535 217.064 535.535 217.064" fill="black"/>
<defs>
<linearGradient id="paint0_linear" x1="309.973" y1="397.669" x2="309.973" y2="0" gradientUnits="userSpaceOnUse">
<stop stop-color="#808080" stop-opacity="0.25"/>
<stop offset="0.54" stop-color="#808080" stop-opacity="0.12"/>
<stop offset="1" stop-color="#808080" stop-opacity="0.1"/>
</linearGradient>
<linearGradient id="paint1_linear" x1="-13501.2" y1="11549.3" x2="-13501.2" y2="9351.71" gradientUnits="userSpaceOnUse">
<stop stop-color="#808080" stop-opacity="0.25"/>
<stop offset="0.54" stop-color="#808080" stop-opacity="0.12"/>
<stop offset="1" stop-color="#808080" stop-opacity="0.1"/>
</linearGradient>
<linearGradient id="paint2_linear" x1="239070" y1="312295" x2="239070" y2="72373.5" gradientUnits="userSpaceOnUse">
<stop stop-color="#808080" stop-opacity="0.25"/>
<stop offset="0.54" stop-color="#808080" stop-opacity="0.12"/>
<stop offset="1" stop-color="#808080" stop-opacity="0.1"/>
</linearGradient>
</defs>
</svg>
