<svg width="701" height="511" viewBox="0 0 701 511" fill="none" xmlns="http://www.w3.org/2000/svg">
<g opacity="0.1">
<path opacity="0.1" d="M43.4671 76.3794C49.9936 87.7368 46.3784 102.479 39.2889 113.491C32.1993 124.503 22.1152 133.243 14.2578 143.75C-1.36105 164.711 -5.39853 197.811 14.2962 215.036C18.5384 218.747 23.7852 221.684 26.3702 226.687C29.9406 233.591 27.298 241.91 24.6042 249.223L24.3803 249.825C14.2002 277.421 29.1984 308.007 57.3071 316.664C72.862 321.456 86.9004 329.224 97.2916 341.784C106.371 352.764 111.618 366.31 117.607 379.235C128.433 402.583 142.408 424.908 161.718 441.909C181.029 458.91 206.227 470.177 231.949 469.25C290.7 467.132 333.961 405.264 392.655 402.007C396.884 401.771 401.389 401.931 404.927 404.26C409.918 407.549 411.447 414.005 413.546 419.616C424.66 449.325 458.124 463.017 488.089 473.421L544.396 492.988C574.981 503.61 607.102 514.391 639.094 509.471C671.087 504.55 702.325 478.278 700.936 445.927C699.797 419.354 677.773 395.967 680.659 369.522C682.655 351.248 696.342 335.898 698.633 317.655C701.019 298.671 690.641 280.442 678.695 265.495C644.322 222.471 595.335 194.113 547.525 166.759C513.849 147.486 480.001 128.137 443.747 114.291C354.372 80.2442 256.142 81.7094 160.931 72.4187C144.558 70.8191 127.442 68.9379 112.437 61.7012C100.92 56.1473 91.9168 43.3054 79.2797 40.586C69.6499 38.5129 55.4068 42.7935 46.9991 47.4709C31.6746 56.0577 35.8976 63.2049 43.4671 76.3794Z" fill="#D8890B"/>
</g>
<path d="M633.092 0H118.848C116.494 0.0100564 114.165 0.484068 111.994 1.39494C109.822 2.3058 107.852 3.63566 106.195 5.30848C104.539 6.98129 103.228 8.96426 102.338 11.144C101.448 13.3237 100.997 15.6575 101.009 18.0119V379.657C100.997 382.012 101.448 384.345 102.338 386.525C103.228 388.705 104.539 390.688 106.195 392.361C107.852 394.033 109.822 395.363 111.994 396.274C114.165 397.185 116.494 397.659 118.848 397.669H633.092C635.447 397.659 637.776 397.185 639.947 396.274C642.118 395.363 644.088 394.033 645.745 392.361C647.402 390.688 648.713 388.705 649.603 386.525C650.492 384.345 650.944 382.012 650.931 379.657V18.0119C650.944 15.6575 650.492 13.3237 649.603 11.144C648.713 8.96426 647.402 6.98129 645.745 5.30848C644.088 3.63566 642.118 2.3058 639.947 1.39494C637.776 0.484068 635.447 0.0100564 633.092 0Z" fill="url(#paint0_linear)"/>
<path d="M648.609 38.3145V375.345C648.609 380.035 646.745 384.533 643.429 387.85C640.112 391.167 635.614 393.03 630.923 393.03H121.222C116.532 393.03 112.033 391.167 108.717 387.85C105.4 384.533 103.537 380.035 103.537 375.345V38.3145H648.609Z" fill="#F6F7F9" fill-opacity="0.5"/>
<path d="M236.684 212.028V393.024H121.222C111.458 393.024 103.537 384.949 103.537 374.993V212.028H236.684Z" fill="#DDE1EC" fill-opacity="0.5"/>
<path d="M498.128 79.5786H276.214V85.8172H498.128V79.5786Z" fill="#DDE1EC"/>
<path d="M410.052 123.959H276.214V130.198H410.052V123.959Z" fill="#DDE1EC"/>
<path d="M484.953 123.959H439.876V130.198H484.953V123.959Z" fill="#DDE1EC"/>
<g opacity="0.1">
<path opacity="0.1" d="M189.527 279.642H144.449V285.88H189.527V279.642Z" fill="#D8890B"/>
</g>
<path d="M484.953 182.211H439.876V188.45H484.953V182.211Z" fill="#DDE1EC"/>
<path d="M484.953 240.463H439.876V246.702H484.953V240.463Z" fill="#DDE1EC"/>
<path d="M484.953 143.378H439.876V149.617H484.953V143.378Z" fill="#DDE1EC"/>
<path d="M562.619 143.378H517.541V149.617H562.619V143.378Z" fill="#DDE1EC"/>
<path d="M484.953 162.792H439.876V169.03H484.953V162.792Z" fill="#DDE1EC"/>
<path d="M562.619 162.792H517.541V169.03H562.619V162.792Z" fill="#DDE1EC"/>
<path d="M562.619 198.854H517.541V205.092H562.619V198.854Z" fill="#DDE1EC"/>
<path d="M562.619 218.273H517.541V224.512H562.619V218.273Z" fill="#DDE1EC"/>
<path d="M562.619 259.883H517.541V266.121H562.619V259.883Z" fill="#DDE1EC"/>
<path d="M410.052 143.378H276.214V149.617H410.052V143.378Z" fill="#DDE1EC"/>
<path d="M410.052 162.792H276.214V169.03H410.052V162.792Z" fill="#DDE1EC"/>
<path d="M410.052 182.211H276.214V188.45H410.052V182.211Z" fill="#DDE1EC"/>
<path d="M410.052 201.631H276.214V207.869H410.052V201.631Z" fill="#DDE1EC"/>
<path d="M410.052 221.044H276.214V227.283H410.052V221.044Z" fill="#DDE1EC"/>
<path d="M410.052 240.463H276.214V246.702H410.052V240.463Z" fill="#DDE1EC"/>
<path d="M410.052 259.883H276.214V266.121H410.052V259.883Z" fill="#DDE1EC"/>
<path d="M236.684 37.9688H103.537V215.496H236.684V37.9688Z" fill="#D8890B"/>
<path d="M648.609 20.2832C648.607 15.5938 646.743 11.097 643.427 7.78172C640.11 4.46642 635.613 2.604 630.923 2.604H121.222C116.532 2.604 112.033 4.4673 108.717 7.78398C105.4 11.1007 103.537 15.5991 103.537 20.2896V40.4002H648.609V20.2832Z" fill="#E8EAF1" fill-opacity="0.5"/>
<path d="M125.036 28.2622C128.866 28.2622 131.972 25.1568 131.972 21.3262C131.972 17.4955 128.866 14.3901 125.036 14.3901C121.205 14.3901 118.1 17.4955 118.1 21.3262C118.1 25.1568 121.205 28.2622 125.036 28.2622Z" fill="#FF5252"/>
<path d="M147.917 28.2622C151.747 28.2622 154.853 25.1568 154.853 21.3262C154.853 17.4955 151.747 14.3901 147.917 14.3901C144.086 14.3901 140.981 17.4955 140.981 21.3262C140.981 25.1568 144.086 28.2622 147.917 28.2622Z" fill="#FFFF00"/>
<path d="M170.804 28.2622C174.635 28.2622 177.74 25.1568 177.74 21.3262C177.74 17.4955 174.635 14.3901 170.804 14.3901C166.974 14.3901 163.868 17.4955 163.868 21.3262C163.868 25.1568 166.974 28.2622 170.804 28.2622Z" fill="#69F0AE"/>
<path d="M208.952 126.736C208.965 135.63 205.909 144.256 200.302 151.159C200.09 151.421 199.879 151.677 199.662 151.933C199.619 151.977 199.581 152.024 199.547 152.074C197.56 154.373 195.312 156.432 192.847 158.21L192.527 158.447C192.086 158.76 191.638 159.087 191.184 159.355L190.87 159.554L190.198 159.97C190.099 160.033 189.997 160.09 189.891 160.142C189.808 160.202 189.72 160.256 189.629 160.302C188.644 160.878 187.626 161.409 186.583 161.896C186.468 161.96 186.34 162.011 186.218 162.068C186.097 162.126 185.956 162.196 185.815 162.248C185.675 162.299 185.399 162.433 185.175 162.516C182.941 163.462 180.62 164.191 178.246 164.692C175.983 165.176 173.681 165.457 171.367 165.53H171.016H170.101C167.048 165.541 164.004 165.191 161.034 164.487L160.477 164.353C159.172 164.011 157.892 163.615 156.638 163.163C155.877 162.881 155.122 162.574 154.386 162.248C154.2 162.164 154.021 162.088 153.835 161.998L153.279 161.749L152.793 161.499L152.281 161.237L151.711 160.936L151.071 160.571L150.969 160.514C148.241 158.966 145.711 157.095 143.431 154.94C143.239 154.755 143.041 154.576 142.856 154.377C142.67 154.179 142.452 153.981 142.261 153.776C137.828 149.211 134.585 143.628 132.817 137.516C131.049 131.404 130.809 124.951 132.12 118.725C133.43 112.499 136.25 106.691 140.332 101.81C144.414 96.9295 149.632 93.1267 155.529 90.7361C161.425 88.3455 167.818 87.4402 174.147 88.1C180.475 88.7597 186.544 90.9643 191.82 94.5198C197.097 98.0752 201.418 102.873 204.406 108.49C207.393 114.108 208.954 120.373 208.952 126.736Z" fill="white"/>
<path d="M191.958 142.291V142.342L192.003 142.387C191.99 142.348 191.971 142.323 191.958 142.291ZM152.825 161.486C152.761 160.59 152.697 159.784 152.639 159.093C152.594 158.607 152.549 158.172 152.511 157.813C152.507 157.797 152.507 157.779 152.511 157.762C152.511 157.673 152.511 157.589 152.511 157.506C151.894 158.448 151.388 159.457 151.001 160.514L151.103 160.571L151.743 160.936L152.313 161.237L152.825 161.499C152.825 161.785 152.846 162.083 152.888 162.395C152.856 162.088 152.844 161.793 152.825 161.505V161.486ZM161.341 124.906L161.373 124.963C161.375 124.978 161.375 124.993 161.373 125.008C161.367 124.979 161.357 124.951 161.341 124.925V124.906Z" fill="url(#paint1_linear)"/>
<path d="M172.481 118.373C172.481 118.373 170.171 128.751 176.518 134.235C182.866 139.719 161.527 144.012 157.764 139.424C154.002 134.836 160.375 132.495 160.375 132.495C160.375 132.495 163.574 129.897 160.375 122.116L172.481 118.373Z" fill="#E0C07E"/>
<path d="M178.24 164.705C175.976 165.189 173.674 165.47 171.361 165.543H171.009H170.094C167.043 165.549 164.002 165.194 161.034 164.487L160.477 164.353C159.172 164.011 157.892 163.615 156.638 163.163L155.998 153.565L158.775 140.275L160.407 132.443L160.867 130.255L161.335 130.895L161.437 131.036L161.565 131.202L166.684 138.016L171.924 132.373L172.193 132.079L173.633 130.524L174.176 129.941L174.432 131.919L175.354 139.027L177.062 152.138L178.24 164.705Z" fill="#F0F1F5"/>
<path opacity="0.1" d="M192.521 158.447C192.08 158.76 191.632 159.087 191.177 159.356L190.864 159.554L190.192 159.97C190.093 160.033 189.99 160.09 189.885 160.143C189.802 160.202 189.714 160.256 189.622 160.302C188.213 159.1 187.154 157.539 186.558 155.785C186.482 155.562 186.418 155.336 186.366 155.107C186.363 155.071 186.363 155.034 186.366 154.998L186.001 155.958L184.881 158.728C184.881 158.728 185.214 160.085 185.809 162.235C185.6 162.333 185.387 162.423 185.169 162.504C182.934 163.45 180.614 164.178 178.239 164.679C175.976 165.164 173.674 165.444 171.361 165.517H171.009C170.686 162.543 170.572 159.55 170.67 156.559L171.515 140.454L171.943 132.328L172.18 127.849C172.18 127.849 172.263 127.939 172.423 128.086C172.583 128.233 172.692 128.342 172.884 128.515C175.74 131.01 179.337 132.496 183.122 132.744C184.167 132.774 185.191 133.045 186.114 133.535C187.037 134.026 187.835 134.723 188.445 135.572C189.602 137.216 190.345 139.115 190.614 141.107L190.806 142.866L190.857 143.366L190.928 144.005L192.521 158.447Z" fill="black"/>
<path d="M192.841 158.217L192.521 158.453C192.08 158.767 191.632 159.093 191.177 159.362L190.864 159.56L190.192 159.976C188.687 158.767 187.541 157.169 186.878 155.357C186.847 155.282 186.821 155.205 186.801 155.126C186.73 154.902 186.666 154.666 186.615 154.435L186.353 155.12L185.995 156.048L185.176 158.185C185.176 158.185 185.553 159.72 186.218 162.088C186.084 162.152 185.956 162.216 185.815 162.267C185.675 162.318 185.399 162.453 185.176 162.536C182.941 163.482 180.62 164.21 178.246 164.711C175.983 165.196 173.681 165.476 171.367 165.549C170.994 162.382 170.859 159.191 170.964 156.003L171.783 140.397L172.218 132.079L172.43 128.156L172.468 127.344C172.502 127.382 172.538 127.418 172.577 127.453C175.524 130.282 179.377 131.98 183.454 132.245C184.485 132.275 185.495 132.538 186.408 133.016C187.322 133.494 188.115 134.173 188.727 135.003C189.915 136.661 190.68 138.586 190.953 140.608L191.293 143.762V143.807L191.363 144.447L192.841 158.217Z" fill="#584829"/>
<path opacity="0.1" d="M161.731 129.295V129.686L161.629 131.17L161.271 136.251C161.271 136.251 161.059 137.716 160.906 141.018C160.682 145.369 160.548 152.906 161.066 164.5L160.509 164.366C159.204 164.025 157.924 163.628 156.67 163.176C155.909 162.894 155.154 162.587 154.418 162.261C154.232 162.177 154.053 162.101 153.867 162.011C153.682 159.452 153.458 157.884 153.458 157.884C153.458 157.884 153.285 158.102 153.023 158.524C152.914 158.697 152.78 158.908 152.639 159.164L152.607 159.221C152.483 159.435 152.351 159.678 152.21 159.951C152.05 160.271 151.89 160.591 151.737 160.994L151.097 160.629L150.995 160.571C148.267 159.024 145.736 157.152 143.457 154.998C144.487 151.37 145.377 147.723 145.697 147.256C146.89 145.423 147.806 143.425 148.416 141.325C148.842 139.898 149.58 138.584 150.576 137.478C151.572 136.371 152.801 135.5 154.175 134.926C157.045 133.581 159.612 131.665 161.718 129.295H161.731Z" fill="black"/>
<path d="M161.738 129.116C159.261 131.213 156.502 132.951 153.541 134.28C152.167 134.853 150.938 135.725 149.942 136.831C148.946 137.938 148.209 139.252 147.782 140.678C147.173 142.778 146.256 144.777 145.063 146.61C144.75 147.077 143.854 150.73 142.824 154.365C143.009 154.557 143.207 154.742 143.399 154.928C145.679 157.082 148.209 158.953 150.937 160.501L151.039 160.558C151.413 159.607 151.884 158.698 152.447 157.845L152.479 157.794C152.703 157.462 152.844 157.282 152.844 157.282C152.844 157.282 152.901 157.705 152.984 158.466C153.068 159.228 153.176 160.386 153.279 161.729L153.835 161.979C154.015 162.069 154.194 162.145 154.386 162.228C155.122 162.555 155.877 162.868 156.638 163.143C157.879 163.6 159.159 163.997 160.477 164.334C159.952 152.855 160.068 145.292 160.279 140.832C160.445 137.236 160.669 135.643 160.669 135.643L161.482 130.972L161.712 129.654L161.821 129.014L161.738 129.116Z" fill="#584829"/>
<path opacity="0.1" d="M165.852 128.47C164.413 128.471 162.993 128.145 161.699 127.516C161.476 125.858 161.03 124.238 160.375 122.698L172.481 118.955C172.04 121.275 171.955 123.648 172.231 125.993C170.487 127.584 168.212 128.467 165.852 128.47Z" fill="black"/>
<path d="M165.852 127.894C171.107 127.894 175.367 123.634 175.367 118.379C175.367 113.125 171.107 108.865 165.852 108.865C160.597 108.865 156.337 113.125 156.337 118.379C156.337 123.634 160.597 127.894 165.852 127.894Z" fill="#E0C07E"/>
<g opacity="0.1">
<path opacity="0.1" d="M185.188 162.529C184.44 159.9 184.024 158.172 184.024 158.172L185.463 154.422C185.576 154.949 185.741 155.464 185.956 155.958L185.988 156.041L185.169 158.178C185.169 158.178 185.547 159.714 186.212 162.081C186.078 162.145 185.95 162.209 185.809 162.261C185.668 162.312 185.393 162.446 185.188 162.529Z" fill="black"/>
</g>
<path d="M196.418 144.613C196.418 144.613 195.554 136.25 196.418 132.213C197.282 128.175 186.327 132.789 188.631 138.266C189.863 141.302 191.409 144.202 193.244 146.917L196.418 144.613Z" fill="#E0C07E"/>
<path opacity="0.1" d="M199.54 152.074C197.553 154.373 195.305 156.432 192.841 158.21L192.521 158.447C192.08 158.761 191.632 159.087 191.177 159.356C190.146 158.132 189.225 156.82 188.426 155.433L188.343 155.286L190.653 143.174L190.896 143.423C190.998 143.519 191.133 143.647 191.292 143.775H191.324C192.521 144.799 195.048 146.335 196.264 142.764C196.47 142.139 196.617 141.497 196.706 140.845L196.942 141.728L197.083 142.246L199.643 151.901L199.54 152.074Z" fill="black"/>
<path d="M199.54 152.074C197.554 154.373 195.305 156.432 192.841 158.21L192.521 158.447C192.08 158.76 191.632 159.087 191.177 159.355L190.864 159.554C189.926 158.39 189.083 157.154 188.343 155.855L188.426 155.427L190.653 143.743C190.653 143.743 190.768 143.877 190.966 144.063L191.363 144.415C191.529 144.556 191.721 144.709 191.932 144.85C193.257 145.759 195.272 146.443 196.296 143.25C196.485 142.657 196.622 142.049 196.706 141.433L197 142.521L199.54 152.074Z" fill="#584829"/>
<path opacity="0.02" d="M199.54 152.074C197.554 154.373 195.305 156.432 192.841 158.21L192.521 158.447C192.08 158.76 191.632 159.087 191.177 159.355L190.864 159.554C189.926 158.39 189.083 157.154 188.343 155.855L188.426 155.427L190.653 143.743C190.653 143.743 190.768 143.877 190.966 144.063L191.363 144.415C191.529 144.556 191.721 144.709 191.932 144.85C193.257 145.759 195.272 146.443 196.296 143.25C196.485 142.657 196.622 142.049 196.706 141.433L197 142.521L199.54 152.074Z" fill="black"/>
<path opacity="0.1" d="M152.511 157.82L152.479 157.871C152.479 157.839 152.479 157.801 152.479 157.775C152.882 156.374 153.247 155.427 153.573 155.146C153.573 155.146 154.002 157.993 154.386 162.261C154.2 162.177 154.021 162.101 153.835 162.011L153.279 161.762C153.183 160.386 153.08 159.266 152.984 158.498C152.888 157.731 152.844 157.315 152.844 157.315C152.844 157.315 152.735 157.487 152.511 157.82Z" fill="black"/>
<path opacity="0.1" d="M165.967 115.756C166.465 115.483 167.037 115.38 167.599 115.461C167.841 115.564 168.059 115.717 168.239 115.909C168.987 116.62 169.729 117.445 170.74 117.663C171.365 117.757 172.002 117.729 172.615 117.579C173.692 117.455 174.737 117.136 175.699 116.639C177.843 115.359 178.527 112.589 178.662 110.099C178.707 109.261 178.534 108.18 177.708 108.001C176.659 107.777 175.891 109.37 174.829 109.197C174.506 109.119 174.216 108.942 173.997 108.692C173.274 107.969 172.782 107.041 172.078 106.312C170.952 105.26 169.495 104.635 167.957 104.546C166.432 104.463 164.903 104.607 163.42 104.974C162.603 105.109 161.814 105.38 161.085 105.774C160.724 105.971 160.411 106.246 160.168 106.577C159.925 106.909 159.757 107.29 159.677 107.694C159.607 108.25 159.754 108.826 159.645 109.376C159.538 109.748 159.355 110.094 159.109 110.392C158.862 110.69 158.557 110.935 158.212 111.11C157.572 111.507 156.817 111.75 156.19 112.237C155.194 113.011 154.502 114.112 154.239 115.346C153.983 116.574 153.948 117.837 154.136 119.077C154.399 121.23 154.999 123.329 155.915 125.296C156.218 125.983 156.607 126.628 157.073 127.216C157.757 127.962 158.544 128.608 159.409 129.135C159.565 129.277 159.752 129.383 159.954 129.444C160.157 129.504 160.37 129.519 160.58 129.487C160.699 129.444 160.81 129.379 160.906 129.295C161.725 128.61 161.802 127.376 161.546 126.333C161.29 125.29 160.855 124.298 160.803 123.236C160.771 122.938 160.829 122.637 160.97 122.372C161.14 122.158 161.334 121.963 161.546 121.79C161.823 121.471 162.04 121.105 162.186 120.708C162.675 119.729 163.01 118.68 163.177 117.599C163.27 116.708 163.075 115.811 162.621 115.039C163.06 115.452 163.604 115.738 164.194 115.864C164.784 115.99 165.397 115.953 165.967 115.756Z" fill="black"/>
<path d="M165.967 115.423C166.465 115.15 167.037 115.047 167.599 115.129C167.841 115.231 168.059 115.384 168.239 115.577C168.987 116.287 169.729 117.113 170.74 117.33C171.365 117.425 172.002 117.397 172.615 117.247C173.692 117.122 174.737 116.804 175.699 116.306C177.843 115.027 178.527 112.256 178.662 109.767C178.707 108.929 178.534 107.847 177.708 107.668C176.659 107.444 175.891 109.038 174.829 108.865C174.506 108.786 174.216 108.61 173.997 108.359C173.274 107.636 172.782 106.708 172.078 105.979C170.952 104.927 169.495 104.303 167.957 104.213C166.432 104.13 164.903 104.275 163.42 104.642C162.603 104.777 161.814 105.047 161.085 105.442C160.724 105.639 160.411 105.913 160.168 106.245C159.925 106.577 159.757 106.958 159.677 107.361C159.607 107.918 159.754 108.494 159.645 109.044C159.538 109.416 159.355 109.761 159.109 110.06C158.862 110.358 158.557 110.602 158.212 110.778C157.572 111.175 156.817 111.418 156.19 111.904C155.194 112.678 154.502 113.78 154.239 115.014C153.983 116.241 153.948 117.504 154.136 118.744C154.399 120.898 154.999 122.997 155.915 124.964C156.218 125.65 156.607 126.295 157.073 126.883C157.757 127.63 158.544 128.276 159.409 128.803C159.565 128.945 159.752 129.05 159.954 129.111C160.157 129.172 160.37 129.187 160.58 129.155C160.699 129.112 160.81 129.046 160.906 128.963C161.725 128.278 161.802 127.043 161.546 126C161.29 124.957 160.855 123.965 160.803 122.903C160.771 122.605 160.829 122.304 160.97 122.039C161.14 121.825 161.334 121.63 161.546 121.457C161.823 121.138 162.04 120.772 162.186 120.376C162.675 119.397 163.01 118.348 163.177 117.266C163.27 116.375 163.075 115.478 162.621 114.707C163.06 115.12 163.604 115.405 164.194 115.531C164.784 115.658 165.397 115.62 165.967 115.423Z" fill="#463E3B"/>
<path d="M113.614 362.381C122.516 362.381 129.732 359.731 129.732 356.463C129.732 353.194 122.516 350.544 113.614 350.544C104.713 350.544 97.4963 353.194 97.4963 356.463C97.4963 359.731 104.713 362.381 113.614 362.381Z" fill="#CD9494"/>
<path opacity="0.05" d="M113.614 358.823C118.155 358.823 121.836 357.471 121.836 355.803C121.836 354.135 118.155 352.783 113.614 352.783C109.073 352.783 105.392 354.135 105.392 355.803C105.392 357.471 109.073 358.823 113.614 358.823Z" fill="black"/>
<path d="M97.49 355.164C97.49 355.164 115.252 365.03 129.726 356.482C129.726 356.482 127.755 390.695 117.882 393.983H104.733C104.733 393.983 93.5485 370.93 97.49 355.164Z" fill="#FF7361"/>
<path d="M127.531 292.458C132.055 308.985 112.77 356.066 112.77 356.066C112.77 356.066 72.2093 325.353 67.6855 308.832C65.5142 300.896 66.5844 292.422 70.6607 285.275C74.7369 278.128 81.4854 272.893 89.4214 270.722C97.3574 268.551 105.831 269.621 112.978 273.697C120.125 277.773 125.36 284.522 127.531 292.458Z" fill="#D8890B"/>
<path opacity="0.1" d="M127.531 292.458C132.055 308.985 112.77 356.066 112.77 356.066C112.77 356.066 72.2093 325.353 67.6855 308.832C65.5142 300.896 66.5844 292.422 70.6607 285.275C74.7369 278.128 81.4854 272.893 89.4214 270.722C97.3574 268.551 105.831 269.621 112.978 273.697C120.125 277.773 125.36 284.522 127.531 292.458Z" fill="black"/>
<path d="M89.5877 270.812C89.5877 270.812 114.836 308.928 112.936 356.149" stroke="#535461" stroke-miterlimit="10"/>
<path d="M133.974 322.659C133.974 322.659 111.055 310.201 113.979 356.181C113.979 356.181 133.079 355.496 139.855 339.916C141.179 336.886 141.346 333.476 140.325 330.331C139.304 327.186 137.165 324.525 134.314 322.851L133.974 322.659Z" fill="#D8890B"/>
<path d="M134.352 322.736C134.352 322.736 131.396 346.602 113.979 356.181" stroke="#535461" stroke-miterlimit="10"/>
<path opacity="0.05" d="M127.576 357.576C126.936 365.446 124.178 389.889 115.918 392.646H104.125C104.503 393.484 104.733 393.964 104.733 393.964H117.895C127.755 390.669 129.732 356.443 129.732 356.443C129.033 356.857 128.313 357.235 127.576 357.576Z" fill="black"/>
<path d="M410.052 302.529H276.214V380.201H410.052V302.529Z" fill="#DDE1EC" fill-opacity="0.5"/>
<path d="M629.867 149.22C629.884 148.969 629.884 148.716 629.867 148.465C629.637 145.343 626.668 143.084 623.725 141.881C620.782 140.678 617.493 140.089 614.889 138.266C610.486 135.182 609.13 129.417 608.733 124.144C608.612 122.506 608.56 120.868 608.554 119.224C608.548 117.579 608.656 115.762 608.81 114.035C609.066 111.168 609.488 108.199 609.45 105.326C609.599 102.585 609.072 99.8491 607.914 97.3599C605.304 92.2027 599.442 89.5665 594.016 87.3206C591.931 86.4568 589.793 85.5802 587.528 85.4842C585.135 85.3819 582.806 86.1561 580.541 86.9239C576.945 88.1396 573.298 89.7201 569.58 90.5455C567.495 91.0062 565.21 90.6607 563.182 91.3965C559.202 92.8554 558.351 96.4321 558.415 100.354C558.415 100.604 558.415 100.847 558.415 101.097C558.018 100.732 557.609 100.386 557.193 100.054L556.95 99.8618C556.523 99.5162 556.069 99.1899 555.587 98.8828L555.357 98.7356C554.379 98.1019 553.354 97.5436 552.292 97.0656L552.132 96.9952C551.598 96.7606 551.057 96.5473 550.506 96.3554L550.404 96.317C549.265 95.92 548.097 95.6119 546.91 95.3956C543.172 94.7027 539.32 94.9365 535.693 96.0765C532.065 97.2165 528.773 99.2279 526.102 101.935L521.707 106.414C501.724 101.935 500.828 119.294 500.828 119.294L500.975 119.262L500.924 119.384C501.379 121.58 501.954 123.751 502.645 125.885L348.332 283.5L332.732 331.847L341.492 328.725L381.508 314.43L524.797 168.057C535.521 175.678 546.667 185.89 546.667 185.89C546.667 185.89 539.757 189.544 542.316 206.282C545.445 226.758 540.742 255.903 540.742 255.903V274.753L541.625 274.51C541.516 275.15 541.401 275.79 541.293 276.525C539.835 285.996 539.65 295.62 540.742 305.14C543.11 325.141 552.567 352.45 552.567 352.45C552.567 352.45 556.112 362.048 556.905 369.758C557.03 371.281 557.37 372.778 557.916 374.205C559.695 378.435 560.634 382.971 560.68 387.559C560.68 395.928 561.774 408.489 566.759 421.305C570.758 431.594 572.236 437.621 572.677 441.141C569.843 444.89 566.138 448.979 563.214 449.388C557.698 450.156 547.051 450.924 554.147 460.157C554.395 460.474 554.671 460.767 554.973 461.034C549.585 461.904 543.66 463.823 549.419 471.31C556.515 480.543 598.297 476.313 598.297 476.313C598.297 476.313 598.566 471.194 598.297 465.551C601.228 465.346 603.038 465.161 603.038 465.161C603.038 465.161 604.222 442.849 599.097 440.155C598.15 440.258 597.22 440.487 596.333 440.833C595.782 437.749 595.36 433.917 595.098 431.076L597.126 430.922V397.458C597.126 397.458 594.759 376.688 586.089 367.455C584.983 366.302 584.031 365.012 583.254 363.616C583.318 360.948 583.325 357.217 583.293 352.911C583.637 352.329 584.047 351.788 584.515 351.299C584.515 351.299 589.243 345.54 605.406 308.985C614.94 287.428 612.815 274.983 609.469 268.393C608.829 266.051 607.165 259.364 604.99 247.054C602.232 231.281 605.387 215.893 605.387 215.893C605.387 215.893 615.624 189.352 620.366 178.583C621.464 175.989 621.92 173.169 621.697 170.361C622.931 169.459 623.527 167.955 624.058 166.522L628.914 153.565C629.439 152.163 629.976 150.705 629.861 149.214L629.867 149.22ZM563.911 125.891C564.439 126.714 565.027 127.497 565.671 128.233C565.671 128.233 564.948 127.478 563.751 126.262C563.809 126.141 563.86 126.013 563.911 125.891ZM540.032 152.49L553.399 138.835C558.018 143.058 562.964 147.371 567.098 150.922C566.704 152.742 566.182 154.531 565.537 156.278C563.745 157.167 561.378 157.455 558.498 155.887C553.936 153.424 545.516 152.694 540.032 152.49Z" fill="url(#paint2_linear)"/>
<path d="M529.276 102.102C529.276 102.102 519.365 107.822 522.417 115.858C522.417 115.858 532.712 118.911 536.903 126.538C541.094 134.165 573.509 161.614 573.509 161.614L597.145 149.771C597.145 149.771 588.923 138.791 562.913 131.125C562.913 131.125 547.557 114.687 542.239 111.642C536.922 108.596 529.276 102.102 529.276 102.102Z" fill="#101D2C"/>
<path opacity="0.05" d="M529.276 102.102C529.276 102.102 519.365 107.822 522.417 115.858C522.417 115.858 532.712 118.911 536.903 126.538C541.094 134.165 573.509 161.614 573.509 161.614L597.145 149.771C597.145 149.771 588.923 138.791 562.913 131.125C562.913 131.125 547.557 114.687 542.239 111.642C536.922 108.596 529.276 102.102 529.276 102.102Z" fill="black"/>
<path d="M352.676 285.017L524.656 104.981C528.721 100.732 534.306 98.2696 540.184 98.1352C546.063 98.0008 551.755 100.205 556.009 104.264C560.258 108.329 562.72 113.914 562.855 119.792C562.989 125.671 560.785 131.363 556.726 135.617L384.771 315.678L337.589 332.954L352.676 285.017Z" fill="#D8890B"/>
<path opacity="0.1" d="M546.635 101.071C550.884 105.136 553.347 110.721 553.481 116.599C553.615 122.478 551.411 128.17 547.352 132.424L375.378 312.46L339.956 325.417L337.563 332.941L384.746 315.665L556.745 135.694C560.804 131.439 563.008 125.748 562.874 119.869C562.74 113.99 560.277 108.405 556.028 104.341C552.485 100.946 547.913 98.8277 543.033 98.3198C544.324 99.1121 545.531 100.034 546.635 101.071Z" fill="white"/>
<path d="M352.676 285.023L384.772 315.678L346.06 329.845L337.589 332.942L342.957 315.902L352.676 285.023Z" fill="#EFC8C4"/>
<path d="M342.957 315.896C344.132 316.124 345.252 316.574 346.259 317.22C347.423 318.059 348.268 319.511 347.948 320.906C347.633 321.775 347.184 322.589 346.617 323.318C346.039 324.294 345.688 325.388 345.592 326.518C345.496 327.648 345.656 328.785 346.06 329.845L337.563 332.942L342.957 315.896Z" fill="#001B34"/>
<path d="M591.047 427.339C591.047 427.339 592.193 444.116 594.1 446.023C596.006 447.93 576.939 449.075 576.939 449.075L579.607 427.32L591.047 427.339Z" fill="#FFF1B9"/>
<path opacity="0.05" d="M591.047 427.339C591.047 427.339 592.193 444.116 594.1 446.023C596.006 447.93 576.939 449.075 576.939 449.075L579.607 427.32L591.047 427.339Z" fill="black"/>
<path d="M595.239 440.303C595.239 440.303 592.57 440.303 583.037 445.262C583.037 445.262 576.555 444.116 573.887 434.966C573.887 434.966 565.882 448.691 560.539 449.453C555.197 450.214 544.908 450.975 551.767 460.132C558.626 469.288 599.046 465.091 599.046 465.091C599.046 465.091 600.197 442.971 595.239 440.303Z" fill="#CBCDDA"/>
<path opacity="0.05" d="M595.239 440.303C595.239 440.303 592.57 440.303 583.037 445.262C583.037 445.262 576.555 444.116 573.887 434.966C573.887 434.966 565.882 448.691 560.539 449.453C555.197 450.214 544.908 450.975 551.767 460.132C558.626 469.288 599.046 465.091 599.046 465.091C599.046 465.091 600.197 442.971 595.239 440.303Z" fill="black"/>
<path d="M589.518 453.266L586.85 460.509L569.312 455.55L570.31 448.358L570.553 446.624L571.193 441.825C571.193 441.825 586.063 437.986 586.063 439.906C586.264 441.478 586.592 443.031 587.042 444.551C587.682 446.893 588.418 449.567 588.962 451.327C589.294 452.504 589.518 453.266 589.518 453.266Z" fill="#FFF1B9"/>
<path d="M579.952 353.826C578.75 355.861 577.393 359.675 579.92 364.435C580.668 365.813 581.589 367.09 582.659 368.236C591.048 377.386 593.338 397.976 593.338 397.976V431.146L587.618 431.588L578.468 432.292L564.711 375.869C564.711 375.869 556.707 334.688 560.52 327.445C564.334 320.202 567.763 274.83 567.763 274.83L570.931 271.554L578.442 263.773H600.197C601.936 265.021 603.38 266.635 604.427 268.502C608.074 274.542 611.35 287.102 601.343 310.291C585.711 346.513 581.136 352.233 581.136 352.233C580.683 352.718 580.286 353.252 579.952 353.826Z" fill="#78694C"/>
<path opacity="0.05" d="M579.952 353.826C578.75 355.861 577.393 359.675 579.92 364.435C580.668 365.813 581.589 367.09 582.659 368.236C591.048 377.386 593.338 397.976 593.338 397.976V431.146L587.618 431.588L578.468 432.292L564.711 375.869C564.711 375.869 556.707 334.688 560.52 327.445C564.334 320.202 567.763 274.83 567.763 274.83L570.931 271.554L578.442 263.773H600.197C601.936 265.021 603.38 266.635 604.427 268.502C608.074 274.542 611.35 287.102 601.343 310.291C585.711 346.513 581.136 352.233 581.136 352.233C580.683 352.718 580.286 353.252 579.952 353.826Z" fill="black"/>
<path opacity="0.1" d="M587.068 444.564L570.553 446.624L571.193 441.825C571.193 441.825 586.063 437.986 586.063 439.906C586.272 441.483 586.608 443.041 587.068 444.564Z" fill="black"/>
<path d="M578.846 304.948C578.846 304.948 579.793 334.964 579.953 353.826C579.985 358.094 579.953 361.793 579.921 364.435C579.943 365.837 579.84 367.237 579.613 368.62C578.468 372.05 580.759 379.677 580.759 379.677C590.293 404.842 587.624 426.955 587.624 426.955V443.732L569.312 446.023C569.312 446.023 572.364 443.732 563.975 421.619C559.157 408.911 558.114 396.466 558.095 388.167C558.051 383.627 557.143 379.136 555.42 374.935C554.902 373.515 554.583 372.029 554.474 370.52C553.712 362.893 550.282 353.359 550.282 353.359C550.282 353.359 541.133 326.287 538.842 306.458C537.785 297.02 537.963 287.485 539.373 278.093C539.71 275.706 540.17 273.338 540.749 270.997C540.749 270.997 578.02 247.54 592.097 263.754C593.459 265.338 594.541 267.143 595.296 269.091C596.069 271.013 596.671 273 597.094 275.029C601.42 296.566 578.846 304.948 578.846 304.948Z" fill="#78694C"/>
<path d="M577.7 137.946C588.439 137.946 597.145 129.24 597.145 118.501C597.145 107.762 588.439 99.0557 577.7 99.0557C566.961 99.0557 558.255 107.762 558.255 118.501C558.255 129.24 566.961 137.946 577.7 137.946Z" fill="#FFF1B9"/>
<path d="M567.027 130.696C567.027 130.696 575.032 153.194 567.027 165.012C559.023 176.83 592.57 173.016 592.57 173.016L605.534 157.385C605.534 157.385 590.28 157.385 589.537 130.696C588.795 104.008 567.027 130.696 567.027 130.696Z" fill="#FFF1B9"/>
<path opacity="0.1" d="M605.534 272.917C602.769 273.874 599.926 274.587 597.037 275.048C592.289 275.777 586.69 275.809 583.414 272.917C581.495 271.202 576.689 270.997 570.943 271.541C558.844 272.699 542.463 277.217 539.328 278.106C539.666 275.719 540.125 273.35 540.704 271.01C540.704 271.01 577.975 247.553 592.052 263.767H600.185C601.924 265.014 603.368 266.629 604.414 268.495C605.124 271.528 605.534 272.917 605.534 272.917Z" fill="black"/>
<path opacity="0.1" d="M589.518 453.266L586.85 460.509L569.312 455.55L570.31 448.358C573.324 455.026 578.462 455.928 578.462 455.928C584.003 453.048 587.228 451.839 588.955 451.334C589.294 452.505 589.518 453.266 589.518 453.266Z" fill="black"/>
<path d="M590.664 451.359C590.664 451.359 587.995 451.359 578.462 456.318C578.462 456.318 571.98 455.173 569.312 446.023C569.312 446.023 561.307 459.748 555.964 460.509C550.622 461.271 540.333 462.019 547.198 471.188C554.064 480.357 594.477 476.147 594.477 476.147C594.477 476.147 595.623 454.028 590.664 451.359Z" fill="#CBCDDA"/>
<path d="M500.207 122.225C500.207 122.225 501.071 105.019 520.401 109.46L515.442 118.757L500.207 122.225Z" fill="#FFF1B9"/>
<path d="M590.305 161.966C590.305 161.966 571.622 158.914 566.663 155.101C566.663 155.101 562.824 162.344 555.984 158.53C549.143 154.717 533.109 155.101 533.109 155.101C533.109 155.101 519.761 147.858 517.112 131.458C517.112 131.458 514.444 121.547 515.193 118.879C515.193 118.879 505.282 108.583 500.323 122.308C502.242 131.842 503.752 131.081 503.375 138.701L509.473 155.478C509.473 155.478 509.856 161.199 520.913 168.826C531.97 176.453 544.556 188.271 544.556 188.271C544.556 188.271 537.882 191.892 540.365 208.477C543.391 228.748 538.842 257.663 538.842 257.663V276.347C538.842 276.347 576.971 265.29 583.452 271.01C589.934 276.731 605.566 271.01 605.566 271.01C605.566 271.01 603.646 264.529 600.991 248.897C598.335 233.265 601.375 218.011 601.375 218.011C601.375 218.011 611.286 191.7 615.861 181.028C620.436 170.355 612.431 155.862 604.42 150.526C596.409 145.189 593.434 148.395 593.434 148.395C593.434 148.395 607.441 158.537 590.305 161.966Z" fill="#101D2C"/>
<path opacity="0.1" d="M556.668 113.74C556.662 114.534 556.797 115.322 557.065 116.069C557.509 116.919 558.116 117.673 558.85 118.29C561.704 121.079 564.212 124.394 565.217 128.259C565.895 130.876 565.856 133.614 565.818 136.321C565.652 147.269 565.178 159.087 558.434 167.674C555.952 170.841 552.752 173.356 549.751 176.037C549.33 176.352 549.013 176.786 548.843 177.284C548.759 177.805 548.859 178.339 549.124 178.794C550.519 181.693 553.456 183.472 556.239 185.084C557.519 185.82 558.85 186.581 560.322 186.626C563.79 186.741 566.08 183.075 569.235 181.635C573.829 179.537 578.98 182.454 583.542 184.63C586.844 186.202 590.306 187.409 593.869 188.232C598.751 189.358 604.267 189.633 608.375 186.773C610.749 185.1 612.372 182.561 612.892 179.703C613.225 177.841 613.174 175.678 614.581 174.418C615.311 173.778 616.302 173.496 617.083 172.92C618.305 172.025 618.881 170.521 619.399 169.081L624.096 156.239C624.701 154.882 625.013 153.413 625.011 151.927C624.787 148.836 621.933 146.59 619.073 145.4C616.213 144.21 613.046 143.628 610.525 141.817C606.27 138.759 604.951 133.045 604.568 127.817C604.305 124.227 604.331 120.622 604.644 117.036C605.111 111.718 606.148 106.049 603.781 101.263C601.253 96.1444 595.584 93.5402 590.344 91.3135C588.328 90.4561 586.255 89.5923 584.067 89.4963C581.75 89.3939 579.498 90.1362 577.31 90.9232C573.829 92.1325 570.271 93.6937 566.707 94.5128C564.692 94.9735 562.478 94.6279 560.533 95.3574C553.386 98.0448 556.668 107.988 556.668 113.74Z" fill="black"/>
<path d="M556.668 112.979C556.662 113.772 556.797 114.561 557.065 115.308C557.509 116.157 558.116 116.912 558.85 117.528C561.704 120.318 564.212 123.632 565.217 127.497C565.895 130.114 565.856 132.853 565.818 135.559C565.652 146.507 565.178 158.325 558.434 166.912C555.952 170.079 552.752 172.594 549.751 175.275C549.332 175.582 549.013 176.008 548.836 176.497C548.753 177.018 548.853 177.551 549.118 178.007C550.513 180.906 553.45 182.684 556.233 184.297C557.513 185.033 558.844 185.794 560.315 185.839C563.783 185.954 566.074 182.288 569.229 180.848C573.823 178.749 578.973 181.667 583.536 183.843C586.837 185.414 590.3 186.622 593.863 187.445C598.745 188.571 604.261 188.846 608.368 185.986C610.743 184.313 612.365 181.774 612.886 178.916C613.218 177.054 613.167 174.891 614.575 173.631C615.304 172.991 616.296 172.709 617.077 172.133C618.299 171.238 618.875 169.734 619.393 168.294L624.09 155.452C624.695 154.095 625.007 152.626 625.005 151.14C624.781 148.049 621.927 145.803 619.067 144.613C616.207 143.423 613.039 142.841 610.518 141.03C606.263 137.972 604.945 132.258 604.561 127.03C604.299 123.44 604.325 119.835 604.638 116.248C605.105 110.931 606.142 105.262 603.774 100.476C601.247 95.3573 595.578 92.7531 590.337 90.5264C588.322 89.669 586.249 88.8052 584.06 88.7092C581.744 88.6068 579.492 89.3491 577.303 90.1361C573.823 91.3454 570.265 92.9066 566.701 93.7257C564.686 94.1863 562.472 93.8408 560.527 94.5703C553.386 97.3024 556.668 107.227 556.668 112.979Z" fill="#784A06"/>
<path opacity="0.05" d="M541.299 217.039C541.299 217.039 544.338 216.315 559.592 214.012C574.846 211.709 601.535 217.064 601.535 217.064" fill="black"/>
<defs>
<linearGradient id="paint0_linear" x1="375.973" y1="397.669" x2="375.973" y2="0" gradientUnits="userSpaceOnUse">
<stop stop-color="#808080" stop-opacity="0.25"/>
<stop offset="0.54" stop-color="#808080" stop-opacity="0.12"/>
<stop offset="1" stop-color="#808080" stop-opacity="0.1"/>
</linearGradient>
<linearGradient id="paint1_linear" x1="-13435.2" y1="11549.3" x2="-13435.2" y2="9351.71" gradientUnits="userSpaceOnUse">
<stop stop-color="#808080" stop-opacity="0.25"/>
<stop offset="0.54" stop-color="#808080" stop-opacity="0.12"/>
<stop offset="1" stop-color="#808080" stop-opacity="0.1"/>
</linearGradient>
<linearGradient id="paint2_linear" x1="239136" y1="312295" x2="239136" y2="72373.5" gradientUnits="userSpaceOnUse">
<stop stop-color="#808080" stop-opacity="0.25"/>
<stop offset="0.54" stop-color="#808080" stop-opacity="0.12"/>
<stop offset="1" stop-color="#808080" stop-opacity="0.1"/>
</linearGradient>
</defs>
</svg>
