<svg width="1297" height="1249" viewBox="0 0 1297 1249" fill="none" xmlns="http://www.w3.org/2000/svg">
<g clip-path="url(#clip0)">
<rect width="1079" height="728.856" transform="translate(0 686.71) rotate(-39.5263)" fill="white"/>
<rect y="686.71" width="13" height="894" transform="rotate(-39.5263 0 686.71)" fill="#704502"/>
<rect x="138.84" y="572.152" width="13" height="894" transform="rotate(-39.5263 138.84 572.152)" fill="#704502"/>
<rect x="69.4199" y="629.431" width="13" height="894" transform="rotate(-39.5263 69.4199 629.431)" fill="#704502"/>
<rect x="208.26" y="514.874" width="13" height="894" transform="rotate(-39.5263 208.26 514.874)" fill="#704502"/>
<rect x="347.1" y="400.316" width="13" height="894" transform="rotate(-39.5263 347.1 400.316)" fill="#704502"/>
<rect x="277.68" y="457.595" width="13" height="894" transform="rotate(-39.5263 277.68 457.595)" fill="#704502"/>
<rect x="415.748" y="343.673" width="13" height="894" transform="rotate(-39.5263 415.748 343.673)" fill="#704502"/>
<rect x="554.588" y="229.116" width="13" height="894" transform="rotate(-39.5263 554.588 229.116)" fill="#704502"/>
<rect x="485.168" y="286.394" width="13" height="894" transform="rotate(-39.5263 485.168 286.394)" fill="#704502"/>
<rect x="624.008" y="171.837" width="13" height="894" transform="rotate(-39.5263 624.008 171.837)" fill="#704502"/>
<rect x="762.848" y="57.2789" width="13" height="894" transform="rotate(-39.5263 762.848 57.2789)" fill="#704502"/>
<rect x="693.428" y="114.558" width="13" height="894" transform="rotate(-39.5263 693.428 114.558)" fill="#704502"/>
<rect x="59.3926" y="637.705" width="13" height="894" transform="rotate(-39.5263 59.3926 637.705)" fill="#47251B"/>
<rect x="10.0273" y="678.437" width="13" height="894" transform="rotate(-39.5263 10.0273 678.437)" fill="#47251B"/>
<rect x="198.232" y="523.147" width="13" height="894" transform="rotate(-39.5263 198.232 523.147)" fill="#47251B"/>
<rect x="148.867" y="563.879" width="13" height="894" transform="rotate(-39.5263 148.867 563.879)" fill="#47251B"/>
<rect x="128.812" y="580.426" width="13" height="894" transform="rotate(-39.5263 128.812 580.426)" fill="#47251B"/>
<rect x="79.4473" y="621.158" width="13" height="894" transform="rotate(-39.5263 79.4473 621.158)" fill="#47251B"/>
<rect x="267.653" y="465.868" width="13" height="894" transform="rotate(-39.5263 267.653 465.868)" fill="#47251B"/>
<rect x="218.287" y="506.6" width="13" height="894" transform="rotate(-39.5263 218.287 506.6)" fill="#47251B"/>
<rect x="406.492" y="351.31" width="13" height="894" transform="rotate(-39.5263 406.492 351.31)" fill="#47251B"/>
<rect x="357.127" y="392.042" width="13" height="894" transform="rotate(-39.5263 357.127 392.042)" fill="#47251B"/>
<rect x="337.073" y="408.589" width="13" height="894" transform="rotate(-39.5263 337.073 408.589)" fill="#47251B"/>
<rect x="287.707" y="449.321" width="13" height="894" transform="rotate(-39.5263 287.707 449.321)" fill="#47251B"/>
<rect x="475.141" y="294.668" width="13" height="894" transform="rotate(-39.5263 475.141 294.668)" fill="#47251B"/>
<rect x="425.776" y="335.4" width="13" height="894" transform="rotate(-39.5263 425.776 335.4)" fill="#47251B"/>
<rect x="613.981" y="180.11" width="13" height="894" transform="rotate(-39.5263 613.981 180.11)" fill="#47251B"/>
<rect x="564.616" y="220.842" width="13" height="894" transform="rotate(-39.5263 564.616 220.842)" fill="#47251B"/>
<rect x="544.561" y="237.389" width="13" height="894" transform="rotate(-39.5263 544.561 237.389)" fill="#47251B"/>
<rect x="495.196" y="278.121" width="13" height="894" transform="rotate(-39.5263 495.196 278.121)" fill="#47251B"/>
<rect x="683.401" y="122.831" width="13" height="894" transform="rotate(-39.5263 683.401 122.831)" fill="#47251B"/>
<rect x="634.036" y="163.563" width="13" height="894" transform="rotate(-39.5263 634.036 163.563)" fill="#47251B"/>
<rect x="822.241" y="8.27359" width="13" height="894" transform="rotate(-39.5263 822.241 8.27359)" fill="#47251B"/>
<rect x="772.875" y="49.0053" width="13" height="894" transform="rotate(-39.5263 772.875 49.0053)" fill="#47251B"/>
<rect x="752.821" y="65.5525" width="13" height="894" transform="rotate(-39.5263 752.821 65.5525)" fill="#47251B"/>
<rect x="703.456" y="106.284" width="13" height="894" transform="rotate(-39.5263 703.456 106.284)" fill="#47251B"/>
<rect x="49.3652" y="645.979" width="13" height="894" transform="rotate(-39.5263 49.3652 645.979)" fill="#A7864D"/>
<rect x="20.0547" y="670.163" width="13" height="894" transform="rotate(-39.5263 20.0547 670.163)" fill="#A7864D"/>
<rect x="188.205" y="531.421" width="13" height="894" transform="rotate(-39.5263 188.205 531.421)" fill="#A7864D"/>
<rect x="158.895" y="555.605" width="13" height="894" transform="rotate(-39.5263 158.895 555.605)" fill="#A7864D"/>
<rect x="118.785" y="588.7" width="13" height="894" transform="rotate(-39.5263 118.785 588.7)" fill="#A7864D"/>
<rect x="89.4746" y="612.884" width="13" height="894" transform="rotate(-39.5263 89.4746 612.884)" fill="#A7864D"/>
<rect x="257.625" y="474.142" width="13" height="894" transform="rotate(-39.5263 257.625 474.142)" fill="#A7864D"/>
<rect x="228.314" y="498.326" width="13" height="894" transform="rotate(-39.5263 228.314 498.326)" fill="#A7864D"/>
<rect x="396.465" y="359.584" width="13" height="894" transform="rotate(-39.5263 396.465 359.584)" fill="#A7864D"/>
<rect x="367.154" y="383.769" width="13" height="894" transform="rotate(-39.5263 367.154 383.769)" fill="#A7864D"/>
<rect x="327.045" y="416.863" width="13" height="894" transform="rotate(-39.5263 327.045 416.863)" fill="#A7864D"/>
<rect x="297.734" y="441.047" width="13" height="894" transform="rotate(-39.5263 297.734 441.047)" fill="#A7864D"/>
<rect x="465.114" y="302.942" width="13" height="894" transform="rotate(-39.5263 465.114 302.942)" fill="#A7864D"/>
<rect x="435.803" y="327.126" width="13" height="894" transform="rotate(-39.5263 435.803 327.126)" fill="#A7864D"/>
<rect x="603.954" y="188.384" width="13" height="894" transform="rotate(-39.5263 603.954 188.384)" fill="#A7864D"/>
<rect x="574.643" y="212.568" width="13" height="894" transform="rotate(-39.5263 574.643 212.568)" fill="#A7864D"/>
<rect x="534.534" y="245.663" width="13" height="894" transform="rotate(-39.5263 534.534 245.663)" fill="#A7864D"/>
<rect x="505.223" y="269.847" width="13" height="894" transform="rotate(-39.5263 505.223 269.847)" fill="#A7864D"/>
<rect x="673.374" y="131.105" width="13" height="894" transform="rotate(-39.5263 673.374 131.105)" fill="#A7864D"/>
<rect x="644.063" y="155.289" width="13" height="894" transform="rotate(-39.5263 644.063 155.289)" fill="#A7864D"/>
<rect x="812.213" y="16.5472" width="13" height="894" transform="rotate(-39.5263 812.213 16.5472)" fill="#A7864D"/>
<rect x="782.903" y="40.7317" width="13" height="894" transform="rotate(-39.5263 782.903 40.7317)" fill="#A7864D"/>
<rect x="742.793" y="73.8261" width="13" height="894" transform="rotate(-39.5263 742.793 73.8261)" fill="#A7864D"/>
<rect x="713.483" y="98.0106" width="13" height="894" transform="rotate(-39.5263 713.483 98.0106)" fill="#A7864D"/>
<rect x="30.082" y="661.889" width="25" height="894" transform="rotate(-39.5263 30.082 661.889)" fill="#101D2C"/>
<rect x="168.922" y="547.332" width="25" height="894" transform="rotate(-39.5263 168.922 547.332)" fill="#101D2C"/>
<rect x="99.502" y="604.61" width="25" height="894" transform="rotate(-39.5263 99.502 604.61)" fill="#101D2C"/>
<rect x="238.342" y="490.053" width="25" height="894" transform="rotate(-39.5263 238.342 490.053)" fill="#101D2C"/>
<rect x="377.182" y="375.495" width="25" height="894" transform="rotate(-39.5263 377.182 375.495)" fill="#101D2C"/>
<rect x="307.762" y="432.774" width="25" height="894" transform="rotate(-39.5263 307.762 432.774)" fill="#101D2C"/>
<rect x="445.83" y="318.852" width="25" height="894" transform="rotate(-39.5263 445.83 318.852)" fill="#101D2C"/>
<rect x="584.67" y="204.295" width="25" height="894" transform="rotate(-39.5263 584.67 204.295)" fill="#101D2C"/>
<rect x="515.25" y="261.574" width="25" height="894" transform="rotate(-39.5263 515.25 261.574)" fill="#101D2C"/>
<rect x="654.09" y="147.016" width="25" height="894" transform="rotate(-39.5263 654.09 147.016)" fill="#101D2C"/>
<rect x="792.93" y="32.4581" width="25" height="894" transform="rotate(-39.5263 792.93 32.4581)" fill="#101D2C"/>
<rect x="723.51" y="89.7369" width="25" height="894" transform="rotate(-39.5263 723.51 89.7369)" fill="#101D2C"/>
<rect width="38.6586" height="1119.94" transform="matrix(0.941342 -0.337453 0.0242859 0.999705 43.9631 650.436)" fill="#832543" fill-opacity="0.1"/>
<rect width="20.1025" height="1119.94" transform="matrix(0.941342 -0.337453 0.0242859 0.999705 76.8455 627.38)" fill="#A7864D" fill-opacity="0.1"/>
<rect width="20.1025" height="1119.94" transform="matrix(0.941342 -0.337453 0.0242859 0.999705 93.3679 613.747)" fill="#47251B" fill-opacity="0.1"/>
<rect width="20.1025" height="1119.94" transform="matrix(0.941342 -0.337453 0.0242859 0.999705 12.0261 680.863)" fill="#47251B" fill-opacity="0.1"/>
<rect width="20.1025" height="1119.94" transform="matrix(0.941342 -0.337453 0.0242859 0.999705 -4.49658 694.496)" fill="#097344" fill-opacity="0.1"/>
<rect width="20.1025" height="1119.94" transform="matrix(0.941342 -0.337453 0.0242859 0.999705 28.5486 667.23)" fill="#A7864D" fill-opacity="0.1"/>
<rect width="38.6586" height="1119.94" transform="matrix(0.941342 -0.337453 0.0242859 0.999705 272.738 461.672)" fill="#832543" fill-opacity="0.1"/>
<rect width="20.1025" height="1119.94" transform="matrix(0.941342 -0.337453 0.0242859 0.999705 305.62 438.617)" fill="#A7864D" fill-opacity="0.1"/>
<rect width="20.1025" height="1119.94" transform="matrix(0.941342 -0.337453 0.0242859 0.999705 322.143 424.984)" fill="#47251B" fill-opacity="0.1"/>
<rect width="20.1025" height="1119.94" transform="matrix(0.941342 -0.337453 0.0242859 0.999705 240.801 492.1)" fill="#47251B" fill-opacity="0.1"/>
<rect width="20.1025" height="1119.94" transform="matrix(0.941342 -0.337453 0.0242859 0.999705 224.278 505.733)" fill="#097344" fill-opacity="0.1"/>
<rect width="20.1025" height="1119.94" transform="matrix(0.941342 -0.337453 0.0242859 0.999705 257.323 478.467)" fill="#A7864D" fill-opacity="0.1"/>
<rect width="38.6586" height="1119.94" transform="matrix(0.941342 -0.337453 0.0242859 0.999705 158.351 556.054)" fill="#832543" fill-opacity="0.1"/>
<rect width="20.1025" height="1119.94" transform="matrix(0.941342 -0.337453 0.0242859 0.999705 191.233 532.999)" fill="#A7864D" fill-opacity="0.1"/>
<rect width="20.1025" height="1119.94" transform="matrix(0.941342 -0.337453 0.0242859 0.999705 207.755 519.366)" fill="#47251B" fill-opacity="0.1"/>
<rect width="20.1025" height="1119.94" transform="matrix(0.941342 -0.337453 0.0242859 0.999705 126.413 586.482)" fill="#47251B" fill-opacity="0.1"/>
<rect width="20.1025" height="1119.94" transform="matrix(0.941342 -0.337453 0.0242859 0.999705 109.891 600.114)" fill="#097344" fill-opacity="0.1"/>
<rect width="20.1025" height="1119.94" transform="matrix(0.941342 -0.337453 0.0242859 0.999705 142.936 572.849)" fill="#A7864D" fill-opacity="0.1"/>
<rect width="38.6586" height="1119.94" transform="matrix(0.941342 -0.337453 0.0242859 0.999705 387.125 367.291)" fill="#832543" fill-opacity="0.1"/>
<rect width="20.1025" height="1119.94" transform="matrix(0.941342 -0.337453 0.0242859 0.999705 420.007 344.235)" fill="#A7864D" fill-opacity="0.1"/>
<rect width="20.1025" height="1119.94" transform="matrix(0.941342 -0.337453 0.0242859 0.999705 436.53 330.602)" fill="#47251B" fill-opacity="0.1"/>
<rect width="20.1025" height="1119.94" transform="matrix(0.941342 -0.337453 0.0242859 0.999705 355.188 397.718)" fill="#47251B" fill-opacity="0.1"/>
<rect width="20.1025" height="1119.94" transform="matrix(0.941342 -0.337453 0.0242859 0.999705 338.665 411.351)" fill="#097344" fill-opacity="0.1"/>
<rect width="20.1025" height="1119.94" transform="matrix(0.941342 -0.337453 0.0242859 0.999705 371.71 384.085)" fill="#A7864D" fill-opacity="0.1"/>
<rect width="38.6586" height="1119.94" transform="matrix(0.941342 -0.337453 0.0242859 0.999705 615.899 178.527)" fill="#832543" fill-opacity="0.1"/>
<rect width="20.1025" height="1119.94" transform="matrix(0.941342 -0.337453 0.0242859 0.999705 648.782 155.472)" fill="#A7864D" fill-opacity="0.1"/>
<rect width="20.1025" height="1119.94" transform="matrix(0.941342 -0.337453 0.0242859 0.999705 665.304 141.839)" fill="#47251B" fill-opacity="0.1"/>
<rect width="20.1025" height="1119.94" transform="matrix(0.941342 -0.337453 0.0242859 0.999705 583.962 208.955)" fill="#47251B" fill-opacity="0.1"/>
<rect width="20.1025" height="1119.94" transform="matrix(0.941342 -0.337453 0.0242859 0.999705 567.44 222.587)" fill="#097344" fill-opacity="0.1"/>
<rect width="20.1025" height="1119.94" transform="matrix(0.941342 -0.337453 0.0242859 0.999705 600.485 195.322)" fill="#A7864D" fill-opacity="0.1"/>
<rect width="38.6586" height="1119.94" transform="matrix(0.941342 -0.337453 0.0242859 0.999705 501.512 272.909)" fill="#832543" fill-opacity="0.1"/>
<rect width="20.1025" height="1119.94" transform="matrix(0.941342 -0.337453 0.0242859 0.999705 534.395 249.853)" fill="#A7864D" fill-opacity="0.1"/>
<rect width="20.1025" height="1119.94" transform="matrix(0.941342 -0.337453 0.0242859 0.999705 550.917 236.22)" fill="#47251B" fill-opacity="0.1"/>
<rect width="20.1025" height="1119.94" transform="matrix(0.941342 -0.337453 0.0242859 0.999705 469.575 303.336)" fill="#47251B" fill-opacity="0.1"/>
<rect width="20.1025" height="1119.94" transform="matrix(0.941342 -0.337453 0.0242859 0.999705 453.052 316.969)" fill="#097344" fill-opacity="0.1"/>
<rect width="20.1025" height="1119.94" transform="matrix(0.941342 -0.337453 0.0242859 0.999705 486.098 289.703)" fill="#A7864D" fill-opacity="0.1"/>
<rect width="38.6586" height="1119.94" transform="matrix(0.941342 -0.337453 0.0242859 0.999705 729.016 85.1944)" fill="#832543" fill-opacity="0.1"/>
<rect width="20.1025" height="1119.94" transform="matrix(0.941342 -0.337453 0.0242859 0.999705 761.898 62.1386)" fill="#A7864D" fill-opacity="0.1"/>
<rect width="20.1025" height="1119.94" transform="matrix(0.941342 -0.337453 0.0242859 0.999705 778.421 48.5056)" fill="#47251B" fill-opacity="0.1"/>
<rect width="20.1025" height="1119.94" transform="matrix(0.941342 -0.337453 0.0242859 0.999705 697.079 115.621)" fill="#47251B" fill-opacity="0.1"/>
<rect width="20.1025" height="1119.94" transform="matrix(0.941342 -0.337453 0.0242859 0.999705 680.556 129.254)" fill="#097344" fill-opacity="0.1"/>
<rect width="20.1025" height="1119.94" transform="matrix(0.941342 -0.337453 0.0242859 0.999705 713.601 101.989)" fill="#A7864D" fill-opacity="0.1"/>
<rect width="38.6586" height="1119.94" transform="matrix(0.941342 -0.337453 0.0242859 0.999705 957.79 -103.569)" fill="#832543" fill-opacity="0.1"/>
<rect width="20.1025" height="1119.94" transform="matrix(0.941342 -0.337453 0.0242859 0.999705 990.673 -126.625)" fill="#A7864D" fill-opacity="0.1"/>
<rect width="20.1025" height="1119.94" transform="matrix(0.941342 -0.337453 0.0242859 0.999705 1007.2 -140.258)" fill="#47251B" fill-opacity="0.1"/>
<rect width="20.1025" height="1119.94" transform="matrix(0.941342 -0.337453 0.0242859 0.999705 925.853 -73.1419)" fill="#47251B" fill-opacity="0.1"/>
<rect width="20.1025" height="1119.94" transform="matrix(0.941342 -0.337453 0.0242859 0.999705 909.331 -59.5091)" fill="#097344" fill-opacity="0.1"/>
<rect width="20.1025" height="1119.94" transform="matrix(0.941342 -0.337453 0.0242859 0.999705 942.376 -86.7749)" fill="#A7864D" fill-opacity="0.1"/>
<rect width="38.6586" height="1119.94" transform="matrix(0.941342 -0.337453 0.0242859 0.999705 843.403 -9.18729)" fill="#832543" fill-opacity="0.1"/>
<rect width="20.1025" height="1119.94" transform="matrix(0.941342 -0.337453 0.0242859 0.999705 876.285 -32.2432)" fill="#A7864D" fill-opacity="0.1"/>
<rect width="20.1025" height="1119.94" transform="matrix(0.941342 -0.337453 0.0242859 0.999705 892.808 -45.8761)" fill="#47251B" fill-opacity="0.1"/>
<rect width="20.1025" height="1119.94" transform="matrix(0.941342 -0.337453 0.0242859 0.999705 811.466 21.2397)" fill="#47251B" fill-opacity="0.1"/>
<rect width="20.1025" height="1119.94" transform="matrix(0.941342 -0.337453 0.0242859 0.999705 794.944 34.8725)" fill="#097344" fill-opacity="0.1"/>
<rect width="20.1025" height="1119.94" transform="matrix(0.941342 -0.337453 0.0242859 0.999705 827.989 7.60672)" fill="#A7864D" fill-opacity="0.1"/>
<rect width="38.6586" height="1119.94" transform="matrix(0.941342 -0.337453 0.0242859 0.999705 1072.18 -197.951)" fill="#832543" fill-opacity="0.1"/>
<rect width="20.1025" height="1119.94" transform="matrix(0.941342 -0.337453 0.0242859 0.999705 1105.06 -221.007)" fill="#A7864D" fill-opacity="0.1"/>
<rect width="20.1025" height="1119.94" transform="matrix(0.941342 -0.337453 0.0242859 0.999705 1121.58 -234.64)" fill="#47251B" fill-opacity="0.1"/>
<rect width="20.1025" height="1119.94" transform="matrix(0.941342 -0.337453 0.0242859 0.999705 1040.24 -167.524)" fill="#47251B" fill-opacity="0.1"/>
<rect width="20.1025" height="1119.94" transform="matrix(0.941342 -0.337453 0.0242859 0.999705 1023.72 -153.891)" fill="#097344" fill-opacity="0.1"/>
<rect width="20.1025" height="1119.94" transform="matrix(0.941342 -0.337453 0.0242859 0.999705 1056.76 -181.157)" fill="#A7864D" fill-opacity="0.1"/>
<rect width="20.1025" height="1119.94" transform="matrix(0.941342 -0.337453 0.0242859 0.999705 1269.02 -356.287)" fill="#47251B" fill-opacity="0.1"/>
<rect width="20.1025" height="1119.94" transform="matrix(0.941342 -0.337453 0.0242859 0.999705 1252.49 -342.654)" fill="#097344" fill-opacity="0.1"/>
<rect width="20.1025" height="1119.94" transform="matrix(0.941342 -0.337453 0.0242859 0.999705 1285.54 -369.92)" fill="#A7864D" fill-opacity="0.1"/>
<rect width="38.6586" height="1119.94" transform="matrix(0.941342 -0.337453 0.0242859 0.999705 1186.56 -292.333)" fill="#832543" fill-opacity="0.1"/>
<rect width="20.1025" height="1119.94" transform="matrix(0.941342 -0.337453 0.0242859 0.999705 1219.45 -315.389)" fill="#A7864D" fill-opacity="0.1"/>
<rect width="20.1025" height="1119.94" transform="matrix(0.941342 -0.337453 0.0242859 0.999705 1235.97 -329.022)" fill="#47251B" fill-opacity="0.1"/>
<rect width="20.1025" height="1119.94" transform="matrix(0.941342 -0.337453 0.0242859 0.999705 1154.63 -261.906)" fill="#47251B" fill-opacity="0.1"/>
<rect width="20.1025" height="1119.94" transform="matrix(0.941342 -0.337453 0.0242859 0.999705 1138.11 -248.273)" fill="#097344" fill-opacity="0.1"/>
<rect width="20.1025" height="1119.94" transform="matrix(0.941342 -0.337453 0.0242859 0.999705 1171.15 -275.539)" fill="#A7864D" fill-opacity="0.1"/>
</g>
<defs>
<clipPath id="clip0">
<rect width="1079" height="728.856" fill="white" transform="translate(0 686.71) rotate(-39.5263)"/>
</clipPath>
</defs>
</svg>
