<svg width="551" height="612" viewBox="0 0 551 612" fill="none" xmlns="http://www.w3.org/2000/svg">
<g clip-path="url(#clip0)">
<ellipse cx="275.5" cy="306" rx="275.5" ry="306" fill="#BFA057" fill-opacity="0.76"/>
<path d="M327.043 409.868C327.043 398.521 318.032 389.323 306.916 389.323H226.408C215.292 389.323 206.281 398.521 206.281 409.868V417.173H327.043V409.868Z" fill="#E38C00"/>
<path d="M367.582 248.5V239.485H285.392C285.392 228.176 277.273 224.436 271.589 222.367V193.255V187.195L266.924 182L262.259 187.195V193.255V222.367C256.575 224.436 247.609 228.648 247.609 239.485H165.418V248.5H182.192L152 323.833C152 342.714 167.049 358.076 185.545 358.076H198.963C217.459 358.076 232.508 342.714 232.508 323.833L202.179 248.5H247.609C249.636 254.302 254.108 258.866 259.791 260.935V358.826C246.68 361.565 236.308 372.081 233.634 385.47H299.366C296.693 372.081 286.321 361.565 273.209 358.826V260.935C278.893 258.866 283.365 254.302 285.392 248.5H330.685L300.492 323.833C300.492 342.714 315.541 358.076 334.037 358.076H347.455C365.951 358.076 381 342.714 381 323.833L350.671 248.5H367.582ZM220.276 316.985H164.298L191.863 248.5L220.276 316.985ZM367.582 316.985H313.572L339.865 248.5L367.582 316.985Z" fill="#E38C00"/>
<g clip-path="url(#clip1)">
<path d="M124.116 195.77L167.287 191.598C161.004 194.126 180.182 187.453 182.548 193.812C200.867 193.443 206.163 169.659 244.077 160.496L308.509 157.466C325.036 155.407 347.064 136.904 357.453 123.871L432 54.4998L401 32.5L365.361 16.4509L333.808 45.8427L302.098 73.0591C283.139 76.8159 218.767 73.6476 201.228 85.2649L187.714 93.3268L103.327 179.822C96.3964 189.211 94.7902 197.161 100.811 201.402C105.742 204.876 116.368 202.936 124.116 195.77L145.721 196.811Z" fill="#DC9F73"/>
<path d="M128.244 199.204L130.17 197.47C139.662 204.859 153.403 205.351 161.973 198.028C162 198.005 162.028 197.981 162.054 197.957L166.115 194.307C172.315 197.512 179.355 198.705 186.259 197.721C193.162 196.737 199.587 193.625 204.641 188.816L225.158 170.23L256.573 162.637C263.425 160.991 270.561 160.909 277.452 162.399L282.259 163.442C295.862 166.435 310.024 165.598 323.175 161.024C336.325 156.451 347.953 148.319 356.769 137.529C356.844 137.437 356.916 137.346 356.983 137.247L365.129 125.469C368.1 121.177 416.592 78.3729 437.413 60.4427C437.841 60.0746 438.446 59.1215 438.446 59.1215L435.819 57.0359L432 54C422.868 61.8641 362.545 114.094 358.07 120.562L350.023 132.195C342.2 141.717 331.903 148.889 320.266 152.919C308.629 156.949 296.105 157.681 284.073 155.034L279.267 153.989C271.109 152.226 262.663 152.323 254.551 154.272L212.82 164.358C206.458 165.887 199.759 165.107 193.912 162.158C188.065 159.208 183.449 154.279 180.883 148.246L212.096 142.181C223.18 140.025 234.044 136.86 244.554 132.728C245.084 132.525 245.57 132.22 245.981 131.828C246.393 131.437 246.723 130.967 246.953 130.447C247.182 129.927 247.306 129.366 247.317 128.797C247.329 128.228 247.228 127.663 247.02 127.133C246.812 126.604 246.501 126.121 246.105 125.712C245.71 125.303 245.237 124.977 244.715 124.753C244.193 124.528 243.632 124.41 243.064 124.404C242.496 124.398 241.933 124.505 241.407 124.719C231.384 128.66 221.023 131.678 210.451 133.733L174.466 140.722C173.896 140.833 173.354 141.058 172.874 141.385C172.394 141.711 171.985 142.132 171.671 142.621C171.358 143.111 171.147 143.659 171.051 144.233C170.956 144.806 170.977 145.394 171.114 145.959C171.322 146.817 171.568 147.656 171.832 148.485L167.323 152.465L122.497 192.801C118.894 196.053 114.299 197.991 109.458 198.3C104.616 198.609 99.8099 197.272 95.8182 194.505L183.117 97.1546C195.258 87.1038 210.276 81.1795 226.004 80.2363L291.386 76.6581C298.568 76.6986 305.493 73.9924 310.747 69.0918L361.234 21.5392C361.647 21.1523 364.579 18.3873 364.579 18.3873L365.579 16.8873C365.579 16.3873 363.579 15.8873 363.579 15.8873L362.213 15.2781C362.213 15.2781 360.568 14.6992 360.051 14.4676C359.535 14.2361 358.978 14.109 358.412 14.0936C357.847 14.0783 357.284 14.175 356.756 14.3783C356.228 14.5816 355.746 14.8873 355.336 15.2781L304.878 62.805C301.196 66.2293 296.343 68.108 291.317 68.0542C291.225 68.0527 291.134 68.0549 291.042 68.0608L225.516 71.646C207.84 72.704 190.971 79.3963 177.371 90.7454C177.215 90.8761 177.068 91.0178 176.932 91.1694L86.4737 192.044C85.7424 192.859 85.3497 193.924 85.3759 195.02C85.4021 196.116 85.8451 197.162 86.6146 197.942C92.061 203.483 99.4292 206.706 107.184 206.941C114.939 207.176 122.483 204.405 128.244 199.204ZM198.835 182.468L198.749 182.548C195.402 185.744 191.235 187.946 186.711 188.909C182.187 189.872 177.484 189.559 173.124 188.004L192.218 170.84C197.374 173.038 202.968 174.003 208.558 173.658L198.835 182.468ZM173.036 158.896L175.6 156.633C177.927 160.362 180.911 163.636 184.407 166.296L156.358 191.511C151.273 195.817 142.928 195.629 136.71 191.585L173.036 158.896Z" fill="#D08D5E"/>
</g>
<g clip-path="url(#clip2)">
<path d="M400.192 414.79L383.524 420.002C389.807 417.475 370.629 424.148 368.263 417.788C349.944 418.158 344.648 441.941 306.734 451.105L242.302 454.135C225.775 456.194 208.581 466.467 198.192 479.5L118 557C119.5 560.5 149.811 579.101 149.811 579.101C149.811 579.101 169 589 185.45 595.15C201.211 601.042 217.003 565.758 217.003 565.758L248.713 538.542C267.672 534.785 332.044 537.953 349.583 526.336L363.097 518.274L447.485 431.779C454.415 422.39 459.692 414.79 450 410.198C445.069 406.725 423.192 417 400.192 414.79L405.09 414.79Z" fill="#FFDCD4"/>
<path d="M421.375 412.396L419.449 414.13C409.957 406.741 396.216 406.249 387.646 413.572C387.619 413.596 387.592 413.619 387.565 413.644L383.504 417.294C377.304 414.089 370.264 412.896 363.36 413.88C356.457 414.864 350.032 417.976 344.978 422.785L324.461 441.37L293.046 448.963C286.194 450.61 279.058 450.692 272.167 449.202L267.36 448.158C253.757 445.166 239.596 446.003 226.445 450.576C213.294 455.15 201.666 463.282 192.85 474.072C192.775 474.163 192.703 474.254 192.637 474.353L184.49 486.132C181.519 490.424 133.027 533.228 112.206 551.158C111.778 551.526 111.173 552.479 111.173 552.479L113.8 554.565L117.619 557.601C126.751 549.737 187.075 497.507 191.55 491.038L199.597 479.406C207.419 469.883 217.716 462.712 229.353 458.682C240.99 454.652 253.514 453.92 265.546 456.566L270.353 457.611C278.51 459.374 286.956 459.278 295.068 457.329L336.799 447.242C343.161 445.713 349.86 446.493 355.707 449.443C361.554 452.393 366.17 457.322 368.737 463.355L337.524 469.42C326.439 471.576 315.575 474.74 305.065 478.873C304.535 479.075 304.05 479.381 303.638 479.772C303.226 480.164 302.896 480.633 302.667 481.153C302.437 481.674 302.313 482.235 302.302 482.803C302.29 483.372 302.391 483.938 302.599 484.467C302.808 484.997 303.118 485.48 303.514 485.889C303.91 486.297 304.382 486.623 304.904 486.848C305.426 487.072 305.987 487.191 306.555 487.197C307.123 487.203 307.686 487.096 308.212 486.882C318.235 482.94 328.596 479.923 339.168 477.867L375.153 470.878C375.723 470.768 376.265 470.542 376.745 470.216C377.225 469.889 377.635 469.469 377.948 468.979C378.261 468.49 378.472 467.942 378.568 467.368C378.664 466.794 378.642 466.207 378.505 465.641C378.297 464.783 378.051 463.945 377.787 463.116L382.296 459.135L427.122 418.799C430.725 415.547 435.32 413.61 440.162 413.3C445.003 412.991 449.809 414.328 453.801 417.096L366.502 514.446C354.361 524.497 339.343 530.421 323.615 531.364L258.233 534.942C251.051 534.902 244.127 537.608 238.873 542.509L188.385 590.061C187.972 590.448 185.04 593.213 185.04 593.213L184.04 594.713C184.04 595.213 186.04 595.713 186.04 595.713L187.406 596.323C187.406 596.323 189.051 596.901 189.568 597.133C190.084 597.365 190.641 597.492 191.207 597.507C191.772 597.522 192.335 597.426 192.863 597.222C193.391 597.019 193.873 596.713 194.283 596.323L244.741 548.796C248.423 545.371 253.276 543.493 258.302 543.546C258.394 543.548 258.485 543.546 258.577 543.54L324.104 539.955C341.779 538.897 358.649 532.204 372.248 520.855C372.404 520.724 372.551 520.583 372.687 520.431L463.145 419.557C463.877 418.742 464.269 417.677 464.243 416.581C464.217 415.484 463.774 414.439 463.005 413.658C457.558 408.118 450.19 404.894 442.435 404.659C434.68 404.424 427.136 407.196 421.375 412.396ZM350.784 429.132L350.87 429.053C354.217 425.857 358.385 423.655 362.909 422.692C367.432 421.729 372.136 422.042 376.495 423.597L357.401 440.761C352.246 438.563 346.651 437.598 341.061 437.943L350.784 429.132ZM376.583 452.705L374.02 454.968C371.692 451.239 368.708 447.964 365.213 445.304L393.261 420.09C398.346 415.783 406.692 415.971 412.909 420.016L376.583 452.705Z" fill="#FAC9BE"/>
</g>
</g>
<defs>
<clipPath id="clip0">
<rect width="551" height="612" fill="white"/>
</clipPath>
<clipPath id="clip1">
<rect width="416.928" height="181.881" fill="white" transform="translate(498.619 124.652) rotate(166.413)"/>
</clipPath>
<clipPath id="clip2">
<rect width="416.928" height="181.881" fill="white" transform="translate(51 486.949) rotate(-13.5875)"/>
</clipPath>
</defs>
</svg>
