<svg width="293" height="166" viewBox="0 0 293 166" fill="none" xmlns="http://www.w3.org/2000/svg">
<path d="M287 6.39984C285.321 4.65362 283.3 3.27271 281.063 2.34353C278.826 1.41435 276.422 0.956907 274 0.999835H18.4C13.4 0.999835 9.10001 2.79984 5.50001 6.39984C3.7604 8.04677 2.37532 10.0315 1.42959 12.2325C0.483862 14.4334 -0.00259544 16.8043 1.0414e-05 19.1998C1.0414e-05 24.1998 1.80001 28.4998 5.40001 32.0998L133.4 160C137 163.6 141.2 165.4 146.2 165.4C151.2 165.4 155.4 163.6 159 160L287 31.9998C290.5 28.4998 292.4 24.1998 292.4 19.1998C292.4 14.1998 290.5 9.99984 286.9 6.39984H287Z" fill="#E38C00"/>
</svg>
