<svg width="27" height="27" viewBox="0 0 27 27" fill="none" xmlns="http://www.w3.org/2000/svg">
<g clip-path="url(#clip0)">
<path d="M22.0545 2.88225L18.2902 6.41137C16.8615 5.92987 15.2685 5.625 13.5169 5.625C5.00175 5.625 0 12.9949 0 12.9949C0 12.9949 2.169 16.3147 5.78925 18.7751L2.51437 22.0477L4.10512 23.6385L23.6464 4.47412L22.0545 2.88225V2.88225ZM15.2865 9.38362C11.5875 7.749 7.77037 11.5301 9.36337 15.2404L7.42163 17.1607C5.38088 15.8557 3.7935 14.1795 2.85412 13.0432C4.53375 11.1892 8.27325 7.875 13.5169 7.875C14.5598 7.875 15.5374 8.00887 16.4531 8.22937L15.2865 9.38362V9.38362ZM12.0431 17.7435L17.7694 12.1264C18.9135 15.6262 15.516 18.9517 12.0431 17.7435ZM27 12.9949C27 12.9949 22.2165 21.375 13.5169 21.375C11.9655 21.375 10.5221 21.0476 9.1845 20.5459L11.0002 18.765C11.8046 18.9821 12.6405 19.125 13.5169 19.125C18.9068 19.125 22.6339 15.1571 24.2089 13.0905C23.3887 12.1657 22.0084 10.8517 20.1735 9.7695L21.8486 8.127C25.2034 10.2645 27 12.9949 27 12.9949V12.9949Z" fill="white"/>
</g>
<defs>
<clipPath id="clip0">
<rect width="27" height="27" fill="white"/>
</clipPath>
</defs>
</svg>
