<svg id="Capa_1" enable-background="new 0 0 512.005 512.005" height="512" viewBox="0 0 512.005 512.005" width="512" xmlns="http://www.w3.org/2000/svg"><g><path d="m512.003 192v305c0 8.28-6.72 15-15 15h-482c-8.28 0-15-6.72-15-15v-305c0-4.8 2.3-9.31 6.18-12.13 142.059-103.268 84.954-61.349 240.889-176.92 5.212-3.879 12.463-3.988 17.86 0 152.229 112.805 95.247 71.071 240.89 176.92 3.881 2.82 6.181 7.331 6.181 12.13z" fill="#eaf1ff"/><path d="m512.003 192v305c0 8.28-6.72 15-15 15h-241.09v-512c3.17-.02 6.34.97 9.02 2.95 152.229 112.805 95.247 71.071 240.89 176.92 3.88 2.82 6.18 7.331 6.18 12.13z" fill="#b1d5f1"/><path d="m386.003 32h-196c-24.813 0-45 20.187-45 45v323c0 8.284 6.716 15 15 15h256c8.284 0 15-6.716 15-15v-323c0-24.813-20.187-45-45-45z" fill="#00864f"/><path d="m367.003 45v323c0 8.28-6.72 15-15 15h-256c-8.28 0-15-6.72-15-15v-323c0-24.81 20.19-45 45-45h196c24.81 0 45 20.19 45 45z" fill="#afea93"/><path d="m367.003 45v323c0 8.28-6.72 15-15 15h-128.03v-383h98.03c24.81 0 45 20.19 45 45z" fill="#00cb75"/><path d="m238.996 237.86v3.14c0 8.28-6.72 15-15 15-8.277 0-15-6.72-15-15v-1.44c-6.92-1.21-13.23-3.8-21.21-9.02-6.93-4.54-8.87-13.83-4.33-20.76 4.54-6.94 13.83-8.88 20.76-4.34 7.715 5.052 10.084 5.08 19.76 5.08 9.59-.1 13.41-7.64 14.16-12.1.68-4.01-.08-9.34-7.51-11.97-11.309-3.979-24.898-9.185-34.28-16.55-20.65-16.19-14.31-53.07 12.65-62.88v-2.17c0-8.277 6.72-15 15-15s15 6.72 15 15v1.23c9.94 2.93 16.89 9.12 16.89 9.12 6.05 5.6 6.45 15.05.87 21.14-5.59 6.1-15.05 6.52-21.16.96-3.974-2.95-9.922-4.075-15.98-2.22-4.02 1.21-5.1 5.35-5.33 6.6-.49 2.58.2 4.32.57 4.62 6.109 4.783 18.455 9.278 25.77 11.87 39.53 13.98 34.71 66.56-1.63 79.69z" fill="#00cb75"/><path d="m238.996 237.86v3.14c0 8.28-6.72 15-15 15-.1 0-.02 1.018-.02-45.48 9.59-.1 13.41-7.64 14.16-12.1.68-4.01-.08-9.34-7.51-11.97-2.16-.76-4.39-1.56-6.65-2.41v-32.47c5.66 2.66 12.05 4.97 16.65 6.6 39.53 13.98 34.71 66.56-1.63 79.69z" fill="#00864f"/><path d="m223.976 134.24c0-45.381-.08-44.39.02-44.39 8.28 0 15 6.72 15 15v1.23c9.94 2.93 16.89 9.12 16.89 9.12 6.05 5.6 6.45 15.05.87 21.14-5.59 6.1-15.05 6.52-21.16.96-2.95-2.19-7.08-3.43-11.62-3.06z" fill="#00864f"/><path d="m232.145 331.901-208.3-152.017c-9.882-7.212-23.842-.153-23.842 12.116v305c0 12.339 14.064 19.296 23.879 12.09l208.3-152.983c8.145-5.983 8.179-18.211-.037-24.206z" fill="#ffb454"/><path d="m488.16 179.884-208.3 152.017c-8.164 5.958-8.234 18.185-.036 24.206l208.3 152.983c9.777 7.179 23.879.293 23.879-12.09v-305c0-12.232-13.928-19.349-23.843-12.116z" fill="#ff8659"/><path d="m508.873 506.16c-2.78 3.61-7.13 5.84-11.87 5.84h-482c-4.84 0-9.28-2.33-12.05-6.08l235.27-172.81c10.587-7.753 24.949-7.77 35.54.01z" fill="#ffe278"/><path d="m508.873 506.16c-2.78 3.61-7.13 5.84-11.87 5.84h-241.09v-184.71c6.27-.02 12.54 1.93 17.85 5.83z" fill="#ffb454"/></g></svg>