<svg width="27" height="27" viewBox="0 0 27 27" fill="none" xmlns="http://www.w3.org/2000/svg">
<path d="M13.5169 7.875C18.8617 7.875 22.5877 11.2635 24.2089 13.0905C22.6327 15.1571 18.9067 19.125 13.5169 19.125C8.54438 19.125 4.59562 15.147 2.85413 13.0421C4.53375 11.1893 8.27325 7.875 13.5169 7.875ZM13.5169 5.625C5.00175 5.625 0 12.9949 0 12.9949C0 12.9949 5.43938 21.375 13.5169 21.375C22.2165 21.375 27 12.9949 27 12.9949C27 12.9949 22.1726 5.625 13.5169 5.625ZM13.5 9C11.0149 9 9 11.016 9 13.5C9 15.9851 11.0149 18 13.5 18C15.9851 18 18 15.9851 18 13.5C18 11.016 15.9851 9 13.5 9Z" fill="white"/>
</svg>
